<svg width="804" height="203" viewBox="0 0 804 203" fill="none" xmlns="http://www.w3.org/2000/svg">
<path d="M89.1474 144.56C75.3878 151.9 62.789 155.588 51.2828 155.588C35.7477 155.588 23.3197 150.432 13.9986 140.155C4.67759 129.878 0 116.562 0 100.174C0 82.1462 5.46288 67.8402 16.4228 57.1535C26.3243 47.5593 38.923 42.7451 54.2533 42.7451C64.462 42.7451 72.8271 44.7254 79.3484 48.7201C85.8697 52.7149 89.1474 58.2119 89.1474 65.2795C89.1474 69.4791 87.8159 72.7227 85.221 74.9761C82.592 77.2296 79.485 78.3563 75.8658 78.3563C71.9735 78.3563 68.2178 77.1613 64.5986 74.7371V54.9342C61.4574 53.1246 58.2821 52.2369 55.141 52.2369C45.2395 52.2369 37.3866 56.4023 31.6164 64.7332C25.8463 73.0641 22.9441 83.9216 22.9441 97.2715C22.9441 110.621 26.0853 120.83 32.3334 128.786C38.8889 137.185 48.1417 141.384 60.0576 141.384C69.5835 141.384 79.2801 138.141 89.1474 131.688V144.525V144.56Z" fill="#352E87"/>
<path d="M206.772 153.779H173.004L170.068 140.498C156.103 150.57 143.709 155.589 132.92 155.589C124.521 155.589 117.522 152.96 111.991 147.702C106.425 142.444 103.66 135.206 103.66 126.055C103.66 116.905 107.347 109.428 114.688 104.17C124.145 97.4092 142.617 91.0244 170.068 84.9811V75.2845C170.068 60.3981 163.239 52.955 149.582 52.955C143.88 52.955 138.554 53.9451 133.603 55.9254V75.7284H117.18C111.615 75.7284 108.849 73.5432 108.849 69.2071C108.849 60.6372 113.868 53.9793 123.941 49.1651C132.647 44.9655 143.231 42.8486 155.694 42.8486C179.423 42.8486 191.271 54.0475 191.271 76.4112V139.473C191.271 142.615 192.841 144.288 195.982 144.424L206.806 145.107V153.882L206.772 153.779ZM170.068 132.611V93.6535C151.596 98.2969 139.203 103.35 132.92 108.745C128.277 112.637 125.955 117.895 125.955 124.519C125.955 129.47 127.491 133.669 130.564 137.118C133.637 140.566 137.734 142.307 142.822 142.307C150.162 142.307 159.245 139.098 170.068 132.611Z" fill="#352E87"/>
<path d="M397.938 153.78H347.269V145.005L356.488 144.323C359.629 144.015 361.234 142.376 361.234 139.372V81.9432C361.234 66.6471 354.508 58.9649 341.09 58.9649C333.544 58.9649 325.554 61.1501 317.087 65.4863V139.338C317.087 142.342 318.692 143.981 321.901 144.288L331.495 144.971V153.746H282.193V144.971L291.65 144.288C294.792 143.981 296.362 142.342 296.362 139.338V80.7823C296.362 66.2374 289.738 58.9308 276.457 58.9308C268.024 58.9308 259.932 61.1159 252.249 65.4521V139.303C252.249 142.308 253.854 143.947 257.064 144.254L266.658 144.937V153.712H215.785V144.937L226.813 144.254C229.954 144.118 231.559 142.445 231.559 139.303V59.8185H216.024V52.3753L243.099 43.8054H252.284V56.4042C267.614 47.2539 279.871 42.6787 289.056 42.6787C300.323 42.6787 308.62 47.8002 313.878 57.9748C330.266 47.766 343.275 42.6787 352.903 42.6787C363.59 42.6787 371.477 46.4344 376.598 53.9459C380.491 59.9551 382.471 67.6031 382.471 76.9242V139.303C382.471 142.445 384.042 144.118 387.217 144.254L398.04 144.937V153.712L397.938 153.78Z" fill="#352E87"/>
<path d="M518.053 95.9058C518.053 113.763 512.966 128 502.825 138.585C492.651 149.169 478.686 154.461 460.932 154.461C455.947 154.461 449.255 153.778 440.821 152.447V188.297C440.821 191.131 442.494 192.701 445.84 193.009L459.293 194.135V202.705H404.562V194.135L415.385 193.009C418.526 192.701 420.097 191.131 420.097 188.297V59.8849H404.562V52.4417L431.876 43.8718H440.821V56.4706C452.703 47.3203 464.073 42.7451 474.93 42.7451C486.983 42.7451 497.055 47.3886 505.181 56.7096C513.751 66.6111 518.053 79.6879 518.053 95.8717V95.9058ZM495.553 99.1835C495.553 87.1311 492.924 77.4344 487.632 70.0595C481.895 62.2408 473.974 58.3143 463.902 58.3143C456.971 58.3143 449.289 60.5678 440.856 65.0747V140.701C447.343 143.126 453.454 144.321 459.156 144.321C470.901 144.321 480.12 139.745 486.744 130.561C492.616 122.298 495.553 111.816 495.553 99.1835Z" fill="#352E87"/>
<path d="M599.312 153.78H523.207V143.64L545.946 142.752C549.258 142.615 550.897 140.942 550.897 137.801V19.1542L516.003 25.2317V15.0912L564.623 0H573.193V137.801C573.193 140.942 574.831 142.615 578.143 142.752L599.312 143.64V153.78Z" fill="#009E48"/>
<path d="M715.741 153.78H680.164V140.942C667.394 150.707 655.308 155.59 643.904 155.59C623.179 155.59 612.834 143.742 612.834 120.013V58.9992H597.06V51.3511L624.75 42.7812H633.968V115.745C633.968 132.099 641.172 140.294 655.581 140.294C664.151 140.294 672.311 138.348 680.13 134.455V59.0333H664.355V51.3853L691.841 42.8154H700.854V139.406C700.854 142.547 702.493 144.22 705.805 144.357L715.707 145.04V153.814L715.741 153.78Z" fill="#352E87"/>
<path d="M804 121.003C804 131.928 800.21 140.43 792.631 146.508C785.051 152.585 774.501 155.59 760.98 155.59C748.381 155.59 737.934 153.951 729.671 150.673V120.695H741.143L743.84 139.884C749.542 143.605 756.234 145.449 763.882 145.449C770.028 145.449 774.945 143.776 778.632 140.396C782.319 137.016 784.163 133.021 784.163 128.378C784.163 122.676 781.773 118.032 776.959 114.447C774.398 112.501 767.638 108.916 756.678 103.658C747.835 99.4584 741.519 95.4295 737.763 91.5372C733.392 87.0304 731.241 81.5675 731.241 75.1486C731.241 65.1105 734.792 57.1894 741.928 51.3167C749.064 45.4783 759 42.542 771.769 42.542C783.31 42.542 792.938 44.2833 800.586 47.7317V74.295H788.943L787.168 58.3161C782.832 54.8676 777.164 53.1263 770.13 53.1263C758.044 53.1263 751.966 58.1454 751.966 68.1834C751.966 73.1341 753.673 77.0947 757.122 80.0993C760.57 83.1039 767.126 86.8255 776.857 91.3324C794.952 99.5608 804 109.462 804 121.003Z" fill="#352E87"/>
</svg>
