<svg width="611" height="130" viewBox="0 0 611 130" fill="none" xmlns="http://www.w3.org/2000/svg">
<path d="M191.352 106.767V123.703H189.049V106.767H191.352Z" fill="#646363"/>
<path d="M202.056 106.767L210.998 120.451V106.767H213.166V123.703H210.727L201.92 110.154V123.703H199.752V106.767H202.056Z" fill="#646363"/>
<path d="M229.696 109.07C228.883 108.528 227.935 108.257 226.851 108.257C226.309 108.257 225.902 108.257 225.496 108.392C225.089 108.528 224.683 108.663 224.276 108.799C223.87 108.934 223.599 109.341 223.463 109.747C223.328 110.154 223.192 110.56 223.192 111.102C223.192 111.644 223.328 112.05 223.599 112.321C223.87 112.592 224.276 112.863 224.818 113.134C225.36 113.405 225.902 113.541 226.58 113.676C227.257 113.812 227.935 113.947 228.612 114.083C229.29 114.218 229.967 114.354 230.644 114.625C231.322 114.896 231.864 115.167 232.406 115.438C232.948 115.844 233.354 116.251 233.625 116.793C233.896 117.335 234.032 118.012 234.032 118.825C234.032 119.773 233.896 120.451 233.49 121.128C233.083 121.806 232.541 122.348 231.999 122.754C231.322 123.161 230.644 123.432 229.832 123.703C229.019 123.838 228.341 123.974 227.528 123.974C226.58 123.974 225.631 123.838 224.818 123.567C224.005 123.296 223.192 123.025 222.651 122.483C221.973 121.941 221.431 121.399 221.16 120.586C220.889 119.773 220.618 118.96 220.618 117.877H222.786C222.786 118.554 222.921 119.231 223.192 119.638C223.463 120.18 223.87 120.586 224.276 120.857C224.683 121.128 225.225 121.399 225.902 121.535C226.444 121.67 227.122 121.806 227.799 121.806C228.341 121.806 228.883 121.806 229.29 121.67C229.832 121.535 230.238 121.399 230.644 121.128C231.051 120.857 231.457 120.586 231.593 120.18C231.728 119.773 231.999 119.231 231.999 118.689C231.999 118.148 231.864 117.606 231.593 117.335C231.322 116.928 230.915 116.657 230.373 116.386C229.832 116.115 229.29 115.98 228.612 115.844C227.935 115.709 227.257 115.573 226.58 115.438C225.902 115.302 225.225 115.167 224.547 114.896C223.87 114.625 223.328 114.489 222.786 114.083C222.244 113.812 221.838 113.405 221.567 112.863C221.296 112.321 221.16 111.779 221.16 110.967C221.16 110.154 221.296 109.341 221.702 108.799C222.109 108.257 222.515 107.715 223.057 107.308C223.599 106.902 224.276 106.631 224.954 106.36C225.631 106.089 226.444 106.089 227.257 106.089C228.07 106.089 228.883 106.224 229.696 106.36C230.509 106.631 231.051 106.902 231.593 107.308C232.135 107.715 232.541 108.257 232.948 108.934C233.219 109.612 233.49 110.425 233.49 111.373H231.322C230.915 110.56 230.509 109.612 229.696 109.07Z" fill="#646363"/>
<path d="M243.381 106.767V123.703H241.077V106.767H243.381Z" fill="#646363"/>
<path d="M257.472 106.767C260.046 106.767 262.079 107.444 263.433 108.799C264.788 110.154 265.601 112.186 265.601 114.896C265.601 116.251 265.466 117.606 265.059 118.69C264.788 119.774 264.246 120.722 263.569 121.4C262.891 122.077 262.079 122.754 260.995 123.161C259.911 123.567 258.827 123.703 257.336 123.703H251.51V106.767H257.472ZM257.743 121.806H258.691C259.098 121.806 259.504 121.671 259.911 121.535C260.317 121.4 260.724 121.129 261.13 120.858C261.537 120.587 261.943 120.18 262.214 119.638C262.485 119.096 262.756 118.554 263.027 117.741C263.298 116.928 263.298 116.115 263.298 115.032C263.298 113.948 263.162 113.135 263.027 112.322C262.891 111.509 262.485 110.831 262.079 110.289C261.672 109.747 260.995 109.341 260.317 109.07C259.64 108.799 258.691 108.663 257.743 108.663H253.949V121.806H257.743Z" fill="#646363"/>
<path d="M284.569 106.767V108.663H275.085V114.083H283.892V115.98H275.085V121.806H284.569V123.703H272.782V106.767H284.569Z" fill="#646363"/>
<path d="M310.042 106.767L316.681 123.703H314.242L312.346 118.554H305.165L303.268 123.703H300.964L307.603 106.767H310.042ZM311.533 116.657L308.687 108.799L305.842 116.657H311.533Z" fill="#646363"/>
<path d="M334.566 122.348C333.347 123.432 331.721 123.974 329.689 123.974C327.521 123.974 325.759 123.432 324.54 122.484C323.321 121.535 322.643 119.774 322.643 117.606V106.767H324.946V117.606C324.946 119.096 325.353 120.316 326.166 120.993C326.979 121.806 328.063 122.213 329.689 122.213C331.179 122.213 332.263 121.806 332.94 120.993C333.618 120.18 334.024 119.096 334.024 117.606V106.767H336.328V117.606C336.328 119.774 335.65 121.4 334.566 122.348Z" fill="#646363"/>
<path d="M342.56 108.663V106.767H356.109V108.663H350.418V123.703H348.115V108.663H342.56Z" fill="#646363"/>
<path d="M362.07 111.915C362.341 110.832 362.883 109.883 363.561 109.07C364.238 108.257 365.051 107.58 366.135 107.038C367.219 106.496 368.303 106.36 369.658 106.36C371.013 106.36 372.232 106.631 373.181 107.038C374.129 107.444 375.077 108.122 375.755 109.07C376.432 110.019 376.974 110.832 377.245 111.915C377.516 112.999 377.787 114.083 377.787 115.303C377.787 116.522 377.652 117.606 377.245 118.69C376.974 119.774 376.432 120.722 375.755 121.535C375.077 122.348 374.264 123.026 373.181 123.432C372.097 123.839 371.013 124.11 369.658 124.11C368.303 124.11 367.083 123.839 366.135 123.432C365.051 122.89 364.238 122.348 363.561 121.535C362.883 120.722 362.341 119.774 362.07 118.69C361.799 117.606 361.528 116.522 361.528 115.303C361.528 114.083 361.664 112.999 362.07 111.915ZM364.103 117.742C364.374 118.555 364.645 119.367 365.187 120.045C365.729 120.722 366.27 121.264 367.083 121.671C367.761 122.077 368.709 122.348 369.793 122.348C370.877 122.348 371.69 122.077 372.503 121.671C373.316 121.264 373.858 120.722 374.4 120.045C374.942 119.367 375.213 118.69 375.484 117.742C375.755 116.793 375.755 116.116 375.755 115.167C375.755 114.219 375.619 113.541 375.484 112.593C375.348 111.644 374.942 110.967 374.4 110.29C373.858 109.612 373.316 109.07 372.503 108.664C371.826 108.257 370.877 107.986 369.793 107.986C368.709 107.986 367.896 108.257 367.083 108.664C366.27 109.07 365.729 109.612 365.187 110.29C364.645 110.967 364.374 111.644 364.103 112.593C363.832 113.541 363.832 114.219 363.832 115.167C363.832 116.116 363.832 116.929 364.103 117.742Z" fill="#646363"/>
<path d="M388.085 106.767L393.369 120.993L398.789 106.767H401.905V123.703H399.737V109.612L394.453 123.703H392.556L387.272 109.612V123.703H385.104V106.767H388.085Z" fill="#646363"/>
<path d="M417.215 106.767L423.854 123.703H421.28L419.383 118.554H412.202L410.305 123.703H408.002L414.641 106.767H417.215ZM418.706 116.657L415.86 108.799L413.015 116.657H418.706Z" fill="#646363"/>
<path d="M426.022 108.663V106.767H439.571V108.663H433.88V123.703H431.577V108.663H426.022Z" fill="#646363"/>
<path d="M448.243 106.767V123.703H445.939V106.767H448.243Z" fill="#646363"/>
<path d="M456.101 111.915C456.372 110.832 456.914 109.883 457.591 109.07C458.269 108.257 459.082 107.58 460.166 107.038C461.25 106.496 462.334 106.36 463.689 106.36C465.043 106.36 466.263 106.631 467.211 107.038C468.16 107.444 469.108 108.122 469.786 109.07C470.463 110.019 471.005 110.832 471.276 111.915C471.547 112.999 471.818 114.083 471.818 115.303C471.818 116.522 471.682 117.606 471.276 118.69C471.005 119.774 470.463 120.722 469.786 121.535C469.108 122.348 468.295 123.026 467.211 123.432C466.127 123.839 465.043 124.11 463.689 124.11C462.334 124.11 461.114 123.839 460.166 123.432C459.082 122.89 458.269 122.348 457.591 121.535C456.914 120.722 456.372 119.774 456.101 118.69C455.83 117.606 455.559 116.522 455.559 115.303C455.559 114.083 455.695 112.999 456.101 111.915ZM458.133 117.742C458.404 118.555 458.675 119.367 459.217 120.045C459.759 120.722 460.301 121.264 461.114 121.671C461.792 122.077 462.74 122.348 463.824 122.348C464.908 122.348 465.721 122.077 466.534 121.671C467.347 121.264 467.889 120.722 468.431 120.045C468.973 119.367 469.244 118.69 469.515 117.742C469.786 116.793 469.786 116.116 469.786 115.167C469.786 114.219 469.65 113.541 469.515 112.593C469.379 111.644 468.973 110.967 468.431 110.29C467.889 109.612 467.347 109.07 466.534 108.664C465.856 108.257 464.908 107.986 463.824 107.986C462.74 107.986 461.927 108.257 461.114 108.664C460.301 109.07 459.759 109.612 459.217 110.29C458.675 110.967 458.404 111.644 458.133 112.593C457.862 113.541 457.862 114.219 457.862 115.167C457.862 116.116 457.862 116.929 458.133 117.742Z" fill="#646363"/>
<path d="M481.438 106.767L490.38 120.451V106.767H492.548V123.703H490.109L481.302 110.154V123.703H479.134V106.767H481.438Z" fill="#646363"/>
<path d="M101.116 101.076C91.0892 111.102 79.0306 116.115 64.8041 116.115C50.5775 116.115 38.6544 111.102 28.4926 101.076C18.4663 91.0497 13.4531 78.991 13.4531 64.7645C13.4531 50.538 18.6018 38.6148 28.6281 28.5885C38.6544 18.5622 50.713 13.5491 64.9395 13.5491C79.1661 13.5491 91.2247 18.5622 101.251 28.5885C105.587 32.9242 108.974 37.6664 111.413 42.815H126.317C123.201 34.0081 118.052 26.0142 110.871 18.9687C98.1348 6.23257 82.8243 0 64.9395 0C47.0548 0 31.7444 6.36806 19.0082 18.9687C6.27212 31.7048 0.0395508 47.0152 0.0395508 64.9C0.0395508 82.7848 6.40761 98.0952 19.0082 110.831C31.7444 123.567 47.0548 129.8 64.9395 129.8C82.8243 129.8 98.1348 123.432 110.871 110.831C115.749 106.089 119.542 100.805 122.523 95.2499H106.264C104.638 97.2823 103.012 99.3146 101.116 101.076Z" fill="#D40F14"/>
<path d="M421.822 89.9641C419.654 89.9641 417.486 89.5577 415.59 88.7447C413.693 87.9318 411.931 86.7124 410.441 85.222C408.951 83.7316 407.867 82.1057 406.918 80.0733C405.97 78.041 405.699 76.0086 405.699 73.8408V66.7953C405.699 64.6274 406.105 62.4596 406.918 60.5627C407.731 58.6658 408.951 56.9044 410.441 55.414C411.931 53.9236 413.557 52.8397 415.59 51.8913C417.622 50.9429 419.654 50.6719 421.822 50.6719H441.604C443.772 50.6719 445.939 51.0783 447.972 51.8913C450.004 52.7042 451.63 53.9236 453.12 55.414C454.611 56.9044 455.695 58.5303 456.643 60.5627C457.456 62.595 457.863 64.6274 457.863 66.7953V73.8408C457.863 76.1441 457.456 78.1765 456.643 80.0733C455.83 81.9702 454.611 83.7316 453.12 85.222C451.63 86.7124 450.004 87.7963 447.972 88.7447C445.939 89.5577 443.907 89.9641 441.604 89.9641H421.822ZM410.034 66.6598V73.7053C410.034 75.3312 410.305 76.8216 410.983 78.312C411.66 79.8024 412.473 81.0218 413.557 82.1057C414.641 83.1896 415.861 84.0026 417.351 84.68C418.841 85.3575 420.332 85.6284 421.958 85.6284H441.604C443.23 85.6284 444.72 85.3575 446.21 84.68C447.701 84.0026 448.92 83.1896 450.004 82.1057C451.088 81.0218 451.901 79.8024 452.578 78.312C453.256 76.957 453.527 75.3312 453.527 73.7053V66.6598C453.527 65.0339 453.256 63.5435 452.578 62.0531C451.901 60.5627 451.088 59.3433 450.004 58.2593C448.92 57.1754 447.701 56.3625 446.21 55.685C444.72 55.0076 443.23 54.8721 441.604 54.8721H421.822C420.196 54.8721 418.706 55.1431 417.215 55.8205C415.861 56.498 414.506 57.3109 413.422 58.3948C412.338 59.4788 411.525 60.6982 410.847 62.1886C410.17 63.679 410.034 65.0339 410.034 66.6598Z" fill="#646363"/>
<path d="M494.581 60.2924H466.399V73.706C466.399 75.3319 466.67 76.9578 467.347 78.3127C468.025 79.6676 468.838 81.0225 469.922 82.1064C471.006 83.1903 472.225 84.1388 473.715 84.6807C475.07 85.3582 476.696 85.6292 478.322 85.6292H508.536V89.9649H478.187C476.019 89.9649 473.851 89.5584 471.954 88.7455C470.057 87.9325 468.296 86.7131 466.805 85.2227C465.315 83.7323 464.231 82.1064 463.418 80.0741C462.605 78.1772 462.199 76.0093 462.199 73.706V50.5371H466.534V56.0922H494.716L494.581 60.2924Z" fill="#646363"/>
<path d="M504.065 89.9649V50.5371H508.401V89.9649H504.065Z" fill="#646363"/>
<path d="M530.215 89.9641C528.047 89.9641 525.879 89.5577 523.982 88.7447C522.085 87.9318 520.324 86.7124 518.833 85.222C517.343 83.7316 516.259 82.1057 515.311 80.0733C514.362 78.041 514.091 76.0086 514.091 73.8408V66.7953C514.091 64.6274 514.498 62.4596 515.311 60.5627C516.124 58.6658 517.343 56.9044 518.833 55.414C520.324 53.9236 521.95 52.8397 523.982 51.8913C526.015 50.9429 528.047 50.6719 530.215 50.6719H549.996C552.164 50.6719 554.332 51.0783 556.364 51.8913C558.397 52.7042 560.023 53.9236 561.513 55.414C563.003 56.9044 564.087 58.5303 565.036 60.5627C565.849 62.595 566.255 64.6274 566.255 66.7953V73.8408C566.255 76.1441 565.849 78.1765 565.036 80.0733C564.223 81.9702 563.003 83.7316 561.513 85.222C560.023 86.7124 558.397 87.7963 556.364 88.7447C554.332 89.5577 552.3 89.9641 549.996 89.9641H530.215ZM518.292 66.6598V73.7053C518.292 75.3312 518.563 76.8216 519.24 78.312C519.917 79.8024 520.73 81.0218 521.814 82.1057C522.898 83.1896 524.118 84.0026 525.608 84.68C527.098 85.3575 528.589 85.6284 530.215 85.6284H549.996C551.622 85.6284 553.113 85.3575 554.603 84.68C556.093 84.0026 557.313 83.1896 558.397 82.1057C559.481 81.0218 560.294 79.8024 560.971 78.312C561.649 76.957 561.92 75.3312 561.92 73.7053V66.6598C561.92 65.0339 561.649 63.5435 560.971 62.0531C560.294 60.5627 559.481 59.3433 558.397 58.2593C557.313 57.1754 556.093 56.3625 554.603 55.685C553.113 55.0076 551.487 54.8721 549.996 54.8721H530.215C528.589 54.8721 527.098 55.1431 525.608 55.8205C524.253 56.498 522.898 57.3109 521.814 58.3948C520.73 59.4788 519.917 60.6982 519.24 62.1886C518.563 63.679 518.292 65.0339 518.292 66.6598Z" fill="#646363"/>
<path d="M594.437 50.5371C596.605 50.5371 598.773 50.9436 600.67 51.7565C602.702 52.5695 604.328 53.7889 605.818 55.2793C607.309 56.7697 608.393 58.3956 609.341 60.4279C610.154 62.4603 610.561 64.4926 610.561 66.796V89.9649H606.225V66.6605C606.225 65.0346 605.954 63.5442 605.276 62.0538C604.599 60.5634 603.786 59.344 602.702 58.2601C601.618 57.1762 600.399 56.3632 598.908 55.6858C597.554 55.0083 595.928 54.7373 594.437 54.7373H575.875V89.8294H571.675V50.5371H594.437Z" fill="#646363"/>
<path d="M372.097 50.5381H384.291C386.459 50.5381 388.626 50.9446 390.523 51.7575C392.556 52.5704 394.182 53.7899 395.672 55.2803C397.162 56.7707 398.246 58.3965 399.195 60.4289C400.008 62.4613 400.414 64.4936 400.414 66.797V89.9659H396.078V66.6615C396.078 65.0356 395.807 63.5452 395.13 62.0548C394.453 60.5644 393.64 59.345 392.556 58.2611C391.472 57.1771 390.252 56.3642 388.762 55.6867C387.407 55.0093 385.781 54.7383 384.291 54.7383H374.264V89.8304H369.929V54.8738" fill="#646363"/>
<path d="M370.471 54.8735H360.039C358.413 54.8735 356.922 55.1445 355.567 55.822C354.213 56.4994 352.858 57.3124 351.774 58.3963C350.69 59.4802 349.877 60.6996 349.199 62.19C348.522 63.6804 348.251 65.1708 348.251 66.7967V89.9656H344.051V66.6612C344.051 64.3579 344.457 62.3255 345.27 60.2932C346.083 58.2608 347.303 56.6349 348.793 55.1445C350.283 53.6541 351.909 52.5702 353.942 51.6218C355.974 50.8088 358.006 50.4023 360.174 50.4023H372.775" fill="#646363"/>
<path d="M334.566 58.6676C333.618 56.4998 332.398 54.6029 330.772 53.1125C329.146 51.4866 327.249 50.2672 325.217 49.3188C323.049 48.3703 320.746 47.9639 318.307 47.9639H300.151C297.713 47.9639 295.409 48.3703 293.241 49.3188C291.073 50.2672 289.312 51.4866 287.686 53.1125C286.06 54.7384 284.841 56.4998 283.893 58.6676C282.944 60.8355 282.538 63.1388 282.538 65.4422V72.2167C282.538 74.6555 282.944 76.9589 283.893 79.1267C284.841 81.2946 286.06 83.1914 287.686 84.6818C289.312 86.3077 291.209 87.5271 293.241 88.4756C295.409 89.424 297.713 89.8305 300.151 89.8305H318.307C320.746 89.8305 323.049 89.424 325.217 88.4756C327.385 87.5271 329.146 86.3077 330.772 84.6818C332.398 83.0559 333.618 81.2946 334.566 79.1267C335.514 76.9589 335.921 74.6555 335.921 72.2167V65.4422C335.921 63.0033 335.514 60.7 334.566 58.6676ZM327.385 72.0812C327.385 73.3006 327.114 74.52 326.708 75.6039C326.301 76.6879 325.624 77.6363 324.811 78.4493C323.998 79.2622 323.049 79.9396 321.965 80.3461C320.881 80.7526 319.662 81.0236 318.443 81.0236H300.287C299.067 81.0236 297.848 80.7526 296.764 80.3461C295.68 79.9396 294.732 79.2622 293.919 78.4493C293.106 77.6363 292.428 76.6879 292.022 75.6039C291.615 74.52 291.344 73.3006 291.344 72.0812V65.3067C291.344 64.0872 291.615 63.0033 292.022 61.9194C292.564 60.8355 293.106 59.887 293.919 59.0741C294.732 58.2611 295.68 57.5837 296.764 57.1772C297.848 56.7708 299.067 56.4998 300.287 56.4998H318.307C319.527 56.4998 320.746 56.7708 321.83 57.1772C322.914 57.5837 323.862 58.2611 324.675 59.0741C325.488 59.887 326.166 60.8355 326.572 61.9194C326.979 63.0033 327.249 64.0872 327.249 65.3067L327.385 72.0812Z" fill="#646363"/>
<path d="M269.802 73.0303C269.666 73.1658 269.395 73.3013 269.26 73.3013C269.395 73.1658 269.531 73.1658 269.802 73.0303Z" fill="white"/>
<path d="M277.931 87.7981C277.118 86.7142 276.17 85.4948 275.221 84.2753L269.395 76.5524C268.718 75.7394 268.176 74.9265 267.634 74.1136C268.176 73.8426 268.718 73.7071 269.26 73.4361C269.395 73.3006 269.666 73.3006 269.802 73.1651C270.479 72.7586 271.292 72.0812 272.105 71.4037C273.46 70.1843 274.544 68.6939 275.221 67.068C276.034 65.4422 276.305 63.6808 276.305 61.6484C276.305 59.3451 275.763 57.0417 274.544 55.0094C273.325 52.977 271.834 51.3511 269.937 50.2672C267.769 48.9123 265.195 48.0994 262.485 48.0994H171.707V72.3522C171.707 73.5716 171.436 74.6555 171.029 75.7394C170.623 76.8234 169.945 77.7718 169.132 78.5847C168.319 79.3977 167.371 80.0751 166.287 80.4816C165.203 80.8881 164.119 81.1591 162.9 81.1591H151.789C150.57 81.1591 149.351 80.8881 148.402 80.4816C147.318 80.0751 146.37 79.3977 145.557 78.5847C144.744 77.7718 144.066 76.8234 143.66 75.7394C143.254 74.6555 142.983 73.5716 142.983 72.3522V47.9639H96.3738C93.935 47.9639 91.7671 48.3703 89.5993 49.3188C87.4314 50.2672 85.5345 51.4866 84.0441 53.1125C82.4183 54.7384 81.1988 56.4998 80.2504 58.6676C79.302 60.8355 78.8955 63.1388 78.8955 65.4422V72.2167C78.8955 74.6555 79.302 76.9589 80.2504 78.9912C81.1988 81.1591 82.4183 83.0559 84.0441 84.5463C85.67 86.1722 87.4314 87.3916 89.5993 88.3401C91.7671 89.2885 94.0704 89.695 96.5093 89.695H125.504V81.0236H96.5093C95.2899 81.0236 94.2059 80.7526 93.122 80.3461C92.0381 79.9396 91.0897 79.2622 90.2767 78.4493C89.4638 77.6363 88.7863 76.6879 88.3798 75.6039C88.1089 74.791 87.8379 73.9781 87.7024 73.1651H125.504V64.4937H87.2959C87.4314 63.5453 87.5669 62.7323 87.9734 61.9194C88.3799 60.8355 89.0573 59.887 89.8702 59.0741C90.6832 58.2611 91.6316 57.5837 92.7155 57.1772C93.7995 56.7708 95.0189 56.4998 96.2383 56.4998H134.311V72.0812C134.311 74.52 134.718 76.8234 135.666 78.8557C136.614 80.8881 137.834 82.7849 139.46 84.4108C141.086 86.0367 142.847 87.2561 145.015 88.2046C147.183 89.153 149.351 89.5595 151.789 89.5595H162.764C165.203 89.5595 167.506 89.153 169.539 88.2046C171.571 87.2561 173.468 86.0367 175.094 84.4108C176.72 82.7849 177.939 80.8881 178.888 78.8557C179.836 76.6879 180.242 74.3845 180.242 72.0812V56.4998H199.482V89.695H208.018V56.4998H230.374V89.695H238.91V75.1975H257.608L268.447 89.695H279.286L277.931 87.7981ZM266.144 65.1712C265.602 65.5776 265.06 65.9841 264.382 66.2551C263.705 66.5261 263.027 66.6616 262.35 66.6616H239.181V56.4998H262.214C263.027 56.4998 263.705 56.6353 264.382 56.9062C265.06 57.1772 265.602 57.5837 266.144 57.9902C266.685 58.3966 267.092 59.0741 267.363 59.6161C267.634 60.158 267.769 60.8355 267.769 61.5129C267.769 62.1904 267.634 62.8678 267.363 63.4098C267.092 64.0872 266.685 64.6292 266.144 65.1712Z" fill="#646363"/>
</svg>
