<svg width="480" height="184" viewBox="0 0 480 184" fill="none" xmlns="http://www.w3.org/2000/svg">
<path d="M480 105.67L457.237 108.19L452.133 83.91L451.346 83.93L431.411 86.15L426.443 111.57L404.257 114.04L429.96 2.89L430.231 2.67C438.224 1.7 446.279 0.75 454.31 0L480 105.09V105.68V105.67ZM448.677 67.92L441.766 34.62L434.658 69.41L448.677 67.93V67.92Z" fill="#E61A47"/>
<path d="M360.365 10.7803V118.92L338.512 121.51V54.6003L321.676 95.7503L304.828 58.4503V125.14L283.159 127.73V19.3703L305.64 16.9903L321.664 52.9703L337.7 13.4503L360.365 10.7803Z" fill="#E61A47"/>
<path d="M268.771 21.1406V101.461C267.959 117.351 258.613 131.051 238.211 134.051C216.296 137.271 204.859 126.321 203.937 109.461L203.973 28.5006L226.343 25.8906V106.061C226.725 111.441 227.782 118.241 236.428 117.511C243.401 116.921 245.836 110.421 246.192 105.611L246.217 23.7706L268.771 21.1606V21.1406Z" fill="#E61A47"/>
<path d="M116.904 38.0205V129.061L140.946 126.401V143.501L94.1401 148.681V40.7605L116.904 38.0205Z" fill="#E61A47"/>
<path d="M172.81 31.7998V122.62L197.025 120.18V137.35L150.231 142.54V34.3198L172.81 31.7998Z" fill="#E61A47"/>
<path d="M395.513 6.93066V115.151L372.934 117.661V9.52066L395.513 6.93066Z" fill="#E61A47"/>
<path d="M57.7266 152.9V74.8803L80.3055 72.3604V150.31L57.7266 152.9Z" fill="#E61A47"/>
<path d="M80.3054 42.1699V61.5599L57.7264 64.0699V55.4899L5.75542 61.2699L0 51.0499L80.3054 42.1699Z" fill="#E61A47"/>
<path d="M262.401 148.01C268.956 147.28 278.499 145.23 280.663 152.34C281.905 156.44 280.811 161.39 276.593 164.09L281.709 175.62L274.6 176.44L270.431 166.61C270.247 166.39 269.189 166.57 269.128 166.77V177.03L262.401 177.77V148.01ZM269.14 161.93C272.362 161.81 274.195 159.95 274.428 157.42C274.625 155.35 274.428 152.51 271.329 152.08C270.677 151.99 269.62 151.85 269.14 152.24V161.94V161.93Z" fill="#E61A47"/>
<path d="M373.291 135.871C378.505 135.531 385.65 133.481 389.684 137.271C392.586 140.001 392.439 145.691 390.57 148.801C389.782 150.111 388.59 150.951 387.507 152.071L392.599 163.551L385.515 164.281L381.297 154.611L381.014 154.391L379.858 154.521V164.881L373.303 165.621V135.861L373.291 135.871ZM379.846 149.791C383.412 149.791 385.158 147.531 385.318 144.841C385.503 141.751 384.236 139.261 379.846 140.021V149.791Z" fill="#E61A47"/>
<path d="M416.998 160.89V131.13L425.459 130.24C439.367 130.09 438.421 149.4 432.997 155.61C429.05 160.13 423.171 160.13 416.998 160.89ZM423.552 155.41C426.713 155.16 428.361 152.97 429.111 150.67C430.107 147.58 430.193 140.74 428.742 137.79C427.795 135.87 426.233 134.7 423.552 135.12V155.4V155.41Z" fill="#E61A47"/>
<path d="M50.8026 64.96V75.55L16.2947 79.47L15.852 79.24L10.3794 69.48L50.8026 64.96Z" fill="#E61A47"/>
<path d="M252.009 149.05L259.301 178.06L252.562 178.8L251.468 173.02L245.368 173.76L244.163 179.66L237.817 180.43L244.925 149.79L252.009 149.04V149.05ZM248.553 159.26C248.073 159.23 248.246 159.24 248.196 159.48C247.483 162.59 247.003 165.76 246.364 168.88C247.483 168.76 248.824 168.76 249.906 168.58C250.115 168.54 250.275 168.54 250.348 168.34L248.541 159.26H248.553Z" fill="#E61A47"/>
<path d="M452.858 127.15L459.966 156.15L453.424 156.9L452.157 151.19L446.119 151.81L444.951 157.64C444.631 158.04 439.404 158.23 438.482 158.52L445.75 127.97L452.858 127.15ZM451.235 146.53L449.046 137.21L447.041 146.98L451.235 146.54V146.53Z" fill="#E61A47"/>
<path d="M350.896 138.391L344.022 168.881L337.233 169.631L330.506 140.611L337.221 139.891L340.787 158.521L344.501 139.071L350.896 138.391Z" fill="#E61A47"/>
<path d="M368.74 136.471V141.351L360.734 142.311V149.491L367.83 148.901V153.791L360.734 154.531V162.081L368.925 161.191V166.071L354.18 167.701V137.951L368.74 136.471Z" fill="#E61A47"/>
<path d="M327.948 140.91V145.8L319.93 146.76V154.09L327.026 153.35V158.01C326.718 158.28 326.091 158.3 325.636 158.36C323.742 158.61 321.811 158.67 319.93 158.97V166.52L327.714 165.66L328.12 165.85V170.51L313.375 172.14V142.38L327.948 140.9V140.91Z" fill="#E61A47"/>
<path d="M50.8026 95.1601L26.5265 97.8401L20.7588 87.7601L50.8026 84.5801V95.1601Z" fill="#E61A47"/>
<path d="M218.153 153.49V158.82C216.505 158.43 215.127 157.94 213.344 158.1C209.741 158.42 208.659 161.261 210.872 163.481C214.943 167.581 220.329 169.151 219.801 175.481C219.247 182.131 210.762 185.34 203.592 183.02V177.761C207.109 179.541 214.881 179.29 212.963 174.5C211.34 170.42 203.617 168.86 203.063 162.86C202.411 155.8 210.196 151.821 218.153 153.481V153.49Z" fill="#E61A47"/>
<path d="M466.164 143.501L459.056 126.551L465.955 125.831L469.62 136.321L473.285 124.941C473.851 124.981 479.79 124.091 479.815 124.401L472.941 142.641L472.867 154.581L472.596 154.801L466.164 155.411V143.491V143.501Z" fill="#E61A47"/>
<path d="M400.248 151.05L393.152 133.66C395.046 133.7 397.05 133.16 398.895 133.07C399.227 133.05 399.744 132.98 399.989 133.22L403.335 143.23L403.716 143.44L407.196 132.21L413.911 131.45L406.852 150.06L406.778 161.92L400.248 162.68V151.06V151.05Z" fill="#E61A47"/>
<path d="M237.263 150.83V155.72L232.701 156.25V180.79C232.652 180.93 232.541 180.96 232.406 181C230.733 181.51 227.782 181.27 225.974 181.77V156.9L221.239 157.34V152.68L237.263 150.83Z" fill="#E61A47"/>
<path d="M299.54 144.021V148.911L294.978 149.441V173.981C294.929 174.121 294.818 174.151 294.683 174.191C293.01 174.701 290.059 174.461 288.251 174.961V150.091L283.516 150.531V145.871L299.54 144.021Z" fill="#E61A47"/>
<path d="M50.8025 103.9V114.48L36.8075 116.17L31.1382 106.05L50.8025 103.9Z" fill="#E61A47"/>
<path d="M50.8025 134.1L47.1869 134.37L41.5176 124.33L50.3967 123.32L50.8025 123.51V134.1Z" fill="#E61A47"/>
</svg>
