<svg width="239" height="284" viewBox="0 0 239 284" fill="none" xmlns="http://www.w3.org/2000/svg">
<path d="M13.16 88.39C28.06 45.44 69.96 14.5 119.33 14.5C168.7 14.5 210.6 45.44 225.5 88.39L238.19 83.04C221.5 34.77 174.59 0 119.32 0C64.0499 0 17.15 34.77 0.469971 83.04L13.16 88.39Z" fill="#0B906C"/>
<path d="M12.46 90.0195H0V102.49H12.46V90.0195Z" fill="#01424B"/>
<path d="M238.18 90.0195H225.72V102.49H238.18V90.0195Z" fill="#01424B"/>
<path d="M238.19 106.5H0V107.66H238.19V106.5Z" fill="#01424B"/>
<path d="M238.19 163.48H0V164.64H238.19V163.48Z" fill="#01424B"/>
<path d="M238.19 272.23H0V283.36H238.19V272.23Z" fill="#0B906C"/>
<path d="M0.790039 153.2V118.64C0.790039 117.73 1.32002 117.25 2.33002 117.25H15.76C16.77 117.25 17.3 117.73 17.3 118.64V119.34C17.3 120.25 16.77 120.72 15.76 120.72H5.05005V134.22H13.92C14.93 134.22 15.46 134.7 15.46 135.61V136.25C15.46 137.15 14.93 137.63 13.92 137.63H5.05005V153.2C5.05005 154.11 4.46001 154.59 3.45001 154.59H2.33002C1.32002 154.59 0.790039 154.11 0.790039 153.2Z" fill="#01424B"/>
<path d="M31.3699 116.82H31.8399C38.1099 116.82 41.5399 119.38 41.5399 124.72V147.12C41.5399 152.45 38.1099 155.01 31.8399 155.01H31.3699C25.0999 155.01 21.6699 152.45 21.6699 147.12V124.72C21.6699 119.33 25.0999 116.82 31.3699 116.82ZM31.5999 151.55C35.5599 151.55 37.2699 150.06 37.2699 146.16V125.68C37.2699 121.79 35.5599 120.29 31.5999 120.29C27.6399 120.29 25.9199 121.78 25.9199 125.68V146.16C25.9199 150.05 27.6399 151.55 31.5999 151.55Z" fill="#01424B"/>
<path d="M51.0501 154.59H50.1601C49.1601 154.59 48.6201 154.11 48.6201 153.2V118.64C48.6201 117.73 49.1501 117.25 50.1601 117.25H51.6401C52.5301 117.25 53.1201 117.62 53.3501 118.37L65.0601 145.57V118.63C65.0601 117.72 65.6001 117.24 66.6001 117.24H67.4901C68.5001 117.24 69.0301 117.72 69.0301 118.63V153.19C69.0301 154.1 68.5001 154.58 67.4901 154.58H66.2501C65.3601 154.58 64.7701 154.21 64.4801 153.46L52.5901 125.73V153.2C52.5901 154.11 52.0501 154.59 51.0501 154.59Z" fill="#01424B"/>
<path d="M95.9398 125.14V146.69C95.9398 152.02 92.5099 154.59 86.2399 154.59H77.8998C76.8898 154.59 76.3599 154.11 76.3599 153.2V118.64C76.3599 117.73 76.8898 117.26 77.8998 117.26H86.2399C92.5099 117.26 95.9398 119.82 95.9398 125.15M85.9999 120.72H80.6199V151.12H85.9999C89.9599 151.12 91.6699 149.63 91.6699 145.73V126.1C91.6699 122.21 89.9599 120.71 85.9999 120.71" fill="#01424B"/>
<path d="M121.18 154.58H119.94C119.05 154.58 118.46 154.21 118.28 153.3L116.51 145.35H106.34L104.57 153.3C104.39 154.21 103.86 154.58 102.91 154.58H101.9C100.84 154.58 100.3 154.05 100.48 153.03L108.64 118.47C108.82 117.62 109.41 117.25 110.35 117.25H112.6C113.55 117.25 114.13 117.62 114.31 118.47L122.59 153.03C122.77 154.04 122.24 154.58 121.17 154.58M115.74 142L111.42 122.59L107.1 142H115.73H115.74Z" fill="#01424B"/>
<path d="M144.07 152.67V153.2C144.07 154.11 143.48 154.59 142.53 154.59H127.16C126.15 154.59 125.62 154.11 125.62 153.2V152.67C125.62 152.03 125.68 151.6 125.98 150.96L139.1 120.56H127.86C126.86 120.56 126.32 120.08 126.32 119.18V118.65C126.32 117.74 126.85 117.26 127.86 117.26H142.11C143.06 117.26 143.65 117.74 143.65 118.65V119.18C143.65 119.82 143.53 120.25 143.3 120.89L130.17 151.29H142.53C143.48 151.29 144.07 151.77 144.07 152.68" fill="#01424B"/>
<path d="M152.11 154.59H150.99C149.99 154.59 149.45 154.11 149.45 153.2V118.64C149.45 117.73 149.99 117.25 150.99 117.25H152.11C153.12 117.25 153.7 117.73 153.7 118.64V153.2C153.7 154.11 153.11 154.59 152.11 154.59Z" fill="#01424B"/>
<path d="M170.67 116.82H171.14C177.41 116.82 180.84 119.38 180.84 124.72V147.12C180.84 152.45 177.41 155.01 171.14 155.01H170.67C164.4 155.01 160.97 152.45 160.97 147.12V124.72C160.97 119.33 164.4 116.82 170.67 116.82ZM170.91 151.55C174.87 151.55 176.58 150.06 176.58 146.16V125.68C176.58 121.79 174.87 120.29 170.91 120.29C166.95 120.29 165.23 121.78 165.23 125.68V146.16C165.23 150.05 166.94 151.55 170.91 151.55Z" fill="#01424B"/>
<path d="M190.36 154.59H189.47C188.47 154.59 187.93 154.11 187.93 153.2V118.64C187.93 117.73 188.46 117.25 189.47 117.25H190.95C191.84 117.25 192.43 117.62 192.66 118.37L204.37 145.57V118.63C204.37 117.72 204.91 117.24 205.91 117.24H206.8C207.81 117.24 208.34 117.72 208.34 118.63V153.19C208.34 154.1 207.81 154.58 206.8 154.58H205.56C204.67 154.58 204.08 154.21 203.79 153.46L191.9 125.73V153.2C191.9 154.11 191.37 154.59 190.36 154.59Z" fill="#01424B"/>
<path d="M231.05 154.59H217.21C216.2 154.59 215.67 154.11 215.67 153.2V118.64C215.67 117.73 216.2 117.25 217.21 117.25H230.87C231.88 117.25 232.41 117.73 232.41 118.64V119.33C232.41 120.24 231.88 120.71 230.87 120.71H219.93V133.94H229.04C230.04 133.94 230.58 134.42 230.58 135.33V135.97C230.58 136.88 230.04 137.36 229.04 137.36H219.93V151.12H231.05C232.06 151.12 232.59 151.6 232.59 152.5V153.19C232.59 154.1 232.06 154.58 231.05 154.58" fill="#01424B"/>
<path d="M18.0901 207.68C17.7901 208.43 17.2601 208.8 16.4901 208.8C15.6601 208.8 15.0701 208.42 14.7701 207.68L6.55011 186.93V213.49C6.55011 214.4 6.02007 214.88 5.01007 214.88H4.12012C3.12012 214.88 2.58008 214.4 2.58008 213.49V178.93C2.58008 178.02 3.12012 177.54 4.12012 177.54H5.36011C6.25011 177.54 6.84007 177.92 7.13007 178.66L16.3601 202.24L25.7601 178.66C26.0001 177.97 26.6401 177.54 27.5301 177.54H28.8901C29.8901 177.54 30.4301 178.02 30.4301 178.93V213.49C30.4301 214.4 29.9001 214.88 28.8901 214.88H27.8201C26.8201 214.88 26.2801 214.4 26.2801 213.49V186.93L18.0601 207.68H18.0901Z" fill="#01424B"/>
<path d="M56.29 214.87H55.05C54.16 214.87 53.57 214.5 53.39 213.59L51.62 205.64H41.45L39.68 213.59C39.5 214.5 38.97 214.87 38.02 214.87H37.02C35.95 214.87 35.42 214.34 35.6 213.32L43.76 178.76C43.94 177.91 44.53 177.54 45.48 177.54H47.73C48.68 177.54 49.27 177.91 49.45 178.76L57.73 213.32C57.91 214.33 57.38 214.87 56.31 214.87M50.85 202.29L46.53 182.88L42.21 202.29H50.84H50.85Z" fill="#01424B"/>
<path d="M82.4199 185.43V206.98C82.4199 212.31 78.9898 214.87 72.7198 214.87H64.3798C63.3798 214.87 62.8398 214.39 62.8398 213.49V178.93C62.8398 178.02 63.3798 177.55 64.3798 177.55H72.7198C78.9898 177.55 82.4199 180.11 82.4199 185.44M72.4899 181.01H67.1099V211.41H72.4899C76.4499 211.41 78.1699 209.92 78.1699 206.02V186.39C78.1699 182.5 76.4499 181 72.4899 181" fill="#01424B"/>
<path d="M109.09 185.43V206.98C109.09 212.31 105.66 214.87 99.39 214.87H91.05C90.04 214.87 89.51 214.39 89.51 213.49V178.93C89.51 178.02 90.04 177.55 91.05 177.55H99.39C105.66 177.55 109.09 180.11 109.09 185.44M99.16 181.01H93.78V211.41H99.16C103.12 211.41 104.83 209.92 104.83 206.02V186.39C104.83 182.5 103.12 181 99.16 181" fill="#01424B"/>
<path d="M134.34 214.87H133.1C132.21 214.87 131.62 214.5 131.44 213.59L129.67 205.64H119.5L117.73 213.59C117.55 214.5 117.02 214.87 116.07 214.87H115.07C114 214.87 113.47 214.34 113.65 213.32L121.81 178.76C121.99 177.91 122.58 177.54 123.53 177.54H125.78C126.73 177.54 127.32 177.91 127.5 178.76L135.78 213.32C135.96 214.33 135.43 214.87 134.36 214.87M128.9 202.29L124.58 182.88L120.26 202.29H128.89H128.9Z" fill="#01424B"/>
<path d="M156.93 212.74V213.49C156.93 214.4 156.4 214.88 155.39 214.88H142.44C141.43 214.88 140.9 214.4 140.9 213.49V178.93C140.9 178.02 141.43 177.54 142.44 177.54H143.56C144.57 177.54 145.16 178.02 145.16 178.93V211.36H155.39C156.4 211.36 156.93 211.89 156.93 212.75" fill="#01424B"/>
<path d="M177.03 214.88H163.19C162.18 214.88 161.65 214.4 161.65 213.5V178.94C161.65 178.03 162.19 177.55 163.19 177.55H176.85C177.86 177.55 178.39 178.03 178.39 178.94V179.63C178.39 180.54 177.86 181.02 176.85 181.02H165.91V194.24H175.02C176.02 194.24 176.56 194.72 176.56 195.63V196.27C176.56 197.18 176.02 197.66 175.02 197.66H165.91V211.42H177.03C178.04 211.42 178.57 211.9 178.57 212.8V213.5C178.57 214.4 178.04 214.88 177.03 214.88Z" fill="#01424B"/>
<path d="M186.43 214.88H185.54C184.53 214.88 184 214.4 184 213.5V178.94C184 178.03 184.53 177.55 185.54 177.55H187.02C187.91 177.55 188.5 177.92 188.73 178.67L200.44 205.87V178.93C200.44 178.02 200.97 177.54 201.97 177.54H202.86C203.87 177.54 204.4 178.02 204.4 178.93V213.49C204.4 214.39 203.87 214.87 202.86 214.87H201.62C200.73 214.87 200.14 214.5 199.85 213.75L187.96 186.02V213.49C187.96 214.39 187.43 214.87 186.42 214.87" fill="#01424B"/>
<path d="M230.25 214.87H229.01C228.12 214.87 227.53 214.5 227.35 213.59L225.58 205.64H215.41L213.64 213.59C213.46 214.5 212.93 214.87 211.98 214.87H210.98C209.91 214.87 209.38 214.34 209.56 213.32L217.72 178.76C217.9 177.91 218.49 177.54 219.44 177.54H221.69C222.64 177.54 223.23 177.91 223.41 178.76L231.69 213.32C231.87 214.33 231.34 214.87 230.27 214.87M224.81 202.29L220.49 182.88L216.17 202.29H224.8H224.81Z" fill="#01424B"/>
<path d="M25.13 246.24V256.11C25.13 261.55 21.7001 264.01 15.4301 264.01H14.96C8.69002 264.01 5.26001 261.61 5.26001 256.11V233.71C5.26001 228.48 8.69002 225.81 14.96 225.81H15.4301C21.7001 225.81 25.13 228.48 25.13 233.71V237.34C25.13 238.25 24.6 238.72 23.59 238.72H22.47C21.47 238.72 20.8701 238.24 20.8701 237.34V234.67C20.8701 230.78 19.16 229.28 15.19 229.28C11.22 229.28 9.51001 230.77 9.51001 234.67V255.15C9.51001 259.04 11.22 260.54 15.19 260.54C19.16 260.54 20.8701 259.04 20.8701 255.15V248.27H16.4901C15.4801 248.27 14.95 247.73 14.95 246.83V246.24C14.95 245.39 15.4801 244.86 16.4901 244.86H23.59C24.6 244.86 25.13 245.39 25.13 246.24Z" fill="#01424B"/>
<path d="M69.1201 263.57H67.8801C66.9901 263.57 66.4001 263.2 66.1101 262.45L60.2001 247.83H54.1101V262.18C54.1101 263.09 53.5201 263.56 52.5101 263.56H51.3901C50.3801 263.56 49.8501 263.08 49.8501 262.18V227.62C49.8501 226.71 50.3801 226.23 51.3901 226.23H59.8501C66.1201 226.23 69.5501 228.79 69.5501 234.13V239.94C69.5501 243.83 67.7201 246.23 64.3501 247.25L70.3801 261.97C70.7301 262.88 70.2601 263.57 69.1401 263.57M54.1001 244.42H59.6001C63.5601 244.42 65.2801 242.93 65.2801 239.03V235.08C65.2801 231.19 63.5601 229.69 59.6001 229.69H54.1001V244.41V244.42Z" fill="#01424B"/>
<path d="M112.76 263.57H111.52C110.63 263.57 110.04 263.2 109.86 262.29L108.09 254.34H97.92L96.15 262.29C95.97 263.2 95.44 263.57 94.49 263.57H93.48C92.42 263.57 91.88 263.04 92.06 262.02L100.22 227.46C100.4 226.61 100.99 226.23 101.93 226.23H104.18C105.13 226.23 105.71 226.6 105.89 227.46L114.17 262.02C114.35 263.03 113.82 263.57 112.75 263.57M107.32 250.98L103 231.57L98.68 250.98H107.31H107.32Z" fill="#01424B"/>
<path d="M153.08 239.25H151.96C151.01 239.25 150.42 238.77 150.42 237.87V234.35C150.42 230.78 148.82 229.23 145.1 229.23C141.38 229.23 139.78 230.78 139.78 234.35V236.96C139.78 239.47 140.73 240.22 143.51 241.6L149.42 244.53C152.62 246.13 154.74 248.1 154.74 251.25V256.21C154.74 261.65 151.49 264 145.22 264H145.1C138.83 264 135.58 261.71 135.58 256.21V251.41C135.58 250.5 136.11 250.02 137.12 250.02H138.24C139.19 250.02 139.78 250.5 139.78 251.41V255.36C139.78 258.88 141.38 260.59 145.16 260.59C148.94 260.59 150.54 258.88 150.54 255.36V252.37C150.54 249.87 149.47 248.91 146.63 247.46L140.83 244.58C137.22 242.77 135.57 241.22 135.57 237.97V233.49C135.57 228.26 139.35 225.81 145.03 225.81H145.15C150.83 225.81 154.61 228.26 154.61 233.49V237.87C154.61 238.78 154.08 239.25 153.07 239.25" fill="#01424B"/>
<path d="M195.54 239.25H194.42C193.47 239.25 192.88 238.77 192.88 237.87V234.35C192.88 230.78 191.28 229.23 187.56 229.23C183.84 229.23 182.24 230.78 182.24 234.35V236.96C182.24 239.47 183.19 240.22 185.97 241.6L191.88 244.53C195.07 246.13 197.2 248.1 197.2 251.25V256.21C197.2 261.65 193.95 264 187.68 264H187.56C181.29 264 178.04 261.71 178.04 256.21V251.41C178.04 250.5 178.57 250.02 179.58 250.02H180.7C181.65 250.02 182.24 250.5 182.24 251.41V255.36C182.24 258.88 183.84 260.59 187.62 260.59C191.4 260.59 193 258.88 193 255.36V252.37C193 249.87 191.93 248.91 189.09 247.46L183.29 244.58C179.68 242.77 178.03 241.22 178.03 237.97V233.49C178.03 228.26 181.81 225.81 187.49 225.81H187.61C193.29 225.81 197.07 228.26 197.07 233.49V237.87C197.07 238.78 196.54 239.25 195.53 239.25" fill="#01424B"/>
<path d="M224.22 263.57H223.1C222.09 263.57 221.56 263.09 221.56 262.18V227.62C221.56 226.71 222.09 226.23 223.1 226.23H224.22C225.23 226.23 225.81 226.71 225.81 227.62V262.18C225.81 263.09 225.22 263.57 224.22 263.57Z" fill="#01424B"/>
</svg>
