<svg width="415" height="167" viewBox="0 0 415 167" fill="none" xmlns="http://www.w3.org/2000/svg">
<mask id="mask0_544_143051" style="mask-type:luminance" maskUnits="userSpaceOnUse" x="0" y="0" width="415" height="167">
<path d="M414.014 0H0V166.123H414.014V0Z" fill="white"/>
</mask>
<g mask="url(#mask0_544_143051)">
<path d="M158.467 48.2824L158.269 48.4346C163.399 58.7393 165.317 71.7533 165.317 80.6577C165.454 123.916 130.491 159.107 87.2326 159.244C87.1565 159.244 87.0956 159.244 87.0195 159.244C77.9325 159.244 68.9064 157.676 60.3521 154.602C64.5075 153.491 67.3995 149.731 67.3995 145.439C67.3995 143.11 66.5319 140.872 64.9641 139.137C65.0402 139.031 65.1163 138.924 65.1772 138.817L90.9617 83.1539L108.131 119.806C106.716 121.496 105.924 123.627 105.924 125.834C105.924 131.07 110.171 135.317 115.407 135.317C120.643 135.317 124.89 131.07 124.89 125.834C124.89 120.598 120.643 116.351 115.407 116.351C115.057 116.366 114.707 116.397 114.372 116.458L94.6605 74.3561V64.1884L140.872 44.0509C141.039 43.9748 141.191 43.8835 141.344 43.7769C142.835 44.9794 144.662 45.6644 146.58 45.7405C149.776 45.7557 151.8 45.3295 154.799 41.8439C157.463 38.1908 157.143 33.1526 154.038 29.8496C151.146 26.8511 146.656 26.0291 142.896 27.81C139.898 29.3778 137.904 32.3459 137.584 35.7098C137.554 36.3643 137.584 37.034 137.691 37.6885L94.6453 56.4561V49.1804C102.849 47.5061 108.74 40.2761 108.74 31.9045C108.74 22.163 100.84 14.2632 91.0987 14.2632C81.3572 14.2632 73.4727 22.163 73.4727 31.9045C73.4727 40.2761 79.3633 47.5061 87.5674 49.1804V56.3952L43.5176 36.6991C43.5176 36.5469 43.5633 36.3947 43.5633 36.2425C43.5633 31.0064 39.3166 26.7598 34.0805 26.7598C31.7669 26.8206 29.5446 27.6426 27.7333 29.0886C42.6348 11.9192 64.2639 2.05592 87.0195 2.07114C105.285 2.0407 123.002 8.41834 137.066 20.0777L137.143 20.0168C122.104 7.07888 102.91 -0.0293683 83.062 0.00107394C37.1856 0.00107394 0.000488281 37.1862 0.000488281 83.0626C0.000488281 128.939 37.1856 166.124 83.062 166.124C128.878 166.124 166.017 128.969 166.017 83.1387C166.017 83.1083 166.017 83.0778 166.017 83.0474C166.017 69.9572 163.871 59.272 158.467 48.2672M8.4482 80.6577C8.41775 62.6511 14.5975 45.1925 25.9525 31.2195C25.1153 32.7721 24.6434 34.4921 24.5826 36.2577C24.5826 41.4938 28.8292 45.7405 34.0653 45.7405C36.4855 45.7405 38.7991 44.812 40.5495 43.1377L87.5522 64.158V73.6103L58.7387 135.834C58.7387 135.834 58.693 135.956 58.6778 136.017C58.419 136.002 58.1603 135.941 57.9015 135.941C52.6655 135.941 48.4188 140.187 48.4188 145.423C48.4188 146.915 48.7689 148.376 49.4538 149.701C24.1716 135.941 8.43297 109.456 8.4482 80.6577Z" fill="#064885"/>
</g>
<path d="M190.066 127.977H206.215V103.593H206.337L217.981 127.977H233.842V73.0898H218.088L217.966 98.7678L204.906 73.0898H190.081V127.977H190.066Z" fill="#064885"/>
<mask id="mask1_544_143051" style="mask-type:luminance" maskUnits="userSpaceOnUse" x="0" y="0" width="415" height="167">
<path d="M414.014 0H0V166.123H414.014V0Z" fill="white"/>
</mask>
<g mask="url(#mask1_544_143051)">
<path d="M285.853 103.579C286.599 85.2372 277.39 73.2734 262.138 73.2734C249.444 73.2734 239.809 83.5172 239.809 99.6211C239.809 117.171 249.931 128.13 263.782 128.13C274.072 128.13 281.956 122.742 285.107 110.276H269.597C268.151 112.727 265.487 114.203 262.625 114.127C258.805 114.127 255.746 110.367 255.654 105.694H285.762L285.853 103.579ZM270.266 93.2435H255.746C256.826 89.3926 259.064 86.0439 262.625 86.0439C266.187 86.0439 269.338 88.6924 270.251 93.2435" fill="#064885"/>
<path d="M414.015 100.033C414.015 83.3046 402.979 73.3652 390.133 73.3652C377.286 73.3652 366.981 84.5071 366.981 100.839C366.981 117.172 378.093 128.116 390.955 128.116C403.816 128.116 414.015 116.35 414.015 100.033ZM398.261 99.6216C398.261 106.212 395.947 111.996 389.965 111.996C384.486 111.996 382.492 105.101 382.492 99.5151C382.492 94.4464 384.988 88.1601 389.707 88.1601C395.262 88.1601 398.246 92.9243 398.246 99.6064" fill="#064885"/>
<path d="M361.365 105.101C361.365 92.9244 362.933 80.9607 352.233 75.2832C350.3 74.2177 348.123 73.6545 345.916 73.6545C340.862 73.6545 336.22 76.5922 332.643 80.8541C329.157 75.7855 325.915 73.2588 320.36 73.2588C315.717 73.2588 311.729 76.1965 308.502 80.0474V73.5784H293.083V128.161H308.67V102.148C308.67 96.9733 308.35 89.2714 314.073 89.2714C320.299 89.2714 319.127 102.544 319.127 107.613C319.127 113.884 319.051 121.86 319.051 128.161H334.805V101.935C334.805 96.3644 334.47 89.5758 340.528 89.5758C346.586 89.5758 345.246 103.351 345.246 108.328C345.246 114.401 345.17 121.875 345.17 127.963H361.183C361.183 120.87 361.35 112.179 361.35 105.101" fill="#064885"/>
<path d="M204.253 55.1154C202.67 56.6527 200.539 57.4899 198.332 57.429C194.116 57.7638 190.417 54.6283 190.082 50.4121C190.051 50.0772 190.051 49.7423 190.082 49.3922C189.869 45.0695 193.202 41.3859 197.525 41.1729C197.799 41.1729 198.073 41.1729 198.332 41.1729C200.478 41.1729 202.548 42.0252 204.055 43.5626L202.091 45.45C201.072 44.4911 199.732 43.9583 198.332 43.9735C195.516 43.8213 193.111 45.9827 192.959 48.8138C192.959 49.0117 192.959 49.1944 192.959 49.3922C192.791 52.1473 194.907 54.5065 197.662 54.674C197.89 54.674 198.119 54.674 198.332 54.674C199.793 54.674 201.193 54.0956 202.244 53.091L204.253 55.1154Z" fill="#064885"/>
</g>
<path d="M220.645 57.0776H208.97V41.4912H220.645V44.3376H211.893V47.9297H220.34V50.6695H211.893V54.1856H220.645V57.0776Z" fill="#064885"/>
<path d="M236.765 41.4619H239.703V57.0788H237.876V57.1092L229.687 46.5762V57.094H226.75V41.5076H229.139L236.78 51.173V41.4924L236.765 41.4619Z" fill="#064885"/>
<path d="M249.55 44.1549H244.604V41.4912H257.435V44.1549H252.488V57.0776H249.55V44.1549Z" fill="#064885"/>
<mask id="mask2_544_143051" style="mask-type:luminance" maskUnits="userSpaceOnUse" x="0" y="0" width="415" height="167">
<path d="M414.014 0H0V166.123H414.014V0Z" fill="white"/>
</mask>
<g mask="url(#mask2_544_143051)">
<path d="M276.157 57.0812H272.656L268.12 51.8756H265.289V57.0812H262.352V41.4796C264.817 41.4796 267.298 41.4948 269.764 41.4948C272.611 41.2513 275.107 43.3518 275.35 46.1981C275.35 46.3503 275.366 46.5025 275.366 46.67C275.533 49.0901 273.813 51.2211 271.423 51.5712L276.142 56.8985V57.0964L276.157 57.0812ZM265.304 44.2194V49.2119H269.779C271.119 49.3489 272.306 48.3595 272.443 47.0353C272.443 46.9287 272.443 46.8222 272.443 46.7309C272.489 45.3914 271.423 44.265 270.084 44.2194C269.977 44.2194 269.871 44.2194 269.779 44.2194H265.304Z" fill="#064885"/>
<path d="M295.808 49.3647C296.036 53.5809 292.809 57.2035 288.578 57.4318C288.319 57.4318 288.06 57.4471 287.801 57.4318C283.616 57.6754 280.023 54.4637 279.78 50.2779C279.765 49.9735 279.765 49.6843 279.78 49.3799C279.536 45.0875 282.824 41.404 287.116 41.1757C287.345 41.1757 287.573 41.1605 287.801 41.1757C292.078 41.0387 295.671 44.3874 295.808 48.6645C295.808 48.908 295.808 49.1363 295.808 49.3799M282.702 49.4408C282.504 52.1653 284.559 54.5398 287.284 54.7377C287.466 54.7377 287.649 54.7529 287.817 54.7377C290.541 54.8443 292.824 52.7133 292.931 49.9887C292.931 49.7909 292.931 49.6082 292.931 49.4103C293.22 46.6401 291.211 44.159 288.441 43.8698C288.243 43.8546 288.045 43.8394 287.832 43.8394C285.031 43.7937 282.733 46.0312 282.687 48.8319C282.687 49.0298 282.687 49.2429 282.717 49.4408" fill="#064885"/>
<path d="M322.46 55.1183C320.877 56.6556 318.746 57.4928 316.539 57.4319C312.323 57.7668 308.624 54.6312 308.289 50.415C308.259 50.0801 308.259 49.7453 308.289 49.3952C308.076 45.0724 311.409 41.3889 315.732 41.1758C316.006 41.1758 316.28 41.1758 316.539 41.1758C318.685 41.1758 320.755 42.0282 322.262 43.5655L320.298 45.4529C319.279 44.494 317.939 43.9612 316.539 43.9765C313.723 43.8243 311.318 45.9856 311.166 48.8168C311.166 49.0146 311.166 49.1973 311.166 49.3952C310.998 52.1502 313.099 54.5095 315.854 54.6769C316.082 54.6769 316.31 54.6769 316.539 54.6769C318 54.6769 319.4 54.0985 320.451 53.0939L322.46 55.1183Z" fill="#064885"/>
</g>
<path d="M329.947 41.4766V54.3536H337.969V57.063H327.01V41.4766H329.947Z" fill="#064885"/>
<path d="M343.175 41.4756H346.097V57.062H343.175V41.4756Z" fill="#064885"/>
<path d="M362.217 41.4619H365.154V57.0788H363.328V57.1092L355.139 46.5762V57.094H352.201V41.5076H354.591L362.232 51.173V41.4924L362.217 41.4619Z" fill="#064885"/>
<path d="M371 41.4756H373.922V57.062H371V41.4756Z" fill="#064885"/>
<mask id="mask3_544_143051" style="mask-type:luminance" maskUnits="userSpaceOnUse" x="0" y="0" width="415" height="167">
<path d="M414.014 0H0V166.123H414.014V0Z" fill="white"/>
</mask>
<g mask="url(#mask3_544_143051)">
<path d="M393.542 55.1183C391.959 56.6556 389.828 57.4928 387.621 57.4319C383.405 57.7668 379.706 54.6312 379.371 50.415C379.341 50.0801 379.341 49.7453 379.371 49.3952C379.158 45.0724 382.491 41.3889 386.814 41.1758C387.088 41.1758 387.362 41.1758 387.621 41.1758C389.767 41.1758 391.837 42.0282 393.344 43.5655L391.38 45.4529C390.361 44.494 389.021 43.9612 387.621 43.9765C384.805 43.8243 382.4 45.9856 382.248 48.8168C382.248 49.0146 382.248 49.1973 382.248 49.3952C382.08 52.1502 384.196 54.5095 386.951 54.6769C387.179 54.6769 387.408 54.6769 387.621 54.6769C389.082 54.6769 390.482 54.0985 391.533 53.0939L393.542 55.1183Z" fill="#064885"/>
<path d="M413.634 49.3647C413.863 53.5809 410.636 57.2035 406.404 57.4318C406.145 57.4318 405.887 57.4471 405.628 57.4318C401.442 57.6754 397.85 54.4637 397.606 50.2779C397.591 49.9735 397.591 49.6843 397.606 49.3799C397.363 45.0875 400.651 41.404 404.943 41.1757C405.171 41.1757 405.4 41.1605 405.628 41.1757C409.905 41.0387 413.497 44.3874 413.634 48.6645C413.634 48.908 413.634 49.1363 413.634 49.3799M400.529 49.4408C400.331 52.1653 402.386 54.5398 405.11 54.7377C405.293 54.7377 405.476 54.7529 405.643 54.7377C408.368 54.8443 410.651 52.7133 410.757 49.9887C410.757 49.7909 410.757 49.6082 410.757 49.4103C411.047 46.6401 409.037 44.159 406.267 43.8698C406.069 43.8546 405.872 43.8394 405.658 43.8394C402.858 43.7937 400.559 46.0312 400.514 48.8319C400.514 49.0298 400.514 49.2429 400.544 49.4408" fill="#064885"/>
<path d="M204.253 55.1183C202.67 56.6556 200.539 57.4928 198.332 57.4319C194.116 57.7668 190.417 54.6312 190.082 50.415C190.051 50.0801 190.051 49.7453 190.082 49.3952C189.869 45.0724 193.202 41.3889 197.525 41.1758C197.799 41.1758 198.073 41.1758 198.332 41.1758C200.478 41.1758 202.548 42.0282 204.055 43.5655L202.091 45.4529C201.072 44.494 199.732 43.9612 198.332 43.9765C195.516 43.8243 193.111 45.9856 192.959 48.8168C192.959 49.0146 192.959 49.1973 192.959 49.3952C192.791 52.1502 194.907 54.5095 197.662 54.6769C197.89 54.6769 198.119 54.6769 198.332 54.6769C199.793 54.6769 201.193 54.0985 202.244 53.0939L204.253 55.1183Z" fill="#064885"/>
</g>
<path d="M220.645 57.0776H208.97V41.4912H220.645V44.3376H211.893V47.9297H220.34V50.6695H211.893V54.1856H220.645V57.0776Z" fill="#064885"/>
<path d="M236.765 41.4619H239.703V57.0788H237.876V57.1092L229.687 46.5762V57.094H226.75V41.5076H229.139L236.78 51.173V41.4924L236.765 41.4619Z" fill="#064885"/>
<path d="M249.55 44.1549H244.604V41.4912H257.435V44.1549H252.488V57.0776H249.55V44.1549Z" fill="#064885"/>
<mask id="mask4_544_143051" style="mask-type:luminance" maskUnits="userSpaceOnUse" x="0" y="0" width="415" height="167">
<path d="M414.014 0H0V166.123H414.014V0Z" fill="white"/>
</mask>
<g mask="url(#mask4_544_143051)">
<path d="M276.157 57.0812H272.656L268.12 51.8756H265.289V57.0812H262.352V41.4796C264.817 41.4796 267.298 41.4948 269.764 41.4948C272.611 41.2513 275.107 43.3518 275.35 46.1981C275.35 46.3503 275.366 46.5025 275.366 46.67C275.533 49.0901 273.813 51.2211 271.423 51.5712L276.142 56.8985V57.0964L276.157 57.0812ZM265.304 44.2194V49.2119H269.779C271.119 49.3489 272.306 48.3595 272.443 47.0353C272.443 46.9287 272.443 46.8222 272.443 46.7309C272.489 45.3914 271.423 44.265 270.084 44.2194C269.977 44.2194 269.871 44.2194 269.779 44.2194H265.304Z" fill="#064885"/>
<path d="M295.808 49.3647C296.036 53.5809 292.809 57.2035 288.578 57.4318C288.319 57.4318 288.06 57.4471 287.801 57.4318C283.616 57.6754 280.023 54.4637 279.78 50.2779C279.765 49.9735 279.765 49.6843 279.78 49.3799C279.536 45.0875 282.824 41.404 287.116 41.1757C287.345 41.1757 287.573 41.1605 287.801 41.1757C292.078 41.0387 295.671 44.3874 295.808 48.6645C295.808 48.908 295.808 49.1363 295.808 49.3799M282.702 49.4408C282.504 52.1653 284.559 54.5398 287.284 54.7377C287.466 54.7377 287.649 54.7529 287.817 54.7377C290.541 54.8443 292.824 52.7133 292.931 49.9887C292.931 49.7909 292.931 49.6082 292.931 49.4103C293.22 46.6401 291.211 44.159 288.441 43.8698C288.243 43.8546 288.045 43.8394 287.832 43.8394C285.031 43.7937 282.733 46.0312 282.687 48.8319C282.687 49.0298 282.687 49.2429 282.717 49.4408" fill="#064885"/>
<path d="M322.46 55.1183C320.877 56.6556 318.746 57.4928 316.539 57.4319C312.323 57.7668 308.624 54.6312 308.289 50.415C308.259 50.0801 308.259 49.7453 308.289 49.3952C308.076 45.0724 311.409 41.3889 315.732 41.1758C316.006 41.1758 316.28 41.1758 316.539 41.1758C318.685 41.1758 320.755 42.0282 322.262 43.5655L320.298 45.4529C319.279 44.494 317.939 43.9612 316.539 43.9765C313.723 43.8243 311.318 45.9856 311.166 48.8168C311.166 49.0146 311.166 49.1973 311.166 49.3952C310.998 52.1502 313.099 54.5095 315.854 54.6769C316.082 54.6769 316.31 54.6769 316.539 54.6769C318 54.6769 319.4 54.0985 320.451 53.0939L322.46 55.1183Z" fill="#064885"/>
</g>
<path d="M329.947 41.4766V54.3536H337.969V57.063H327.01V41.4766H329.947Z" fill="#064885"/>
<path d="M343.175 41.4756H346.097V57.062H343.175V41.4756Z" fill="#064885"/>
<path d="M362.217 41.4619H365.154V57.0788H363.328V57.1092L355.139 46.5762V57.094H352.201V41.5076H354.591L362.232 51.173V41.4924L362.217 41.4619Z" fill="#064885"/>
<path d="M371 41.4756H373.922V57.062H371V41.4756Z" fill="#064885"/>
<mask id="mask5_544_143051" style="mask-type:luminance" maskUnits="userSpaceOnUse" x="0" y="0" width="415" height="167">
<path d="M414.014 0H0V166.123H414.014V0Z" fill="white"/>
</mask>
<g mask="url(#mask5_544_143051)">
<path d="M393.542 55.1183C391.959 56.6556 389.828 57.4928 387.621 57.4319C383.405 57.7668 379.706 54.6312 379.371 50.415C379.341 50.0801 379.341 49.7453 379.371 49.3952C379.158 45.0724 382.491 41.3889 386.814 41.1758C387.088 41.1758 387.362 41.1758 387.621 41.1758C389.767 41.1758 391.837 42.0282 393.344 43.5655L391.38 45.4529C390.361 44.494 389.021 43.9612 387.621 43.9765C384.805 43.8243 382.4 45.9856 382.248 48.8168C382.248 49.0146 382.248 49.1973 382.248 49.3952C382.08 52.1502 384.196 54.5095 386.951 54.6769C387.179 54.6769 387.408 54.6769 387.621 54.6769C389.082 54.6769 390.482 54.0985 391.533 53.0939L393.542 55.1183Z" fill="#064885"/>
<path d="M413.634 49.3647C413.863 53.5809 410.636 57.2035 406.404 57.4318C406.145 57.4318 405.887 57.4471 405.628 57.4318C401.442 57.6754 397.85 54.4637 397.606 50.2779C397.591 49.9735 397.591 49.6843 397.606 49.3799C397.363 45.0875 400.651 41.404 404.943 41.1757C405.171 41.1757 405.4 41.1605 405.628 41.1757C409.905 41.0387 413.497 44.3874 413.634 48.6645C413.634 48.908 413.634 49.1363 413.634 49.3799M400.529 49.4408C400.331 52.1653 402.386 54.5398 405.11 54.7377C405.293 54.7377 405.476 54.7529 405.643 54.7377C408.368 54.8443 410.651 52.7133 410.757 49.9887C410.757 49.7909 410.757 49.6082 410.757 49.4103C411.047 46.6401 409.037 44.159 406.267 43.8698C406.069 43.8546 405.872 43.8394 405.658 43.8394C402.858 43.7937 400.559 46.0312 400.514 48.8319C400.514 49.0298 400.514 49.2429 400.544 49.4408" fill="#064885"/>
<path d="M204.253 55.1183C202.67 56.6556 200.539 57.4928 198.332 57.4319C194.116 57.7668 190.417 54.6312 190.082 50.415C190.051 50.0801 190.051 49.7453 190.082 49.3952C189.869 45.0724 193.202 41.3889 197.525 41.1758C197.799 41.1758 198.073 41.1758 198.332 41.1758C200.478 41.1758 202.548 42.0282 204.055 43.5655L202.091 45.4529C201.072 44.494 199.732 43.9612 198.332 43.9765C195.516 43.8243 193.111 45.9856 192.959 48.8168C192.959 49.0146 192.959 49.1973 192.959 49.3952C192.791 52.1502 194.907 54.5095 197.662 54.6769C197.89 54.6769 198.119 54.6769 198.332 54.6769C199.793 54.6769 201.193 54.0985 202.244 53.0939L204.253 55.1183Z" fill="#064885"/>
</g>
<path d="M220.645 57.0776H208.97V41.4912H220.645V44.3376H211.893V47.9297H220.34V50.6695H211.893V54.1856H220.645V57.0776Z" fill="#064885"/>
<path d="M236.765 41.4619H239.703V57.0788H237.876V57.1092L229.687 46.5762V57.094H226.75V41.5076H229.139L236.78 51.173V41.4924L236.765 41.4619Z" fill="#064885"/>
<path d="M249.55 44.1549H244.604V41.4912H257.435V44.1549H252.488V57.0776H249.55V44.1549Z" fill="#064885"/>
<mask id="mask6_544_143051" style="mask-type:luminance" maskUnits="userSpaceOnUse" x="0" y="0" width="415" height="167">
<path d="M414.014 0H0V166.123H414.014V0Z" fill="white"/>
</mask>
<g mask="url(#mask6_544_143051)">
<path d="M276.157 57.0812H272.656L268.12 51.8756H265.289V57.0812H262.352V41.4796C264.817 41.4796 267.298 41.4948 269.764 41.4948C272.611 41.2513 275.107 43.3518 275.35 46.1981C275.35 46.3503 275.366 46.5025 275.366 46.67C275.533 49.0901 273.813 51.2211 271.423 51.5712L276.142 56.8985V57.0964L276.157 57.0812ZM265.304 44.2194V49.2119H269.779C271.119 49.3489 272.306 48.3595 272.443 47.0353C272.443 46.9287 272.443 46.8222 272.443 46.7309C272.489 45.3914 271.423 44.265 270.084 44.2194C269.977 44.2194 269.871 44.2194 269.779 44.2194H265.304Z" fill="#064885"/>
<path d="M295.808 49.3647C296.036 53.5809 292.809 57.2035 288.578 57.4318C288.319 57.4318 288.06 57.4471 287.801 57.4318C283.616 57.6754 280.023 54.4637 279.78 50.2779C279.765 49.9735 279.765 49.6843 279.78 49.3799C279.536 45.0875 282.824 41.404 287.116 41.1757C287.345 41.1757 287.573 41.1605 287.801 41.1757C292.078 41.0387 295.671 44.3874 295.808 48.6645C295.808 48.908 295.808 49.1363 295.808 49.3799M282.702 49.4408C282.504 52.1653 284.559 54.5398 287.284 54.7377C287.466 54.7377 287.649 54.7529 287.817 54.7377C290.541 54.8443 292.824 52.7133 292.931 49.9887C292.931 49.7909 292.931 49.6082 292.931 49.4103C293.22 46.6401 291.211 44.159 288.441 43.8698C288.243 43.8546 288.045 43.8394 287.832 43.8394C285.031 43.7937 282.733 46.0312 282.687 48.8319C282.687 49.0298 282.687 49.2429 282.717 49.4408" fill="#064885"/>
<path d="M322.46 55.1183C320.877 56.6556 318.746 57.4928 316.539 57.4319C312.323 57.7668 308.624 54.6312 308.289 50.415C308.259 50.0801 308.259 49.7453 308.289 49.3952C308.076 45.0724 311.409 41.3889 315.732 41.1758C316.006 41.1758 316.28 41.1758 316.539 41.1758C318.685 41.1758 320.755 42.0282 322.262 43.5655L320.298 45.4529C319.279 44.494 317.939 43.9612 316.539 43.9765C313.723 43.8243 311.318 45.9856 311.166 48.8168C311.166 49.0146 311.166 49.1973 311.166 49.3952C310.998 52.1502 313.099 54.5095 315.854 54.6769C316.082 54.6769 316.31 54.6769 316.539 54.6769C318 54.6769 319.4 54.0985 320.451 53.0939L322.46 55.1183Z" fill="#064885"/>
</g>
<path d="M329.947 41.4766V54.3536H337.969V57.063H327.01V41.4766H329.947Z" fill="#064885"/>
<path d="M343.175 41.4756H346.097V57.062H343.175V41.4756Z" fill="#064885"/>
<path d="M362.217 41.4619H365.154V57.0788H363.328V57.1092L355.139 46.5762V57.094H352.201V41.5076H354.591L362.232 51.173V41.4924L362.217 41.4619Z" fill="#064885"/>
<path d="M371 41.4756H373.922V57.062H371V41.4756Z" fill="#064885"/>
<mask id="mask7_544_143051" style="mask-type:luminance" maskUnits="userSpaceOnUse" x="0" y="0" width="415" height="167">
<path d="M414.014 0H0V166.123H414.014V0Z" fill="white"/>
</mask>
<g mask="url(#mask7_544_143051)">
<path d="M393.542 55.1183C391.959 56.6556 389.828 57.4928 387.621 57.4319C383.405 57.7668 379.706 54.6312 379.371 50.415C379.341 50.0801 379.341 49.7453 379.371 49.3952C379.158 45.0724 382.491 41.3889 386.814 41.1758C387.088 41.1758 387.362 41.1758 387.621 41.1758C389.767 41.1758 391.837 42.0282 393.344 43.5655L391.38 45.4529C390.361 44.494 389.021 43.9612 387.621 43.9765C384.805 43.8243 382.4 45.9856 382.248 48.8168C382.248 49.0146 382.248 49.1973 382.248 49.3952C382.08 52.1502 384.196 54.5095 386.951 54.6769C387.179 54.6769 387.408 54.6769 387.621 54.6769C389.082 54.6769 390.482 54.0985 391.533 53.0939L393.542 55.1183Z" fill="#064885"/>
<path d="M413.634 49.3647C413.863 53.5809 410.636 57.2035 406.404 57.4318C406.145 57.4318 405.887 57.4471 405.628 57.4318C401.442 57.6754 397.85 54.4637 397.606 50.2779C397.591 49.9735 397.591 49.6843 397.606 49.3799C397.363 45.0875 400.651 41.404 404.943 41.1757C405.171 41.1757 405.4 41.1605 405.628 41.1757C409.905 41.0387 413.497 44.3874 413.634 48.6645C413.634 48.908 413.634 49.1363 413.634 49.3799M400.529 49.4408C400.331 52.1653 402.386 54.5398 405.11 54.7377C405.293 54.7377 405.476 54.7529 405.643 54.7377C408.368 54.8443 410.651 52.7133 410.757 49.9887C410.757 49.7909 410.757 49.6082 410.757 49.4103C411.047 46.6401 409.037 44.159 406.267 43.8698C406.069 43.8546 405.872 43.8394 405.658 43.8394C402.858 43.7937 400.559 46.0312 400.514 48.8319C400.514 49.0298 400.514 49.2429 400.544 49.4408" fill="#064885"/>
<path d="M204.253 55.1183C202.67 56.6556 200.539 57.4928 198.332 57.4319C194.116 57.7668 190.417 54.6312 190.082 50.415C190.051 50.0801 190.051 49.7453 190.082 49.3952C189.869 45.0724 193.202 41.3889 197.525 41.1758C197.799 41.1758 198.073 41.1758 198.332 41.1758C200.478 41.1758 202.548 42.0282 204.055 43.5655L202.091 45.4529C201.072 44.494 199.732 43.9612 198.332 43.9765C195.516 43.8243 193.111 45.9856 192.959 48.8168C192.959 49.0146 192.959 49.1973 192.959 49.3952C192.791 52.1502 194.907 54.5095 197.662 54.6769C197.89 54.6769 198.119 54.6769 198.332 54.6769C199.793 54.6769 201.193 54.0985 202.244 53.0939L204.253 55.1183Z" fill="#064885"/>
</g>
<path d="M220.645 57.0776H208.97V41.4912H220.645V44.3376H211.893V47.9297H220.34V50.6695H211.893V54.1856H220.645V57.0776Z" fill="#064885"/>
<path d="M236.765 41.4619H239.703V57.0788H237.876V57.1092L229.687 46.5762V57.094H226.75V41.5076H229.139L236.78 51.173V41.4924L236.765 41.4619Z" fill="#064885"/>
<path d="M249.55 44.1549H244.604V41.4912H257.435V44.1549H252.488V57.0776H249.55V44.1549Z" fill="#064885"/>
<mask id="mask8_544_143051" style="mask-type:luminance" maskUnits="userSpaceOnUse" x="0" y="0" width="415" height="167">
<path d="M414.014 0H0V166.123H414.014V0Z" fill="white"/>
</mask>
<g mask="url(#mask8_544_143051)">
<path d="M276.157 57.0812H272.656L268.12 51.8756H265.289V57.0812H262.352V41.4796C264.817 41.4796 267.298 41.4948 269.764 41.4948C272.611 41.2513 275.107 43.3518 275.35 46.1981C275.35 46.3503 275.366 46.5025 275.366 46.67C275.533 49.0901 273.813 51.2211 271.423 51.5712L276.142 56.8985V57.0964L276.157 57.0812ZM265.304 44.2194V49.2119H269.779C271.119 49.3489 272.306 48.3595 272.443 47.0353C272.443 46.9287 272.443 46.8222 272.443 46.7309C272.489 45.3914 271.423 44.265 270.084 44.2194C269.977 44.2194 269.871 44.2194 269.779 44.2194H265.304Z" fill="#064885"/>
<path d="M295.808 49.3647C296.036 53.5809 292.809 57.2035 288.578 57.4318C288.319 57.4318 288.06 57.4471 287.801 57.4318C283.616 57.6754 280.023 54.4637 279.78 50.2779C279.765 49.9735 279.765 49.6843 279.78 49.3799C279.536 45.0875 282.824 41.404 287.116 41.1757C287.345 41.1757 287.573 41.1605 287.801 41.1757C292.078 41.0387 295.671 44.3874 295.808 48.6645C295.808 48.908 295.808 49.1363 295.808 49.3799M282.702 49.4408C282.504 52.1653 284.559 54.5398 287.284 54.7377C287.466 54.7377 287.649 54.7529 287.817 54.7377C290.541 54.8443 292.824 52.7133 292.931 49.9887C292.931 49.7909 292.931 49.6082 292.931 49.4103C293.22 46.6401 291.211 44.159 288.441 43.8698C288.243 43.8546 288.045 43.8394 287.832 43.8394C285.031 43.7937 282.733 46.0312 282.687 48.8319C282.687 49.0298 282.687 49.2429 282.717 49.4408" fill="#064885"/>
<path d="M322.46 55.1183C320.877 56.6556 318.746 57.4928 316.539 57.4319C312.323 57.7668 308.624 54.6312 308.289 50.415C308.259 50.0801 308.259 49.7453 308.289 49.3952C308.076 45.0724 311.409 41.3889 315.732 41.1758C316.006 41.1758 316.28 41.1758 316.539 41.1758C318.685 41.1758 320.755 42.0282 322.262 43.5655L320.298 45.4529C319.279 44.494 317.939 43.9612 316.539 43.9765C313.723 43.8243 311.318 45.9856 311.166 48.8168C311.166 49.0146 311.166 49.1973 311.166 49.3952C310.998 52.1502 313.099 54.5095 315.854 54.6769C316.082 54.6769 316.31 54.6769 316.539 54.6769C318 54.6769 319.4 54.0985 320.451 53.0939L322.46 55.1183Z" fill="#064885"/>
</g>
<path d="M329.947 41.4766V54.3536H337.969V57.063H327.01V41.4766H329.947Z" fill="#064885"/>
<path d="M343.175 41.4756H346.097V57.062H343.175V41.4756Z" fill="#064885"/>
<path d="M362.217 41.4619H365.154V57.0788H363.328V57.1092L355.139 46.5762V57.094H352.201V41.5076H354.591L362.232 51.173V41.4924L362.217 41.4619Z" fill="#064885"/>
<path d="M371 41.4756H373.922V57.062H371V41.4756Z" fill="#064885"/>
<mask id="mask9_544_143051" style="mask-type:luminance" maskUnits="userSpaceOnUse" x="0" y="0" width="415" height="167">
<path d="M414.014 0H0V166.123H414.014V0Z" fill="white"/>
</mask>
<g mask="url(#mask9_544_143051)">
<path d="M393.542 55.1183C391.959 56.6556 389.828 57.4928 387.621 57.4319C383.405 57.7668 379.706 54.6312 379.371 50.415C379.341 50.0801 379.341 49.7453 379.371 49.3952C379.158 45.0724 382.491 41.3889 386.814 41.1758C387.088 41.1758 387.362 41.1758 387.621 41.1758C389.767 41.1758 391.837 42.0282 393.344 43.5655L391.38 45.4529C390.361 44.494 389.021 43.9612 387.621 43.9765C384.805 43.8243 382.4 45.9856 382.248 48.8168C382.248 49.0146 382.248 49.1973 382.248 49.3952C382.08 52.1502 384.196 54.5095 386.951 54.6769C387.179 54.6769 387.408 54.6769 387.621 54.6769C389.082 54.6769 390.482 54.0985 391.533 53.0939L393.542 55.1183Z" fill="#064885"/>
<path d="M413.634 49.3647C413.863 53.5809 410.636 57.2035 406.404 57.4318C406.145 57.4318 405.887 57.4471 405.628 57.4318C401.442 57.6754 397.85 54.4637 397.606 50.2779C397.591 49.9735 397.591 49.6843 397.606 49.3799C397.363 45.0875 400.651 41.404 404.943 41.1757C405.171 41.1757 405.4 41.1605 405.628 41.1757C409.905 41.0387 413.497 44.3874 413.634 48.6645C413.634 48.908 413.634 49.1363 413.634 49.3799M400.529 49.4408C400.331 52.1653 402.386 54.5398 405.11 54.7377C405.293 54.7377 405.476 54.7529 405.643 54.7377C408.368 54.8443 410.651 52.7133 410.757 49.9887C410.757 49.7909 410.757 49.6082 410.757 49.4103C411.047 46.6401 409.037 44.159 406.267 43.8698C406.069 43.8546 405.872 43.8394 405.658 43.8394C402.858 43.7937 400.559 46.0312 400.514 48.8319C400.514 49.0298 400.514 49.2429 400.544 49.4408" fill="#064885"/>
</g>
</svg>
