<svg width="345" height="262" viewBox="0 0 345 262" fill="none" xmlns="http://www.w3.org/2000/svg">
<path d="M233.603 172.944C222.503 174.733 216.819 182.936 216.819 197.37C216.819 211.805 224.377 221.602 235.976 221.602C241.367 221.602 246.272 219.813 256.569 214.762V226.507C244.203 232.178 236.925 233.931 226.957 233.931C216.174 233.931 208.58 231.071 202.385 224.754C196.032 218.401 192.855 210.004 192.855 200.669C192.855 179.881 208.239 165.824 230.718 165.824C245.652 165.824 255.911 172.64 255.911 182.656C255.911 189.107 251.128 193.549 244.045 193.549C240.406 193.549 237.412 192.6 233.59 190.372V172.944H233.603Z" fill="#1D1D1B"/>
<path d="M178.811 200.669C188.766 188.121 192.283 183.058 192.283 176.899C192.283 170.741 187.415 165.824 180.904 165.824C176.9 165.824 173.285 167.711 171.533 169.682V195.241L155.224 216.977V167.431H139.719L113.941 210.174V167.431H105.032L81.6283 173.139V179.127L94.3953 180.417V232.836H110.899L135.629 192.198V232.836H153.703L178.835 200.681L178.811 200.669Z" fill="#1D1D1B"/>
<path d="M32.3373 224.754C34.0899 224.84 34.8688 224.84 35.9764 224.84C49.2667 224.84 56.3865 216.551 56.3865 200.669C56.3865 187.22 50.5567 180.076 39.7979 180.076C38.0089 180.076 36.1224 180.295 32.3373 180.758V224.766V224.754ZM32.3373 253.404L43.0353 255.789V261.863H1.0589V255.789L10.625 253.404V180.076H6.10352e-05V173.784L25.68 165.982H32.3373V174.733C44.3619 167.577 48.4999 166.311 54.6582 166.311C68.91 166.311 79.4132 179.443 79.4132 197.638C79.4132 218.669 65.3805 232.811 43.2787 232.811C40.7837 232.811 36.6214 232.665 32.3252 232.166V253.38L32.3373 253.404Z" fill="#1D1D1B"/>
<g style="mix-blend-mode:multiply">
<path d="M345 80.3145H219.509V112.433H345V80.3145Z" fill="#EB5E99"/>
</g>
<g style="mix-blend-mode:multiply">
<path d="M296.196 12.5479H219.509V112.432H296.196V12.5479Z" fill="#F8B887"/>
</g>
<g style="mix-blend-mode:multiply">
<path d="M283.587 0H219.509V112.432H283.587V0Z" fill="#F3931F"/>
</g>
<g style="mix-blend-mode:multiply">
<path d="M328.691 32.1055H219.509V112.432H328.691V32.1055Z" fill="#FBBA00"/>
</g>
<g style="mix-blend-mode:multiply">
<path d="M259.587 64.2236H219.509V112.444H259.587V64.2236Z" fill="#D1AF94"/>
</g>
<path d="M219.497 112.432H155.248V128.497H219.497V112.432Z" fill="#C22517"/>
</svg>
