<svg width="561" height="167" viewBox="0 0 561 167" fill="none" xmlns="http://www.w3.org/2000/svg">
<path d="M125.867 111.755H129.018V134.268H125.867V111.755Z" fill="#0065A3"/>
<path d="M133.538 117.863C134.235 117.693 135.15 117.507 136.301 117.312C137.451 117.118 138.772 117.021 140.262 117.021C141.607 117.021 142.717 117.207 143.608 117.588C144.499 117.968 145.204 118.495 145.739 119.183C146.265 119.864 146.646 120.682 146.857 121.638C147.075 122.594 147.181 123.639 147.181 124.789V134.276H144.159V125.438C144.159 124.401 144.086 123.509 143.948 122.772C143.811 122.035 143.576 121.444 143.252 120.982C142.927 120.528 142.49 120.196 141.955 119.994C141.413 119.791 140.74 119.686 139.938 119.686C139.614 119.686 139.274 119.694 138.934 119.718C138.585 119.742 138.253 119.767 137.945 119.799C137.629 119.832 137.346 119.872 137.103 119.913C136.852 119.953 136.673 119.986 136.568 120.01V134.276H133.546V117.871L133.538 117.863Z" fill="#0065A3"/>
<path d="M157.906 109.057C158.668 109.057 159.316 109.106 159.859 109.203C160.401 109.3 160.79 109.389 161.025 109.478L160.604 112.079C160.369 111.99 160.037 111.9 159.632 111.803C159.219 111.706 158.724 111.657 158.141 111.657C156.732 111.657 155.743 112.038 155.184 112.808C154.617 113.577 154.342 114.614 154.342 115.91V117.369H160.839V119.904H154.342V134.268H151.32V115.846C151.32 113.683 151.847 112.006 152.916 110.823C153.977 109.64 155.646 109.049 157.922 109.049L157.906 109.057ZM165.473 114.323C164.93 114.323 164.468 114.144 164.095 113.788C163.715 113.432 163.528 112.945 163.528 112.338C163.528 111.73 163.715 111.252 164.095 110.896C164.476 110.539 164.938 110.361 165.473 110.361C166.007 110.361 166.477 110.539 166.85 110.896C167.231 111.252 167.417 111.738 167.417 112.338C167.417 112.937 167.231 113.423 166.85 113.788C166.469 114.153 166.007 114.323 165.473 114.323ZM167.004 134.276H163.982V117.377H167.004V134.276Z" fill="#0065A3"/>
<path d="M171.322 117.863C172.018 117.693 172.934 117.507 174.084 117.312C175.235 117.118 176.555 117.021 178.046 117.021C179.39 117.021 180.5 117.207 181.391 117.588C182.283 117.968 182.987 118.495 183.522 119.183C184.049 119.864 184.429 120.682 184.64 121.638C184.859 122.594 184.964 123.639 184.964 124.789V134.276H181.942V125.438C181.942 124.401 181.869 123.509 181.732 122.772C181.594 122.035 181.359 121.444 181.035 120.982C180.711 120.528 180.273 120.196 179.739 119.994C179.196 119.791 178.524 119.686 177.722 119.686C177.398 119.686 177.057 119.694 176.717 119.718C176.369 119.742 176.037 119.767 175.729 119.799C175.413 119.832 175.129 119.872 174.886 119.913C174.635 119.953 174.457 119.986 174.352 120.01V134.276H171.33V117.871L171.322 117.863Z" fill="#0065A3"/>
<path d="M190.586 114.323C190.043 114.323 189.582 114.145 189.209 113.788C188.828 113.432 188.642 112.946 188.642 112.338C188.642 111.73 188.828 111.252 189.209 110.896C189.59 110.54 190.051 110.361 190.586 110.361C191.121 110.361 191.591 110.54 191.963 110.896C192.344 111.252 192.53 111.739 192.53 112.338C192.53 112.937 192.344 113.424 191.963 113.788C191.583 114.145 191.121 114.323 190.586 114.323ZM192.117 134.276H189.096V117.377H192.117V134.276Z" fill="#0065A3"/>
<path d="M199.263 117.377H205.662V119.912H199.263V127.714C199.263 128.556 199.327 129.253 199.457 129.812C199.587 130.363 199.781 130.8 200.04 131.108C200.299 131.424 200.624 131.643 201.012 131.772C201.401 131.902 201.855 131.967 202.373 131.967C203.281 131.967 204.018 131.861 204.569 131.659C205.12 131.456 205.508 131.31 205.719 131.221L206.302 133.725C205.995 133.878 205.468 134.065 204.706 134.292C203.945 134.518 203.078 134.632 202.106 134.632C200.956 134.632 200.008 134.486 199.263 134.194C198.517 133.903 197.918 133.465 197.456 132.882C197.002 132.299 196.678 131.578 196.5 130.719C196.314 129.86 196.225 128.872 196.225 127.746V112.67L199.246 112.151V117.385L199.263 117.377Z" fill="#0065A3"/>
<path d="M207.356 125.858C207.356 124.359 207.574 123.055 208.004 121.945C208.433 120.827 209.008 119.904 209.721 119.167C210.434 118.429 211.26 117.879 212.192 117.506C213.124 117.141 214.079 116.955 215.052 116.955C217.328 116.955 219.07 117.668 220.285 119.086C221.5 120.503 222.1 122.666 222.1 125.567V126.069C222.1 126.271 222.091 126.466 222.067 126.636H210.499C210.628 128.394 211.139 129.722 212.022 130.63C212.905 131.537 214.298 131.991 216.178 131.991C217.239 131.991 218.13 131.902 218.859 131.715C219.588 131.529 220.131 131.351 220.504 131.181L220.925 133.716C220.552 133.911 219.912 134.121 218.989 134.332C218.065 134.543 217.02 134.656 215.854 134.656C214.379 134.656 213.107 134.437 212.038 133.992C210.969 133.546 210.086 132.939 209.389 132.153C208.692 131.375 208.182 130.443 207.842 129.374C207.501 128.305 207.339 127.13 207.339 125.85L207.356 125.858ZM218.956 124.206C218.981 122.845 218.632 121.719 217.936 120.844C217.231 119.969 216.259 119.531 215.027 119.531C214.331 119.531 213.723 119.669 213.188 119.936C212.654 120.204 212.208 120.56 211.844 120.989C211.471 121.427 211.187 121.921 210.985 122.48C210.782 123.047 210.645 123.614 210.58 124.206H218.964H218.956Z" fill="#0065A3"/>
<path d="M237.637 132.032C240.926 132.032 242.579 130.905 242.579 128.653C242.579 127.957 242.433 127.373 242.141 126.879C241.85 126.393 241.453 125.972 240.959 125.615C240.456 125.259 239.889 124.951 239.249 124.692C238.609 124.433 237.937 124.173 237.216 123.914C236.39 123.631 235.612 123.315 234.875 122.958C234.138 122.602 233.498 122.181 232.955 121.695C232.412 121.208 231.983 120.625 231.675 119.953C231.367 119.28 231.205 118.47 231.205 117.514C231.205 115.546 231.877 114.007 233.222 112.905C234.567 111.803 236.414 111.244 238.779 111.244C240.14 111.244 241.38 111.39 242.498 111.682C243.616 111.973 244.434 112.297 244.953 112.638L243.948 115.206C243.494 114.922 242.814 114.647 241.915 114.379C241.015 114.112 239.97 113.974 238.779 113.974C238.172 113.974 237.613 114.039 237.086 114.169C236.568 114.298 236.114 114.493 235.725 114.752C235.337 115.011 235.029 115.343 234.802 115.74C234.575 116.145 234.462 116.615 234.462 117.158C234.462 117.766 234.583 118.276 234.818 118.681C235.053 119.086 235.393 119.459 235.823 119.766C236.252 120.074 236.762 120.366 237.338 120.625C237.913 120.884 238.545 121.144 239.241 121.403C240.213 121.792 241.113 122.181 241.923 122.569C242.733 122.958 243.438 123.428 244.037 123.963C244.628 124.506 245.09 125.146 245.414 125.899C245.738 126.644 245.9 127.552 245.9 128.613C245.9 130.581 245.179 132.096 243.737 133.158C242.295 134.219 240.262 134.753 237.645 134.753C236.754 134.753 235.936 134.697 235.191 134.575C234.445 134.454 233.773 134.316 233.19 134.154C232.606 133.992 232.104 133.822 231.675 133.636C231.254 133.449 230.921 133.295 230.687 133.166L231.626 130.565C232.129 130.849 232.882 131.165 233.903 131.505C234.923 131.845 236.163 132.023 237.637 132.023V132.032Z" fill="#0065A3"/>
<path d="M263.536 125.826C263.536 127.171 263.342 128.386 262.953 129.463C262.564 130.549 262.013 131.48 261.309 132.258C260.604 133.036 259.761 133.643 258.789 134.065C257.817 134.486 256.756 134.696 255.606 134.696C254.455 134.696 253.394 134.486 252.422 134.065C251.45 133.643 250.607 133.044 249.902 132.258C249.198 131.48 248.655 130.549 248.258 129.463C247.869 128.378 247.675 127.171 247.675 125.826C247.675 124.481 247.869 123.298 248.258 122.205C248.647 121.111 249.198 120.171 249.902 119.394C250.607 118.616 251.45 118.008 252.422 117.587C253.394 117.166 254.455 116.955 255.606 116.955C256.756 116.955 257.817 117.166 258.789 117.587C259.761 118.008 260.604 118.608 261.309 119.394C262.013 120.171 262.556 121.111 262.953 122.205C263.342 123.298 263.536 124.505 263.536 125.826ZM260.377 125.826C260.377 123.922 259.948 122.407 259.097 121.297C258.238 120.179 257.08 119.62 255.606 119.62C254.131 119.62 252.965 120.179 252.114 121.297C251.255 122.415 250.834 123.922 250.834 125.826C250.834 127.73 251.263 129.244 252.114 130.362C252.973 131.48 254.131 132.039 255.606 132.039C257.08 132.039 258.238 131.48 259.097 130.362C259.956 129.244 260.377 127.738 260.377 125.826Z" fill="#0065A3"/>
<path d="M271.978 134.599C270.115 134.559 268.794 134.153 268.016 133.4C267.239 132.639 266.85 131.464 266.85 129.86V109.583L269.872 109.064V129.374C269.872 129.876 269.912 130.281 270.001 130.605C270.09 130.929 270.228 131.188 270.422 131.383C270.617 131.577 270.876 131.723 271.2 131.82C271.524 131.918 271.929 131.999 272.399 132.063L271.978 134.599Z" fill="#0065A3"/>
<path d="M288.358 133.79C287.661 133.96 286.746 134.146 285.612 134.341C284.478 134.535 283.157 134.632 281.667 134.632C280.37 134.632 279.277 134.446 278.386 134.065C277.495 133.684 276.782 133.15 276.239 132.453C275.696 131.756 275.307 130.938 275.072 129.998C274.837 129.059 274.716 128.014 274.716 126.863V117.377H277.738V126.215C277.738 128.273 278.062 129.747 278.71 130.638C279.358 131.53 280.451 131.967 281.991 131.967C282.315 131.967 282.655 131.959 282.995 131.935C283.335 131.91 283.668 131.886 283.967 131.854C284.267 131.821 284.542 131.789 284.794 131.756C285.045 131.724 285.223 131.683 285.328 131.643V117.377H288.35V133.782L288.358 133.79Z" fill="#0065A3"/>
<path d="M295.503 117.377H301.903V119.912H295.503V127.714C295.503 128.556 295.568 129.253 295.698 129.812C295.827 130.363 296.022 130.8 296.281 131.108C296.54 131.424 296.864 131.643 297.253 131.772C297.642 131.902 298.096 131.967 298.614 131.967C299.521 131.967 300.259 131.861 300.809 131.659C301.36 131.456 301.749 131.31 301.96 131.221L302.543 133.725C302.235 133.878 301.709 134.065 300.955 134.292C300.194 134.518 299.327 134.632 298.355 134.632C297.204 134.632 296.257 134.486 295.511 134.194C294.766 133.903 294.167 133.465 293.705 132.882C293.251 132.299 292.927 131.578 292.749 130.719C292.571 129.86 292.473 128.872 292.473 127.746V112.67L295.495 112.151V117.385L295.503 117.377Z" fill="#0065A3"/>
<path d="M306.359 114.323C305.816 114.323 305.354 114.145 304.974 113.788C304.593 113.432 304.406 112.946 304.406 112.338C304.406 111.73 304.593 111.252 304.974 110.896C305.354 110.54 305.816 110.361 306.359 110.361C306.902 110.361 307.363 110.54 307.736 110.896C308.117 111.252 308.303 111.739 308.303 112.338C308.303 112.937 308.117 113.424 307.736 113.788C307.355 114.153 306.894 114.323 306.359 114.323ZM307.882 134.276H304.86V117.377H307.882V134.276Z" fill="#0065A3"/>
<path d="M327.114 125.826C327.114 127.171 326.919 128.386 326.531 129.463C326.142 130.549 325.591 131.48 324.886 132.258C324.181 133.036 323.339 133.643 322.367 134.065C321.395 134.486 320.333 134.696 319.183 134.696C318.033 134.696 316.971 134.486 315.999 134.065C315.027 133.643 314.185 133.044 313.48 132.258C312.775 131.48 312.232 130.549 311.835 129.463C311.446 128.378 311.252 127.171 311.252 125.826C311.252 124.481 311.446 123.298 311.835 122.205C312.224 121.111 312.775 120.171 313.48 119.394C314.185 118.616 315.027 118.008 315.999 117.587C316.971 117.166 318.033 116.955 319.183 116.955C320.333 116.955 321.395 117.166 322.367 117.587C323.339 118.008 324.181 118.608 324.886 119.394C325.591 120.171 326.134 121.111 326.531 122.205C326.919 123.298 327.114 124.505 327.114 125.826ZM323.963 125.826C323.963 123.922 323.533 122.407 322.683 121.297C321.824 120.179 320.665 119.62 319.191 119.62C317.717 119.62 316.55 120.179 315.699 121.297C314.841 122.415 314.419 123.922 314.419 125.826C314.419 127.73 314.849 129.244 315.699 130.362C316.558 131.48 317.717 132.039 319.191 132.039C320.665 132.039 321.824 131.48 322.683 130.362C323.541 129.244 323.963 127.738 323.963 125.826Z" fill="#0065A3"/>
<path d="M330.5 117.863C331.197 117.693 332.112 117.507 333.262 117.312C334.413 117.118 335.733 117.021 337.224 117.021C338.569 117.021 339.679 117.207 340.57 117.588C341.461 117.968 342.166 118.495 342.7 119.183C343.227 119.864 343.608 120.682 343.818 121.638C344.037 122.594 344.142 123.639 344.142 124.789V134.276H341.121V125.438C341.121 124.401 341.048 123.509 340.91 122.772C340.772 122.035 340.537 121.444 340.213 120.982C339.889 120.528 339.452 120.196 338.917 119.994C338.374 119.791 337.702 119.686 336.9 119.686C336.576 119.686 336.236 119.694 335.895 119.718C335.547 119.742 335.215 119.767 334.907 119.799C334.591 119.832 334.308 119.872 334.064 119.913C333.813 119.953 333.635 119.986 333.53 120.01V134.276H330.508V117.871L330.5 117.863Z" fill="#0065A3"/>
<path d="M352.203 132.096C353.434 132.096 354.349 131.934 354.949 131.61C355.54 131.286 355.84 130.768 355.84 130.055C355.84 129.342 355.548 128.734 354.965 128.297C354.382 127.86 353.418 127.373 352.073 126.839C351.425 126.58 350.801 126.312 350.202 126.045C349.602 125.778 349.092 125.454 348.654 125.089C348.217 124.724 347.877 124.279 347.617 123.76C347.358 123.242 347.229 122.602 347.229 121.84C347.229 120.35 347.779 119.159 348.889 118.284C349.999 117.409 351.498 116.972 353.41 116.972C353.888 116.972 354.366 116.996 354.835 117.053C355.313 117.109 355.759 117.174 356.164 117.247C356.577 117.32 356.942 117.401 357.25 117.49C357.566 117.579 357.809 117.652 357.979 117.717L357.428 120.317C357.104 120.147 356.593 119.969 355.905 119.783C355.208 119.596 354.382 119.507 353.402 119.507C352.559 119.507 351.822 119.677 351.19 120.01C350.558 120.35 350.25 120.868 350.25 121.589C350.25 121.962 350.323 122.286 350.461 122.561C350.599 122.845 350.817 123.096 351.109 123.323C351.401 123.55 351.765 123.76 352.195 123.955C352.632 124.149 353.15 124.36 353.75 124.57C354.552 124.87 355.265 125.17 355.897 125.462C356.529 125.753 357.063 126.094 357.509 126.482C357.954 126.871 358.295 127.341 358.53 127.892C358.765 128.443 358.886 129.123 358.886 129.925C358.886 131.489 358.303 132.663 357.144 133.465C355.986 134.267 354.333 134.664 352.186 134.664C350.696 134.664 349.521 134.543 348.679 134.292C347.836 134.041 347.261 133.854 346.953 133.725L347.504 131.124C347.852 131.254 348.403 131.448 349.165 131.708C349.926 131.967 350.931 132.096 352.186 132.096H352.203Z" fill="#0065A3"/>
<path d="M156.699 0C123.687 0 106.059 31.0758 92.3523 54.6904L86.7545 64.9059C76.9603 83.0928 61.2928 110.539 40.3029 110.539C18.195 110.539 8.11728 88.1965 8.11728 70.0095C8.11728 46.3949 23.5093 31.0758 41.4208 31.0758C59.3323 31.0758 71.0951 43.7134 81.3754 57.5501L87.5241 47.205C81.2296 32.2747 61.6006 8.10108 39.7358 8.10108C13.4316 8.09298 0 39.0553 0 65.5378C0 99.6838 17.3363 134.275 50.3563 134.275C74.4246 134.275 88.156 115.003 99.6271 95.2201L105.225 84.3728C117.814 59.8022 135.126 21.0952 158.19 19.718C176.28 18.6406 186.681 29.172 192.295 43.6567H202.924C197.278 15.4569 183.976 0 156.699 0Z" fill="#0065A3"/>
<path d="M141.234 49.1406C149.141 49.1406 155.192 50.5502 159.397 53.3613C163.601 56.1724 165.708 60.547 165.708 66.4688C165.708 70.171 164.857 73.1684 163.164 75.4772C161.463 77.7861 159.024 79.5926 155.832 80.9131C156.894 82.2335 158.012 83.7403 159.178 85.4335C160.345 87.1347 161.495 88.9007 162.637 90.7559C163.78 92.6029 164.881 94.531 165.943 96.532C167.004 98.5329 167.992 100.493 168.908 102.421H155.654C154.69 100.704 153.71 98.9542 152.714 97.18C151.725 95.4059 150.704 93.6804 149.659 92.0116C148.614 90.3427 147.586 88.7549 146.573 87.2643C145.552 85.7737 144.54 84.4127 143.519 83.1976H137.67V102.421H125.81V50.5097C128.394 50.0074 131.067 49.651 133.83 49.4485C136.592 49.2459 139.063 49.1406 141.242 49.1406H141.234ZM141.923 59.2508C141.064 59.2508 140.286 59.2751 139.606 59.3237C138.925 59.3723 138.277 59.429 137.67 59.4776V73.7679H141.016C145.471 73.7679 148.663 73.2089 150.591 72.0991C152.519 70.9811 153.475 69.0855 153.475 66.3959C153.475 63.7064 152.495 61.9727 150.551 60.8872C148.598 59.8017 145.722 59.2508 141.923 59.2508Z" fill="#B80718"/>
<path d="M185.166 61.3811C188.512 61.3811 191.299 61.7619 193.527 62.5234C195.755 63.2849 197.545 64.3704 198.882 65.7881C200.226 67.2058 201.174 68.9314 201.733 70.9566C202.292 72.9819 202.568 75.2421 202.568 77.721V101.279C200.947 101.635 198.695 102.049 195.803 102.535C192.911 103.021 189.42 103.256 185.312 103.256C182.728 103.256 180.387 103.029 178.281 102.575C176.174 102.121 174.368 101.376 172.845 100.331C171.322 99.2942 170.155 97.9332 169.345 96.2644C168.535 94.5956 168.13 92.5379 168.13 90.1076C168.13 87.6773 168.6 85.7978 169.539 84.1776C170.479 82.5574 171.727 81.2612 173.298 80.2972C174.87 79.3331 176.668 78.6365 178.694 78.2071C180.719 77.7777 182.825 77.559 185.004 77.559C186.471 77.559 187.775 77.6238 188.917 77.7453C190.06 77.875 190.983 78.037 191.688 78.2395V77.1783C191.688 75.2502 191.105 73.711 189.938 72.5444C188.771 71.3779 186.746 70.7946 183.862 70.7946C181.934 70.7946 180.038 70.9323 178.159 71.2159C176.288 71.4913 174.659 71.8882 173.298 72.3905L171.856 63.2687C172.513 63.0662 173.339 62.8474 174.327 62.6206C175.316 62.3938 176.393 62.1913 177.56 62.013C178.726 61.8348 179.957 61.6809 181.246 61.5594C182.534 61.4298 183.838 61.373 185.158 61.373L185.166 61.3811ZM186.074 94.5146C187.184 94.5146 188.253 94.4903 189.266 94.4417C190.278 94.3931 191.088 94.312 191.696 94.2148V85.6277C191.242 85.5305 190.554 85.4252 189.646 85.3198C188.731 85.2226 187.897 85.1659 187.135 85.1659C186.074 85.1659 185.069 85.2307 184.13 85.3604C183.19 85.49 182.372 85.7249 181.659 86.0813C180.946 86.4378 180.395 86.9158 179.99 87.5233C179.585 88.1309 179.382 88.8924 179.382 89.7997C179.382 91.5739 179.974 92.8052 181.165 93.4857C182.355 94.1662 183.992 94.5146 186.066 94.5146H186.074Z" fill="#B80718"/>
<path d="M245.05 101.125C244.037 101.433 242.87 101.724 241.55 102C240.229 102.275 238.852 102.518 237.41 102.721C235.968 102.923 234.494 103.085 233.003 103.215C231.505 103.345 230.079 103.401 228.71 103.401C225.413 103.401 222.48 102.923 219.896 101.959C217.312 100.995 215.132 99.6182 213.358 97.8198C211.584 96.0213 210.231 93.8421 209.291 91.2822C208.352 88.7223 207.882 85.8464 207.882 82.6545C207.882 79.4627 208.287 76.4896 209.097 73.8811C209.907 71.2725 211.074 69.0528 212.597 67.2301C214.12 65.4073 215.975 64.014 218.186 63.0499C220.39 62.0859 222.909 61.6079 225.745 61.6079C227.316 61.6079 228.718 61.7619 229.965 62.0616C231.205 62.3694 232.461 62.7988 233.724 63.3578V45.2681L245.05 43.4453V101.133V101.125ZM219.442 82.128C219.442 85.6276 220.228 88.4387 221.8 90.5612C223.371 92.6918 225.704 93.753 228.791 93.753C229.803 93.753 230.743 93.7125 231.602 93.6396C232.461 93.5667 233.173 93.4776 233.732 93.3723V72.7793C233.019 72.3257 232.096 71.9449 230.962 71.6371C229.82 71.3292 228.669 71.1834 227.503 71.1834C222.132 71.1834 219.45 74.8289 219.45 82.128H219.442Z" fill="#B80718"/>
<path d="M265.035 50.8897C265.035 52.9717 264.363 54.6 263.018 55.7909C261.673 56.9818 260.093 57.5812 258.271 57.5812C256.448 57.5812 254.86 56.9899 253.523 55.7909C252.179 54.6 251.506 52.9636 251.506 50.8897C251.506 48.8159 252.179 47.1794 253.523 45.9886C254.868 44.7977 256.448 44.1982 258.271 44.1982C260.093 44.1982 261.681 44.7977 263.018 45.9886C264.363 47.1794 265.035 48.8159 265.035 50.8897ZM263.974 102.421H252.648V62.4419H263.974V102.421Z" fill="#B80718"/>
<path d="M308.967 82.3546C308.967 85.4978 308.514 88.3737 307.598 90.9822C306.683 93.5908 305.37 95.8186 303.645 97.6737C301.919 99.5208 299.854 100.955 297.448 101.967C295.042 102.98 292.344 103.49 289.355 103.49C286.365 103.49 283.741 102.98 281.334 101.967C278.928 100.955 276.863 99.5208 275.137 97.6737C273.412 95.8267 272.067 93.5989 271.111 90.9822C270.147 88.3737 269.669 85.4978 269.669 82.3546C269.669 79.2113 270.163 76.3517 271.151 73.7674C272.14 71.1832 273.509 68.9797 275.259 67.1569C277.009 65.3342 279.082 63.9165 281.488 62.9039C283.894 61.8912 286.519 61.3809 289.355 61.3809C292.19 61.3809 294.888 61.8912 297.294 62.9039C299.7 63.9165 301.765 65.3342 303.491 67.1569C305.216 68.9797 306.553 71.1832 307.517 73.7674C308.481 76.3517 308.959 79.2113 308.959 82.3546H308.967ZM297.415 82.3546C297.415 78.8549 296.718 76.1086 295.325 74.1077C293.932 72.1067 291.947 71.1022 289.363 71.1022C286.778 71.1022 284.777 72.1067 283.36 74.1077C281.942 76.1086 281.229 78.8549 281.229 82.3546C281.229 85.8542 281.942 88.6248 283.36 90.6744C284.777 92.7239 286.778 93.7528 289.363 93.7528C291.947 93.7528 293.932 92.7239 295.325 90.6744C296.718 88.6248 297.415 85.8461 297.415 82.3546Z" fill="#B80718"/>
<path d="M351.676 102.421C350.672 99.8368 349.748 97.3497 348.905 94.9599C348.063 92.5701 347.253 90.2451 346.483 87.9849H320.754C319.879 90.2613 319.013 92.5944 318.17 94.9842C317.327 97.374 316.436 99.853 315.497 102.429H310.101C312.102 96.9447 313.99 91.841 315.772 87.1018C317.554 82.3708 319.296 77.8828 321.005 73.6622C322.715 69.4334 324.416 65.3747 326.101 61.4781C327.786 57.5815 329.56 53.6768 331.415 49.7559H335.968C337.823 53.6525 339.589 57.5572 341.258 61.4619C342.927 65.3666 344.62 69.4253 346.329 73.6541C348.039 77.8828 349.789 82.3627 351.546 87.1018C353.312 91.841 355.249 96.9528 357.363 102.429H351.66L351.676 102.421ZM333.546 55.6778C331.642 60.0523 329.779 64.4917 327.972 68.9959C326.166 73.5001 324.294 78.3608 322.366 83.5698H344.847C342.903 78.3527 341.007 73.4839 339.168 68.9716C337.321 64.4593 335.45 60.028 333.546 55.6778Z" fill="#B80718"/>
<path d="M377.818 103.256C374.78 103.256 372.091 102.778 369.766 101.814C367.433 100.85 365.496 99.4724 363.949 97.674C362.402 95.8755 361.227 93.7206 360.417 91.2174C359.607 88.7061 359.202 85.9355 359.202 82.8976C359.202 79.8597 359.623 76.9919 360.458 74.4644C361.292 71.9287 362.499 69.7495 364.071 67.9268C365.642 66.1041 367.538 64.6945 369.774 63.7061C372.002 62.7178 374.513 62.2236 377.3 62.2236C379.43 62.2236 381.415 62.4019 383.262 62.7583C385.109 63.1148 386.543 63.5684 387.556 64.1274L386.268 68.3805C385.255 67.8782 384.113 67.465 382.849 67.1653C381.585 66.8575 379.884 66.7116 377.753 66.7116C373.395 66.7116 370.09 68.1212 367.838 70.9323C365.586 73.7434 364.46 77.7372 364.46 82.9057C364.46 85.2388 364.711 87.3775 365.221 89.3299C365.723 91.2822 366.55 92.951 367.692 94.3444C368.834 95.7378 370.3 96.8315 372.099 97.6092C373.897 98.395 376.085 98.7838 378.669 98.7838C380.799 98.7838 382.582 98.5408 384.024 98.0628C385.466 97.5849 386.519 97.1636 387.175 96.8072L388.236 101.06C387.321 101.571 385.895 102.065 383.943 102.543C381.99 103.021 379.949 103.264 377.826 103.264L377.818 103.256Z" fill="#B80718"/>
<path d="M398.112 63.1229H413.771V67.3031H398.112V88.2039C398.112 90.4317 398.298 92.2463 398.679 93.6397C399.059 95.0331 399.602 96.1106 400.315 96.8721C401.028 97.6336 401.887 98.1358 402.899 98.3951C403.912 98.6462 405.03 98.7758 406.245 98.7758C408.319 98.7758 409.996 98.5328 411.26 98.0548C412.523 97.5769 413.512 97.1313 414.225 96.7262L415.44 100.833C414.727 101.287 413.487 101.814 411.713 102.389C409.939 102.972 408.011 103.264 405.937 103.264C403.507 103.264 401.465 102.948 399.821 102.316C398.176 101.684 396.856 100.72 395.868 99.432C394.879 98.1439 394.183 96.5318 393.778 94.6038C393.372 92.6757 393.17 90.3993 393.17 87.7664V51.587L398.112 50.6797V63.1392V63.1229Z" fill="#B80718"/>
<path d="M425.923 51.2711C425.923 52.4376 425.566 53.3612 424.861 54.0417C424.148 54.7221 423.29 55.0705 422.277 55.0705C421.264 55.0705 420.406 54.7302 419.693 54.0417C418.98 53.3612 418.632 52.4295 418.632 51.2711C418.632 50.1126 418.988 49.181 419.693 48.5005C420.406 47.82 421.264 47.4717 422.277 47.4717C423.29 47.4717 424.148 47.8119 424.861 48.5005C425.574 49.181 425.923 50.1126 425.923 51.2711ZM424.788 102.421H419.847V63.1311H424.788V102.421Z" fill="#B80718"/>
<path d="M446.71 97.099C447.779 94.9198 448.873 92.4247 449.991 89.6136C451.109 86.8025 452.186 83.8861 453.231 80.8725C454.276 77.8589 455.24 74.821 456.131 71.7507C457.023 68.6885 457.768 65.8126 458.384 63.123H463.325C462.41 66.7199 461.389 70.2682 460.263 73.7598C459.137 77.2594 457.954 80.6781 456.707 84.0157C455.459 87.3615 454.155 90.5776 452.802 93.6722C451.449 96.7668 450.137 99.6751 448.865 102.413H444.263C442.935 99.6751 441.606 96.7668 440.286 93.6722C438.957 90.5857 437.677 87.3615 436.422 84.0157C435.174 80.67 433.983 77.2513 432.865 73.7598C431.739 70.2601 430.727 66.7199 429.803 63.123H435.044C435.652 65.8126 436.405 68.6885 437.296 71.7507C438.188 74.8129 439.152 77.8589 440.197 80.8725C441.242 83.8861 442.319 86.8025 443.437 89.6136C444.555 92.4247 445.649 94.9198 446.718 97.099H446.71Z" fill="#B80718"/>
<path d="M474.334 51.2711C474.334 52.4376 473.978 53.3612 473.273 54.0417C472.56 54.7221 471.702 55.0705 470.689 55.0705C469.676 55.0705 468.818 54.7302 468.105 54.0417C467.392 53.3612 467.043 52.4295 467.043 51.2711C467.043 50.1126 467.4 49.181 468.105 48.5005C468.818 47.82 469.676 47.4717 470.689 47.4717C471.702 47.4717 472.56 47.8119 473.273 48.5005C473.986 49.181 474.334 50.1126 474.334 51.2711ZM473.2 102.421H468.259V63.1311H473.2V102.421Z" fill="#B80718"/>
<path d="M487.864 63.1229H503.523V67.3031H487.864V88.2039C487.864 90.4317 488.05 92.2463 488.431 93.6397C488.811 95.0331 489.354 96.1106 490.067 96.8721C490.78 97.6336 491.639 98.1358 492.651 98.3951C493.664 98.6462 494.782 98.7758 495.997 98.7758C498.071 98.7758 499.748 98.5328 501.012 98.0548C502.275 97.5769 503.264 97.1313 503.977 96.7262L505.192 100.833C504.479 101.287 503.239 101.814 501.465 102.389C499.691 102.972 497.763 103.264 495.689 103.264C493.259 103.264 491.217 102.948 489.573 102.316C487.928 101.684 486.608 100.72 485.62 99.432C484.631 98.1439 483.935 96.5318 483.529 94.6038C483.124 92.6757 482.922 90.3993 482.922 87.7664V51.587L487.864 50.6797V63.1392V63.1229Z" fill="#B80718"/>
<path d="M520.316 103.256C518.664 100.153 517.068 96.937 515.512 93.5912C513.957 90.2536 512.515 86.8673 511.162 83.4487C509.809 80.03 508.578 76.6113 507.46 73.1927C506.342 69.774 505.378 66.4202 504.576 63.123H509.817C510.376 65.5534 511.081 68.1781 511.94 70.9892C512.798 73.8003 513.771 76.7005 514.864 79.6898C515.95 82.6791 517.157 85.7494 518.469 88.8845C519.782 92.0277 521.224 95.1142 522.779 98.1521C523.905 95.0251 524.91 92.0682 525.776 89.2814C526.643 86.4947 527.453 83.7241 528.199 80.9697C528.944 78.2073 529.657 75.3881 530.353 72.5041C531.042 69.6201 531.747 66.4931 532.468 63.123H537.41C535.757 70.4788 533.902 77.624 531.844 84.5747C529.786 91.5254 527.542 97.8767 525.104 103.628C524.14 105.905 523.152 107.873 522.131 109.518C521.11 111.162 519.984 112.523 518.737 113.585C517.489 114.646 516.039 115.432 514.386 115.942C512.734 116.444 510.789 116.704 508.545 116.704C507.273 116.704 506.115 116.55 505.07 116.25C504.025 115.95 503.377 115.715 503.126 115.569L504.114 111.462C504.317 111.616 504.892 111.827 505.832 112.11C506.771 112.386 507.751 112.532 508.764 112.532C510.182 112.532 511.47 112.378 512.612 112.078C513.754 111.77 514.783 111.252 515.699 110.522C516.614 109.785 517.44 108.837 518.178 107.671C518.915 106.504 519.628 105.038 520.308 103.264L520.316 103.256Z" fill="#B80718"/>
<path d="M266.509 148.84C267.773 148.257 269.483 147.893 270.868 147.893C274.692 147.893 276.279 149.472 276.279 153.183V154.787C276.279 156.05 276.304 157.006 276.328 157.93C276.352 158.878 276.401 159.761 276.474 160.733H273.598C273.476 160.077 273.476 159.242 273.452 158.853H273.403C272.65 160.239 271.014 161.024 269.531 161.024C267.311 161.024 265.148 159.688 265.148 157.298C265.148 155.418 266.048 154.325 267.295 153.717C268.535 153.11 270.147 152.988 271.508 152.988H273.314C273.314 150.963 272.415 150.282 270.487 150.282C269.102 150.282 267.708 150.817 266.615 151.643L266.518 148.84H266.509ZM270.333 158.643C271.33 158.643 272.115 158.205 272.626 157.525C273.16 156.82 273.306 155.913 273.306 154.941H271.889C270.43 154.941 268.259 155.184 268.259 157.112C268.259 158.181 269.158 158.651 270.333 158.651V158.643Z" fill="#87888A"/>
<path d="M284.648 157.761C285.109 157.931 285.596 158.052 286.284 158.052C288.504 158.052 288.504 156.27 288.504 155.055V143.722H291.914V156.683C291.914 158.49 290.748 161.017 287.256 161.017C286.333 161.017 285.604 160.945 284.648 160.702V157.753V157.761Z" fill="#87888A"/>
<path d="M293.591 143.729H297.245L301.603 157.08H301.652L305.962 143.729H309.348L303.621 160.734H299.432L293.583 143.729H293.591Z" fill="#87888A"/>
<path d="M322.942 160.491C321.702 160.782 320.357 161.025 319.069 161.025C313.561 161.025 309.737 158.271 309.737 152.519C309.737 146.767 313.293 143.43 319.069 143.43C320.187 143.43 321.678 143.648 322.917 144.134L322.674 147.01C321.386 146.281 320.212 146.111 318.996 146.111C315.489 146.111 313.293 148.793 313.293 152.276C313.293 155.76 315.44 158.344 319.069 158.344C320.406 158.344 321.994 158.052 322.796 157.639L322.942 160.491Z" fill="#87888A"/>
<path d="M325.21 143.729H328.62V151.037L334.761 143.729H338.949L331.958 151.75L339.241 160.742H334.785L328.669 152.851H328.62V160.742H325.21V143.738V143.729Z" fill="#87888A"/>
<path d="M341.226 143.729H351.263V146.411H344.636V150.599H350.704V153.281H344.636V158.052H351.311V160.734H341.226V143.729Z" fill="#87888A"/>
<path d="M354.366 143.729H358.554L365.035 156.448H365.083V143.729H368.348V160.734H364.184L357.679 148.015H357.63V160.734H354.366V143.729Z" fill="#87888A"/>
<path d="M370.155 143.729H373.735L376.903 157.323H376.952L379.852 143.729H384.477L387.475 157.323H387.523L390.715 143.729H394.029L389.597 160.734H385.215L382.144 147.14H382.096L379.074 160.734H374.667L370.163 143.729H370.155Z" fill="#87888A"/>
<path d="M403.134 143.438C408.473 143.438 411.47 147.042 411.47 152.187C411.47 157.331 408.522 161.033 403.134 161.033C397.747 161.033 394.798 157.404 394.798 152.187C394.798 146.97 397.723 143.438 403.134 143.438ZM403.134 158.343C406.618 158.343 407.906 155.249 407.906 152.179C407.906 149.108 406.521 146.111 403.134 146.111C399.748 146.111 398.355 149.181 398.355 152.179C398.355 155.176 399.643 158.343 403.134 158.343Z" fill="#87888A"/>
<path d="M421.661 143.438C427 143.438 429.997 147.042 429.997 152.187C429.997 157.331 427.048 161.033 421.661 161.033C416.274 161.033 413.325 157.404 413.325 152.187C413.325 146.97 416.25 143.438 421.661 143.438ZM421.661 158.343C425.145 158.343 426.433 155.249 426.433 152.179C426.433 149.108 425.047 146.111 421.661 146.111C418.275 146.111 416.882 149.181 416.882 152.179C416.882 155.176 418.17 158.343 421.661 158.343Z" fill="#87888A"/>
<path d="M432.493 143.729H437.151C442.368 143.729 446.969 145.487 446.969 152.236C446.969 158.984 442.36 160.742 437.151 160.742H432.493V143.738V143.729ZM435.903 158.052H437.807C440.659 158.052 443.413 155.93 443.413 152.228C443.413 148.525 440.659 146.403 437.807 146.403H435.903V158.052Z" fill="#87888A"/>
<path d="M468.753 160.491C467.514 160.782 466.169 161.025 464.881 161.025C459.372 161.025 455.548 158.271 455.548 152.519C455.548 146.767 459.105 143.43 464.881 143.43C465.999 143.43 467.489 143.648 468.729 144.134L468.486 147.01C467.198 146.281 466.023 146.111 464.808 146.111C461.3 146.111 459.105 148.793 459.105 152.276C459.105 155.76 461.251 158.344 464.881 158.344C466.217 158.344 467.805 158.052 468.607 157.639L468.753 160.491Z" fill="#87888A"/>
<path d="M476.481 147.893C480.208 147.893 483.06 150.404 483.06 154.544C483.06 158.149 480.645 161.024 476.481 161.024C472.318 161.024 469.928 158.149 469.928 154.544C469.928 150.404 472.779 147.893 476.481 147.893ZM476.481 158.489C478.993 158.489 479.649 156.245 479.649 154.155C479.649 152.227 478.628 150.428 476.481 150.428C474.335 150.428 473.338 152.283 473.338 154.155C473.338 156.229 473.994 158.489 476.481 158.489Z" fill="#87888A"/>
<path d="M485.328 148.184H488.374V149.942H488.422C489.443 148.411 490.934 147.893 492.149 147.893C493.907 147.893 495.146 148.549 495.851 150.112C496.604 148.605 498.241 147.893 499.772 147.893C502.867 147.893 503.741 150.015 503.741 152.818V160.741H500.477V153.264C500.477 152.097 500.477 150.436 498.597 150.436C496.426 150.436 496.159 153.021 496.159 154.649V160.741H492.894V153.264C492.894 152.097 492.894 150.436 491.015 150.436C488.844 150.436 488.576 153.021 488.576 154.649V160.741H485.312V148.192L485.328 148.184Z" fill="#87888A"/>
<path d="M506.804 148.184H509.923V149.966H509.971C510.7 148.751 511.948 147.893 513.868 147.893C517.716 147.893 519.134 150.963 519.134 154.422C519.134 157.881 517.724 161.024 513.795 161.024C512.41 161.024 511.259 160.684 510.117 159.299H510.068V165.853H506.804V148.184ZM510.093 154.422C510.093 156.204 510.798 158.489 512.969 158.489C515.14 158.489 515.723 156.148 515.723 154.422C515.723 152.697 515.14 150.428 513.017 150.428C510.895 150.428 510.093 152.672 510.093 154.422Z" fill="#87888A"/>
<path d="M522.009 148.84C523.273 148.257 524.983 147.893 526.368 147.893C530.192 147.893 531.779 149.472 531.779 153.183V154.787C531.779 156.05 531.804 157.006 531.828 157.93C531.852 158.878 531.901 159.761 531.974 160.733H529.098C528.976 160.077 528.976 159.242 528.952 158.853H528.903C528.15 160.239 526.514 161.024 525.031 161.024C522.811 161.024 520.648 159.688 520.648 157.298C520.648 155.418 521.548 154.325 522.795 153.717C524.035 153.11 525.647 152.988 527.008 152.988H528.814C528.814 150.963 527.915 150.282 525.987 150.282C524.602 150.282 523.208 150.817 522.115 151.643L522.018 148.84H522.009ZM525.833 158.643C526.83 158.643 527.615 158.205 528.126 157.525C528.66 156.82 528.806 155.913 528.806 154.941H527.389C525.93 154.941 523.759 155.184 523.759 157.112C523.759 158.181 524.658 158.651 525.833 158.651V158.643Z" fill="#87888A"/>
<path d="M534.761 148.185H537.855V149.886H537.904C538.925 148.452 540.318 147.885 542.019 147.885C544.992 147.885 546.28 149.983 546.28 152.81V160.733H543.016V154.033C543.016 152.502 542.991 150.429 540.893 150.429C538.528 150.429 538.017 152.988 538.017 154.592V160.733H534.752V148.185H534.761Z" fill="#87888A"/>
<path d="M554.616 157.347H554.665L557.687 148.185H561L556.293 160.636C555.248 163.415 554.487 166.145 551.076 166.145C550.298 166.145 549.521 166.023 548.759 165.804L548.978 163.39C549.391 163.536 549.853 163.609 550.655 163.609C551.967 163.609 552.777 162.71 552.777 161.365L547.973 148.185H551.578L554.6 157.347H554.616Z" fill="#87888A"/>
</svg>
