<svg width="347" height="110" viewBox="0 0 347 110" fill="none" xmlns="http://www.w3.org/2000/svg">
<path d="M0 0V13.61H25.44V75.01H40.61V13.61H65.94V0H0Z" fill="#003057"/>
<path d="M72.26 0V75.01H127.26V61.4H87.44V40.3H122.77V27.21H87.44V13.61H127.26V0H72.26Z" fill="#003057"/>
<path d="M149.8 13.61H164.73C178.61 13.61 187.59 22.7 187.59 36.78C187.59 51.74 178.62 61.41 164.73 61.41H149.8V13.61ZM193.54 10.64C186.8 3.68 176.94 0 165.04 0H134.62V75.01H164.93C187.8 75.01 203.17 59.6 203.17 36.67C203.17 26.15 199.84 17.15 193.54 10.64Z" fill="#003057"/>
<path d="M328.32 0L309.16 30.93L290.97 0H273.46L300.06 45.07L280.89 75.01H298.74L346.15 0H328.32Z" fill="#003057"/>
<path d="M224.68 13.61H239.61C253.49 13.61 262.47 22.7 262.47 36.78C262.47 51.74 253.5 61.41 239.61 61.41H224.68V13.61ZM268.43 10.64C261.69 3.68 251.83 0 239.93 0H209.51V75.01H239.82C262.69 75.01 278.06 59.6 278.06 36.67C278.06 26.15 274.73 17.15 268.43 10.64Z" fill="#003057"/>
<path d="M273.45 0L308.49 59.58L311.53 54.77L279.32 0H273.45Z" fill="#017A33"/>
<path d="M279.32 0L311.53 54.77L314.57 49.96L285.19 0H279.32Z" fill="white"/>
<path d="M285.19 0L314.57 49.96L317.61 45.15L291.06 0H285.19Z" fill="#DA291C"/>
<path d="M180.73 109.08C174.66 109.08 170.46 105.19 170.46 98.7799C170.46 92.3699 174.63 88.3799 180.76 88.3799C183.16 88.3799 185.97 89.0099 187.74 90.0899L186.51 93.4399C184.77 92.3599 182.78 91.6999 180.82 91.6999C176.9 91.6999 174.34 94.3899 174.34 98.6499C174.34 102.91 176.77 105.82 180.82 105.82C182.21 105.82 183.57 105.47 184.55 105.03V101.24H179.37V97.9899H188.12V107.22C186 108.42 183.22 109.08 180.73 109.08Z" fill="#003057"/>
<path d="M195.08 108.61H191.22V88.8604C191.22 88.8604 198.2 88.8604 198.14 88.8604C203.13 88.8604 205.79 91.2304 205.79 94.8604C205.79 97.6704 204.21 99.6304 201.52 100.55L206.7 108.61H202.31L197.92 101.37L195.08 101.56V108.61ZM197.92 98.4604C200.29 98.3303 201.84 97.2604 201.84 95.1104C201.84 92.9604 200.29 92.0804 197.54 92.0804H195.04V98.5303L197.92 98.4704V98.4604Z" fill="#003057"/>
<path d="M217.83 109.08C211.98 109.08 207.69 105.26 207.69 98.7799C207.69 92.6799 212.02 88.3799 217.87 88.3799C223.72 88.3799 227.98 92.1699 227.98 98.6499C227.98 104.75 223.68 109.08 217.84 109.08H217.83ZM217.77 91.6099C214.01 91.6099 211.58 94.4499 211.58 98.6599C211.58 102.87 214.04 105.87 217.9 105.87C221.76 105.87 224.13 102.99 224.13 98.7899C224.13 94.5899 221.63 91.6199 217.78 91.6199L217.77 91.6099Z" fill="#003057"/>
<path d="M239.41 109.08C234.35 109.08 231.19 106.27 231.19 101.12V88.8604H235.05V100.62C235.05 103.87 236.47 105.71 239.54 105.71C242.29 105.71 243.84 104.19 243.84 100.78C243.84 100.91 243.84 88.8704 243.84 88.8704H247.66V100.78C247.66 106.15 244.66 109.09 239.41 109.09V109.08Z" fill="#003057"/>
<path d="M257.93 102.44L255.69 102.47V108.6H251.83V88.8496H258.21C263.68 88.8496 266.36 91.5996 266.36 95.4496C266.36 99.9996 263.23 102.4 257.92 102.43L257.93 102.44ZM257.96 92.0796H255.62V99.2896L258.08 99.2296C261.02 99.1696 262.5 97.8996 262.5 95.5996C262.5 93.2996 260.98 92.0896 257.95 92.0896L257.96 92.0796Z" fill="#003057"/>
</svg>
