<svg width="26" height="32" viewBox="0 0 26 32" fill="none" xmlns="http://www.w3.org/2000/svg">
<g clip-path="url(#clip0_1_4)">
<path d="M5.06642 9.19582C5.58391 9.19582 6.14429 8.81697 6.51987 8.49992C7.3759 7.77729 8.10886 6.79153 8.75731 5.8837C9.59666 4.70861 10.4978 3.39507 11.0916 2.07829C11.2542 1.71796 11.1709 2.71472 11.1709 2.77859C11.1709 4.96347 11.3138 7.14437 11.3735 9.32795C11.5191 14.6459 11.4088 19.9789 11.4088 25.2983C11.4088 26.7048 11.4088 28.1113 11.4088 29.5177C11.4088 29.7026 11.2539 29.6519 11.1005 29.6499C8.25797 29.613 5.48208 28.6718 2.64399 28.6192C-0.556058 28.56 9.04535 28.6338 12.2456 28.6809C13.3199 28.6967 14.524 28.5555 15.5929 28.7426C15.7879 28.7767 15.9662 28.8571 16.1655 28.8571" stroke="#4BD14B" stroke-width="3" stroke-linecap="round"/>
<path d="M21.4777 29.5706C21.4777 29.0406 21.3713 28.2073 21.9621 27.941C22.253 27.8098 24.2015 27.4666 24.3141 27.8793C24.4322 28.3125 24.2654 28.7953 23.8384 28.954C23.5114 29.0756 22.9047 29.2516 22.9047 28.7382C22.9047 28.675 22.9581 28.1381 22.9796 28.4167C23.0076 28.7816 23.0098 29.1652 22.9091 29.5178C22.8817 29.6138 22.8817 29.3143 22.9091 29.2183C22.9335 29.1328 22.8902 29.5203 22.8254 29.6499" stroke="#4BD14B" stroke-width="3" stroke-linecap="round"/>
</g>
<defs>
<clipPath id="clip0_1_4">
<rect width="26" height="32" fill="white"/>
</clipPath>
</defs>
</svg>
