<svg width="24" height="31" viewBox="0 0 24 31" fill="none" xmlns="http://www.w3.org/2000/svg">
<g clip-path="url(#clip0_2_7)">
<path d="M2 2.09332C3.68907 2.09332 5.37814 2.09332 7.0672 2.09332C8.17134 2.09332 10.0415 1.74765 11.0301 2.38687C12.9021 3.59723 12.5123 7.17796 12.372 8.94977C11.913 14.75 8.59293 19.734 6.23548 24.9132C5.7618 25.9539 5.00568 27.6346 5.29892 28.8342C5.49103 29.6201 8.37683 29.3793 8.8914 29.3793C11.051 29.3793 13.1478 28.9776 15.2656 28.5965C15.8471 28.4919 16.4976 28.2611 17.0968 28.2611" stroke="#4BD14B" stroke-width="3" stroke-linecap="round"/>
<path d="M20.116 25.3674C20.116 25.5911 20.0616 26.2535 20.123 26.0384C20.2389 25.6327 20.6098 25.0662 21.0596 24.997C21.6329 24.9088 22.2677 25.8273 21.8773 25.2416" stroke="#4BD14B" stroke-width="3" stroke-linecap="round"/>
</g>
<defs>
<clipPath id="clip0_2_7">
<rect width="24" height="31" fill="white"/>
</clipPath>
</defs>
</svg>
