<svg width="25" height="30" viewBox="0 0 25 30" fill="none" xmlns="http://www.w3.org/2000/svg">
<g clip-path="url(#clip0_2_10)">
<path d="M4.56722 3.13647C4.54692 3.1094 7.88986 3.18254 8.5788 2.96409C9.39568 2.70508 10.1201 1.8869 11.0077 1.86718C11.7329 1.85106 12.4604 1.86718 13.1858 1.86718C14.4882 1.86718 15.8192 1.79496 17.1191 1.86718C17.3567 1.88038 17.2773 2.42297 17.2288 2.57234C17.0196 3.21582 16.4026 3.84551 15.9673 4.33524C14.8271 5.61801 13.433 6.68687 12.1203 7.78269C10.3104 9.29354 8.71784 10.9738 7.01961 12.6013C6.84233 12.7712 6.76694 12.8942 7.09013 12.8363C8.47558 12.5882 9.82192 12.1525 11.2114 11.9118C12.4704 11.6937 13.743 11.6084 15.0193 11.5984C15.4652 11.5949 16.1135 11.4852 16.5471 11.6297C17.4083 11.9168 17.5087 13.2575 17.5343 13.9881C17.7259 19.4469 13.358 24.3239 7.89714 24.5498C5.49036 24.6494 3.30618 24.7411 2.22452 22.1915C1.74666 21.0651 1.74658 19.4625 1.74658 18.3679" stroke="#4BD14B" stroke-width="3" stroke-linecap="round"/>
<path d="M21.9141 25.4195C23.062 24.9093 23.8082 25.7597 23.3871 26.963C22.9459 28.2234 22.638 26.6244 22.9326 26.297C23.1784 26.0239 23.1834 26.7304 23.1834 26.775C23.1834 27.1743 23.3406 28.0419 22.8386 28.2245C22.1907 28.4601 22.4782 26.622 22.4782 26.2657" stroke="#4BD14B" stroke-width="3" stroke-linecap="round"/>
</g>
<defs>
<clipPath id="clip0_2_10">
<rect width="25" height="30" fill="white"/>
</clipPath>
</defs>
</svg>
