<svg width="19" height="26" viewBox="0 0 19 26" fill="none" xmlns="http://www.w3.org/2000/svg">
<g clip-path="url(#clip0_2_16)">
<path d="M10.8575 2C10.8053 2.52161 10.3815 3.04182 10.1137 3.46817C9.60975 4.27064 9.06727 5.04945 8.54416 5.83946C7.32012 7.688 6.1943 9.60593 5.03311 11.4948C4.90883 11.697 1.66041 16.3322 2.02916 16.4982C2.40718 16.6683 3.15117 16.5175 3.54562 16.5175C4.73772 16.5175 5.93264 16.5416 7.12428 16.5078C9.38138 16.4438 11.5416 16.0429 13.7648 15.7351C14.843 15.5858 15.942 15.6482 17.0296 15.6482" stroke="#4BD14B" stroke-width="3" stroke-linecap="round"/>
<path d="M10.858 11.6494C10.858 14.3266 10.858 17.0037 10.858 19.6809C10.858 20.4971 10.858 21.3133 10.858 22.1294C10.858 22.3424 11.0485 23.8833 10.5972 23.7328" stroke="#4BD14B" stroke-width="3" stroke-linecap="round"/>
<path d="M16.4215 20.3425C16.8979 20.3425 16.8939 20.4878 16.8175 20.98C16.7864 21.1804 16.2826 22.4987 16.3394 21.6755C16.371 21.2169 16.7272 20.4135 17.3198 20.5212C17.6354 20.5786 17.2134 21.1507 17.03 21.2118" stroke="#4BD14B" stroke-width="3" stroke-linecap="round"/>
</g>
<defs>
<clipPath id="clip0_2_16">
<rect width="19" height="26" fill="white"/>
</clipPath>
</defs>
</svg>
