<svg width="25" height="25" viewBox="0 0 25 25" fill="none" xmlns="http://www.w3.org/2000/svg">
<path d="M15.0167 2C13.7027 2 12.3888 2 11.0748 2C10.1921 2 9.30947 2 8.4268 2C7.64233 2 6.87706 2.09089 6.09784 2.17192C5.22929 2.26225 4.37472 2.34982 3.51897 2.52641C3.36031 2.55915 3.21123 2.60684 3.05991 2.66289C2.97866 2.69298 3.00006 2.94255 2.9961 3.01028C2.9013 4.63375 2.86224 6.2633 2.77278 7.88799C2.70903 9.04567 2.60617 10.213 2.60617 11.3726C2.60617 11.5794 2.60617 11.7861 2.60617 11.9929C2.60617 12.0318 2.57539 12.2322 2.61326 12.2659C2.62501 12.2763 2.93722 12.1745 2.94116 12.1737C3.49499 12.0578 4.01423 11.8333 4.54165 11.6331C5.93141 11.1056 7.32169 10.4636 8.78838 10.1886C9.27603 10.0972 9.79358 10.1264 10.2878 10.1354C10.8359 10.1454 11.2114 10.5223 11.5959 10.8763C12.3788 11.5972 12.9946 12.5339 13.2868 13.5633C13.4678 14.2011 13.5691 14.877 13.5792 15.5395C13.588 16.1115 13.6611 16.8197 13.3524 17.3279C12.6875 18.4221 11.3378 19.1565 10.2808 19.7933C9.12711 20.4884 7.70629 20.7692 6.37079 20.7203C5.59039 20.6918 4.88543 20.3724 4.19603 20.0255C3.57089 19.711 3.13178 19.3323 2.7391 18.7512C2.36019 18.1904 2.1114 17.695 2 17.0266" stroke="#4BD14B" stroke-width="3" stroke-linecap="round"/>
<path d="M21.6139 22.1211C21.6139 21.4238 21.6139 20.7265 21.6139 20.0292C21.6139 19.6436 21.5491 19.1851 21.6188 18.8017C21.6512 18.6237 22.3774 18.8533 22.4684 18.893C23.1412 19.1869 23.3216 20.0196 23.1872 20.6837C23.0001 21.6082 22.1863 22.5007 21.194 22.5262C20.9847 22.5315 20.6675 22.4629 20.6457 22.21C20.6172 21.8788 20.9622 21.5727 21.2582 21.4987" stroke="#4BD14B" stroke-width="3" stroke-linecap="round"/>
</svg>
