<svg width="244" height="79" viewBox="0 0 244 79" fill="none" xmlns="http://www.w3.org/2000/svg">
<g clip-path="url(#clip0_2_20)">
<path d="M28.6252 18.817C26.8606 16.8921 24.3154 15.316 21.9301 14.2995C20.2071 13.5653 18.4718 13.3031 16.6078 13.2513C15.1581 13.211 13.5873 13.1783 12.1917 13.6435C10.5615 14.1869 9.32363 15.4498 8.14085 16.6394C6.95498 17.8321 5.80174 19.0779 4.8474 20.4671C2.71194 23.5757 2.36776 27.31 2.25051 31.0035C2.10767 35.5029 3.62672 39.9099 5.74008 43.8391C7.45156 47.0212 9.61387 49.6309 13.2332 50.5883C18.2487 51.9152 23.6924 49.8508 28.2465 47.9644C31.2514 46.7197 34.0569 45.1542 36.4158 42.9194" stroke="#4BD14B" stroke-width="3" stroke-linecap="round"/>
<path d="M36.5377 25.8774C36.5377 30.1687 36.4902 34.4627 36.5377 38.7537C36.5556 40.3765 36.6353 41.988 36.8691 43.5958C37.0084 44.5544 37.1441 45.6992 37.6874 46.5443C38.4909 47.7943 40.39 48.2234 41.7382 48.4176C43.3604 48.6513 44.9768 48.3999 46.2422 47.295C49.3202 44.6075 51.1207 40.7355 51.7065 36.7519C52.3734 32.2167 52.5056 27.5724 52.5654 22.9965C52.6102 19.5672 52.513 16.1555 52.092 12.751C51.6746 9.37553 51.2929 5.54322 49.0217 2.83002C47.6818 1.2293 45.2193 1.4784 44.0849 3.16816C42.9526 4.85483 42.328 7.02517 42.0155 9.01116C41.542 12.0209 41.0393 15.0401 40.6359 18.0597C40.1598 21.6235 40.0678 25.1447 40.0678 28.7313C40.0678 29.027 39.9928 30.9058 40.3113 30.7466" stroke="#4BD14B" stroke-width="3" stroke-linecap="round"/>
<path d="M78.0471 24.0514C78.0471 20.0116 78.1996 15.9391 77.9456 11.9056C77.8196 9.9037 77.6696 7.45023 76.3834 5.79206C75.2398 4.31759 72.8785 3.36224 71.0138 3.50626C69.5297 3.62089 68.3608 4.85555 67.5919 6.022C66.5655 7.57888 66.3073 9.50361 66.2055 11.324C65.9357 16.1504 69.9125 20.0409 72.1499 23.9838C75.9854 30.7429 78.5438 38.2695 79.3455 45.9965C79.6734 49.1568 79.7361 52.3073 79.0547 55.4305C78.5068 57.9417 77.547 60.1168 75.0715 61.1653C73.4346 61.8586 71.4513 61.9454 69.7154 61.6523C67.6915 61.3105 66.6392 59.9362 65.935 58.1018C64.6266 54.6936 64.1699 51.047 64.1699 47.4235" stroke="#4BD14B" stroke-width="3" stroke-linecap="round"/>
<path d="M85.4726 12.8523C85.2529 12.9072 85.3509 13.4671 85.3509 13.5894C85.3509 15.4131 85.3509 17.2368 85.3509 19.0605C85.3509 20.4039 85.3583 21.7476 85.3509 23.0911C85.3474 23.717 85.3798 24.3587 85.1074 24.9035" stroke="#4BD14B" stroke-width="3" stroke-linecap="round"/>
<path d="M93.75 14.9218C93.75 19.9262 93.75 24.9306 93.75 29.935C93.75 32.8051 93.6995 35.681 93.75 38.5507C93.7871 40.6584 94.1204 42.9186 95.9344 44.245C97.0142 45.0345 98.3241 45.2953 99.62 45.5299C102.215 45.9995 104.86 46.2647 107.492 46.3955C110.34 46.537 113.255 46.5357 116.067 46.0168C116.476 45.9413 118.9 45.693 119.191 45.1106" stroke="#4BD14B" stroke-width="3" stroke-linecap="round"/>
<path d="M92.4111 29.5293H106.897" stroke="#4BD14B" stroke-width="3" stroke-linecap="round"/>
<path d="M96.063 16.5042C101.971 16.5042 107.88 16.5042 113.788 16.5042C115.06 16.5042 116.331 16.5042 117.602 16.5042C117.785 16.5042 117.318 16.6108 117.251 16.6192C117.088 16.6396 116.907 16.6306 116.743 16.626C114.355 16.5577 111.943 16.0342 109.561 15.8415C103.53 15.3533 97.5112 15.1778 91.4643 15.1652C90.0352 15.1622 88.5726 15.2439 87.1768 14.9218" stroke="#4BD14B" stroke-width="3" stroke-linecap="round"/>
<path d="M112.984 11.6351C110.963 9.47012 109.307 6.90886 107.499 4.56799C106.947 3.85359 106.375 3.15341 105.842 2.42421C105.692 2.21807 105.183 1.66046 105.396 1.80204C106.566 2.58188 107.707 3.39676 108.845 4.2231C109.845 4.94924 110.946 5.55429 111.915 6.31954C113.27 7.38881 114.455 8.74736 115.466 10.1473C115.749 10.5395 115.235 9.86922 115.148 9.78206C114.795 9.42892 114.174 9.02439 113.957 8.59182" stroke="#4BD14B" stroke-width="3" stroke-linecap="round"/>
<path d="M122.479 38.2938C122.479 35.4805 122.479 32.6672 122.479 29.8539C122.479 26.6553 122.213 23.3153 122.837 20.1561C123.058 19.0369 123.317 17.9992 123.696 16.9236C123.833 16.5345 124.45 14.6783 124.913 14.6783C125.03 14.6783 125.108 14.7604 125.211 14.8001C126.226 15.1904 127.385 15.2989 128.443 15.5237C128.865 15.6132 131.409 15.8782 131.48 16.5178C132.066 21.7954 134.02 26.6983 135.869 31.6663C136.632 33.7188 137.442 35.7526 138.236 37.7933C138.514 38.5097 139.001 36.0814 139.061 35.9133C141.031 30.3642 143.784 25.1502 146.878 20.1561C149.492 15.9392 152.255 11.7943 154.615 7.42867C154.779 7.12458 154.737 8.19167 154.737 8.25372C154.737 9.21915 154.872 10.1629 154.98 11.1211C155.306 14.0066 155.544 16.9032 155.771 19.7977C156.329 26.8846 157.102 33.9937 157.171 41.1071C157.181 42.0401 157.171 42.9737 157.171 43.9069C157.171 44.2435 157.149 44.181 156.928 44.0151" stroke="#4BD14B" stroke-width="3" stroke-linecap="round"/>
<path d="M158.51 18.0867C158.51 19.5836 158.51 21.0804 158.51 22.5772C158.51 27.3074 158.225 31.9992 159.687 36.5625C160.612 39.451 161.671 42.4452 163.163 45.0971C164.085 46.735 165.425 48.9381 167.153 49.831C167.886 50.2099 168.757 50.3588 169.574 50.3179C170.837 50.2548 171.449 49.2502 172.225 48.3635C173.403 47.0176 174.347 45.7361 174.849 43.988C175.791 40.7096 176.08 37.2862 176.141 33.8912C176.248 27.9226 176.161 21.9464 176.161 15.9768C176.161 15.6949 176.166 16.5407 176.181 16.8221C176.365 20.1988 176.998 23.5062 177.649 26.8174C179.365 35.5491 180.707 44.3277 181.882 53.1448" stroke="#4BD14B" stroke-width="3" stroke-linecap="round"/>
<path d="M189.186 51.0753C189.186 44.5042 189.186 37.933 189.186 31.3619C189.186 28.8725 189.095 26.3616 189.24 23.8756C189.325 22.4132 189.805 21.0742 190.038 19.6421C190.509 16.7433 190.742 13.8206 192.479 11.351C193.578 9.78815 194.535 9.31092 196.456 9.09898C197.541 8.97922 198.664 8.90603 199.756 8.97725C200.932 9.05393 201.775 9.65999 202.644 10.4245C204.818 12.3374 206.13 14.7398 206.837 17.5321C207.792 21.3073 208.171 25.26 208.027 29.1505C207.914 32.1851 207.09 35.024 205.795 37.7527C204.562 40.3522 203.228 43.2748 201.041 45.2187C197.484 48.38 192.935 50.053 188.537 51.6298C187.712 51.9255 186.972 52.3813 186.143 52.6578" stroke="#4BD14B" stroke-width="3" stroke-linecap="round"/>
<path d="M219.862 23.0776C219.862 21.5101 219.822 19.9369 219.889 18.3707C219.988 16.0574 220.441 13.8094 221.85 11.9123C223.981 9.04414 227.245 6.15423 230.655 4.93315C232.366 4.3206 234.204 4.1552 236.011 4.26364C237.601 4.35902 238.412 4.98121 239.257 6.29246C241.979 10.5141 242.788 14.928 242.301 19.9194C241.935 23.6701 240.925 27.0605 239.041 30.3272C236.853 34.1204 233.998 37.5451 231.108 40.8162C228.991 43.2128 226.832 45.5757 224.69 47.9509C223.298 49.4949 221.501 51.0448 220.985 53.1447C220.312 55.8767 221.008 58.4726 222.175 60.9354C222.335 61.274 223.461 62.883 222.783 62.883" stroke="#4BD14B" stroke-width="3" stroke-linecap="round"/>
<path d="M224.682 70.5363C224.718 70.1386 224.902 69.9114 225.315 69.8694C225.691 69.8313 226.706 69.6868 227.004 70.0129C227.741 70.8221 226.971 72.6369 226.404 73.2967C225.174 74.7276 223.04 75.3135 221.225 75.4408C220.983 75.4578 220.296 75.4601 220.373 75.0356C220.481 74.4407 221.137 74.1633 221.66 74.048C221.866 74.0027 222.597 73.8627 222.766 74.0649C222.843 74.1578 222.724 74.3095 222.825 74.1071C223.002 73.7536 224.141 73.8201 224.458 73.8201C224.996 73.8201 225.611 73.9809 225.91 74.4743C225.933 74.5119 226.021 74.8722 225.864 74.7824C225.578 74.6189 226.038 74.0941 226.185 74.0311C227.303 73.5495 228.701 73.5839 229.891 73.5753C230.663 73.5697 231.007 73.6259 230.785 74.5038C230.541 75.4704 229.806 76.5279 228.764 76.6944C228.151 76.7922 227.454 76.7361 226.877 76.496C226.003 76.132 225.839 75.3966 225.442 74.6389" stroke="#4BD14B" stroke-width="3" stroke-linecap="round"/>
</g>
<defs>
<clipPath id="clip0_2_20">
<rect width="244" height="79" fill="white"/>
</clipPath>
</defs>
</svg>
