<svg width="54" height="20" viewBox="0 0 54 20" fill="none" xmlns="http://www.w3.org/2000/svg">
<path fill-rule="evenodd" clip-rule="evenodd" d="M1.52133 0.973877H2.88292H5.52988H6.63139L6.86144 2.0511L9.97573 16.6341H10.3396L13.5355 2.04412L13.7699 0.973877H14.8655H17.51H18.8715V0.999202H19.3117V19.2903H16.4183V19.2903H16.1484V3.90838H15.9148L12.7653 18.287L12.5309 19.3573H11.4352H8.87422H7.7727L7.54266 18.28L4.4735 3.90838L4.2445 3.90838V19.2903H3.87506V19.2903H0.981689V0.999202H1.52133V0.973877Z" fill="black"/>
<path d="M38.0913 19.3769V1H44.3742C47.5902 1 49.9198 1.8089 51.363 3.4267C52.8063 5.02879 53.5279 7.28271 53.5279 10.1885C53.5279 13.0942 52.8063 15.356 51.363 16.9738C49.9198 18.5759 47.5902 19.3769 44.3742 19.3769H38.0913ZM41.4092 16.7382H44.1389C45.5194 16.7382 46.6489 16.5183 47.5274 16.0785C48.4216 15.6387 49.0805 14.9398 49.504 13.9816C49.9276 13.0235 50.1394 11.7591 50.1394 10.1885C50.1394 8.61778 49.9276 7.35339 49.504 6.39527C49.0805 5.43716 48.4216 4.73821 47.5274 4.29842C46.6489 3.85863 45.5194 3.63874 44.1389 3.63874H41.4092V16.7382Z" fill="black"/>
<path d="M25.6777 19.7429C24.005 19.7429 22.7708 19.1947 21.9751 18.0982C21.1794 17.0018 20.7815 15.5627 20.7815 13.781V3.93872H24.07V13.1385C24.07 14.3206 24.273 15.2372 24.679 15.8882C25.085 16.5392 25.7264 16.8647 26.6034 16.8647C27.6914 16.8647 28.5277 16.4193 29.1124 15.5284C29.697 14.6376 29.9893 13.5497 29.9893 12.2648V3.93872H33.2778V19.3574H30.3303V17.0446H29.7457C29.4859 17.8498 29.023 18.5008 28.3572 18.9976C27.6914 19.4945 26.7982 19.7429 25.6777 19.7429Z" fill="black"/>
<path d="M35.5185 19.3763C35.0344 19.3763 34.6624 19.2464 34.4026 18.9867C34.1428 18.7151 34.0129 18.3549 34.0129 17.9062C34.0129 17.4457 34.1428 17.0855 34.4026 16.8257C34.6624 16.5659 35.0344 16.436 35.5185 16.436C36.0027 16.436 36.3687 16.5659 36.6167 16.8257C36.8647 17.0855 36.9887 17.4457 36.9887 17.9062C36.9887 18.3549 36.8647 18.7151 36.6167 18.9867C36.3687 19.2464 36.0027 19.3763 35.5185 19.3763Z" fill="black"/>
</svg>
