<svg width="958" height="199" viewBox="0 0 958 199" fill="none" xmlns="http://www.w3.org/2000/svg">
<path fill-rule="evenodd" clip-rule="evenodd" d="M6.44257 0.735107H20.6662H48.3175H59.8243L62.2275 11.9882L94.7606 164.328H98.562L131.947 11.9153L134.396 0.735107H145.841H173.466H187.69V1.00058H192.29V192.077H162.065V192.075H159.242V31.3815H156.805L123.901 181.595L121.453 192.775H110.007H83.2538H71.7469L69.3438 181.522L37.2802 31.3815L34.8899 31.3815V192.075H31.03V192.077H0.804688V1.00058H6.44257V0.735107Z" fill="black"/>
<path d="M388.473 192.973V1H454.106C487.701 1 512.038 9.45008 527.114 26.3502C542.191 43.0863 549.73 66.6317 549.73 96.9863C549.73 127.341 542.191 150.968 527.114 167.869C512.038 184.605 487.701 192.973 454.106 192.973H388.473ZM423.133 165.407H451.648C466.069 165.407 477.869 163.11 487.046 158.516C496.387 153.922 503.27 146.62 507.695 136.611C512.119 126.603 514.332 113.394 514.332 96.9863C514.332 80.5784 512.119 67.37 507.695 57.3612C503.27 47.3524 496.387 40.0509 487.046 35.4566C477.869 30.8624 466.069 28.5653 451.648 28.5653H423.133V165.407Z" fill="black"/>
<path d="M258.795 196.821C241.322 196.821 228.429 191.094 220.116 179.64C211.804 168.186 207.647 153.153 207.647 134.541V31.7246H242V127.83C242 140.178 244.121 149.753 248.362 156.554C252.603 163.354 259.304 166.755 268.465 166.755C279.831 166.755 288.568 162.102 294.675 152.795C300.782 143.489 303.836 132.125 303.836 118.702V31.7246H338.189V192.794H307.398V168.634H301.291C298.577 177.045 293.742 183.846 286.787 189.036C279.831 194.226 270.501 196.821 258.795 196.821Z" fill="black"/>
<path d="M361.597 192.977C356.539 192.977 352.653 191.62 349.939 188.906C347.226 186.069 345.869 182.306 345.869 177.619C345.869 172.808 347.226 169.046 349.939 166.332C352.653 163.618 356.539 162.261 361.597 162.261C366.654 162.261 370.478 163.618 373.069 166.332C375.659 169.046 376.954 172.808 376.954 177.619C376.954 182.306 375.659 186.069 373.069 188.906C370.478 191.62 366.654 192.977 361.597 192.977Z" fill="black"/>
<path d="M574.448 53.8359V4.88422H590.137L601.183 46.8697H603.066L614.237 4.88422H629.926V53.8359H621.517V12.227H619.948L609.09 53.8359H594.719L583.862 12.227H582.293V53.8359H574.448ZM638.964 53.8359V4.88422H647.75V53.8359H638.964ZM656.821 53.8359V4.88422H665.608V46.7442H687.385V53.8359H656.821ZM688.514 53.8359V53.4594L703.828 4.88422H717.76L733.136 53.4594V53.8359H724.036L711.296 11.7249H709.79L696.924 53.8359H688.514ZM699.811 40.5939L701.882 33.6904H719.141L721.212 40.5939H699.811ZM737.577 53.8359V4.88422H753.078L770.4 46.8697H771.906V4.88422H779.876V53.8359H764.312L747.054 11.8504H745.547V53.8359H737.577ZM808.509 54.7146C803.446 54.7146 799.221 53.6895 795.832 51.6394C792.485 49.5474 789.974 46.5978 788.301 42.7904C786.669 38.9831 785.853 34.5063 785.853 29.3601C785.853 24.172 786.669 19.6953 788.301 15.9297C789.974 12.1224 792.485 9.19365 795.832 7.14354C799.221 5.05158 803.446 4.0056 808.509 4.0056C813.655 4.0056 817.902 5.05158 821.249 7.14354C824.596 9.19365 827.085 12.1224 828.717 15.9297C830.391 19.6953 831.228 24.172 831.228 29.3601C831.228 34.5063 830.391 38.9831 828.717 42.7904C827.085 46.5978 824.596 49.5474 821.249 51.6394C817.902 53.6895 813.655 54.7146 808.509 54.7146ZM808.509 47.9366C813.195 47.9366 816.647 46.3258 818.864 43.1042C821.082 39.8408 822.19 35.2594 822.19 29.3601C822.19 23.4608 821.082 18.9003 818.864 15.6787C816.647 12.4153 813.195 10.7835 808.509 10.7835C803.865 10.7835 800.434 12.4153 798.216 15.6787C795.999 18.9003 794.89 23.4608 794.89 29.3601C794.89 35.2594 795.999 39.8408 798.216 43.1042C800.434 46.3258 803.865 47.9366 808.509 47.9366ZM594.028 126.777C587.125 126.777 582.021 124.957 578.715 121.317C575.452 117.635 573.82 112.385 573.82 105.565V76.8842H582.732V105.565C582.732 110.209 583.61 113.703 585.368 116.046C587.125 118.389 590.054 119.56 594.154 119.56C598.254 119.56 601.162 118.389 602.877 116.046C604.635 113.703 605.513 110.209 605.513 105.565V76.8842H614.174V105.565C614.174 112.385 612.542 117.635 609.279 121.317C606.057 124.957 600.974 126.777 594.028 126.777ZM622.511 125.836V76.8842H638.012L655.334 118.87H656.84V76.8842H664.81V125.836H649.246L631.988 83.8504H630.481V125.836H622.511ZM673.862 125.836V76.8842H682.648V125.836H673.862ZM702.452 125.836L687.264 77.2608V76.8842H696.301L709.167 118.305H710.673L723.35 76.8842H731.886V77.2608L716.698 125.836H702.452ZM736.327 125.836V76.8842H768.71V83.9759H745.05V96.2766H763.501V102.992H745.05V118.744H769.087V125.836H736.327ZM775.932 125.836V76.8842H795.45C799.634 76.8842 803.002 77.4909 805.554 78.7042C808.107 79.8757 809.968 81.4656 811.14 83.4739C812.353 85.4822 812.96 87.7833 812.96 90.3773C812.96 93.5153 812.102 96.193 810.387 98.4104C808.671 100.628 806.161 102.176 802.856 103.055L814.278 125.459V125.836H804.99L794.258 104.31H784.593V125.836H775.932ZM784.593 97.7201H794.509C797.73 97.7201 800.115 97.1553 801.663 96.0256C803.211 94.8959 803.985 93.1178 803.985 90.6911C803.985 88.2226 803.19 86.4445 801.601 85.3566C800.053 84.227 797.689 83.6622 794.509 83.6622H784.593V97.7201ZM836.673 126.777C833.158 126.777 830.146 126.296 827.636 125.334C825.125 124.372 823.054 123.095 821.422 121.506C819.791 119.874 818.556 118.033 817.72 115.983C816.883 113.933 816.402 111.841 816.276 109.707H824.56C824.686 111.381 825.209 113.012 826.129 114.602C827.05 116.192 828.41 117.489 830.209 118.493C832.008 119.497 834.267 119.999 836.987 119.999C839.915 119.999 842.154 119.372 843.702 118.117C845.292 116.861 846.087 115.167 846.087 113.033C846.087 110.983 845.354 109.372 843.89 108.201C842.468 106.987 840.627 106.004 838.367 105.251L832.468 103.306C830.125 102.511 827.887 101.569 825.753 100.481C823.661 99.3936 821.925 97.9711 820.544 96.2139C819.205 94.4148 818.536 92.0927 818.536 89.2477C818.536 86.4026 819.226 83.9969 820.607 82.0304C822.029 80.064 823.996 78.5578 826.506 77.5118C829.016 76.4658 831.903 75.9428 835.167 75.9428C839.267 75.9428 842.551 76.6541 845.02 78.0766C847.53 79.4992 849.371 81.3192 850.542 83.5366C851.756 85.7541 852.467 88.1389 852.676 90.6911H844.392C844.267 89.3523 843.869 88.0762 843.2 86.8628C842.572 85.6077 841.589 84.6035 840.25 83.8504C838.911 83.0555 837.112 82.658 834.853 82.658C832.342 82.658 830.397 83.2019 829.016 84.2897C827.677 85.3776 827.008 86.8001 827.008 88.5573C827.008 90.5238 827.761 92.0718 829.267 93.2015C830.773 94.2893 832.656 95.2097 834.916 95.9628L840.878 97.9084C843.221 98.6615 845.417 99.6028 847.467 100.732C849.559 101.82 851.254 103.285 852.551 105.126C853.89 106.925 854.559 109.33 854.559 112.343C854.559 116.861 852.969 120.397 849.789 122.949C846.61 125.501 842.237 126.777 836.673 126.777ZM861.226 125.836V76.8842H870.012V125.836H861.226ZM891.134 125.836V83.9759H875.758V76.8842H915.296V83.9759H899.92V125.836H891.134ZM932.004 125.836V105.126L916.252 77.2608V76.8842H925.917L933.071 89.687C933.657 90.6493 934.201 91.6743 934.703 92.7622C935.205 93.8081 935.728 95.0215 936.272 96.4022H937.652C938.238 95.0215 938.782 93.8081 939.284 92.7622C939.786 91.6743 940.309 90.6493 940.853 89.687L947.819 76.8842H956.543V77.2608L940.79 105.251V125.836H932.004ZM574.448 197.836V148.884H591.204C599.781 148.884 605.994 151.039 609.844 155.348C613.693 159.616 615.617 165.62 615.617 173.36C615.617 181.1 613.693 187.125 609.844 191.435C605.994 195.702 599.781 197.836 591.204 197.836H574.448ZM583.297 190.807H590.577C594.259 190.807 597.271 190.221 599.614 189.05C601.999 187.878 603.756 186.016 604.886 183.464C606.015 180.912 606.58 177.544 606.58 173.36C606.58 169.176 606.015 165.808 604.886 163.256C603.756 160.704 601.999 158.842 599.614 157.67C597.271 156.499 594.259 155.913 590.577 155.913H583.297V190.807ZM621.68 197.836V148.884H630.467V197.836H621.68ZM656.922 198.777C653.408 198.777 650.395 198.296 647.885 197.334C645.375 196.372 643.304 195.095 641.672 193.506C640.04 191.874 638.806 190.033 637.969 187.983C637.132 185.933 636.651 183.841 636.526 181.707H644.81C644.935 183.381 645.458 185.012 646.379 186.602C647.299 188.192 648.659 189.489 650.458 190.493C652.257 191.497 654.517 191.999 657.236 191.999C660.165 191.999 662.403 191.372 663.951 190.117C665.541 188.861 666.336 187.167 666.336 185.033C666.336 182.983 665.604 181.372 664.14 180.201C662.717 178.987 660.876 178.004 658.617 177.251L652.718 175.306C650.375 174.511 648.136 173.569 646.002 172.481C643.91 171.394 642.174 169.971 640.793 168.214C639.455 166.415 638.785 164.093 638.785 161.248C638.785 158.403 639.475 155.997 640.856 154.03C642.279 152.064 644.245 150.558 646.755 149.512C649.266 148.466 652.153 147.943 655.416 147.943C659.516 147.943 662.801 148.654 665.269 150.077C667.78 151.499 669.621 153.319 670.792 155.537C672.005 157.754 672.717 160.139 672.926 162.691H664.642C664.516 161.352 664.119 160.076 663.449 158.863C662.822 157.608 661.838 156.604 660.5 155.85C659.161 155.055 657.362 154.658 655.102 154.658C652.592 154.658 650.646 155.202 649.266 156.29C647.927 157.378 647.258 158.8 647.258 160.557C647.258 162.524 648.011 164.072 649.517 165.201C651.023 166.289 652.906 167.21 655.165 167.963L661.127 169.908C663.47 170.661 665.667 171.603 667.717 172.732C669.809 173.82 671.503 175.285 672.8 177.126C674.139 178.925 674.809 181.33 674.809 184.343C674.809 188.861 673.219 192.397 670.039 194.949C666.859 197.501 662.487 198.777 656.922 198.777ZM688.987 197.836V155.976H673.611V148.884H713.149V155.976H697.773V197.836H688.987ZM718.749 197.836V148.884H738.267C742.451 148.884 745.819 149.491 748.371 150.704C750.924 151.876 752.785 153.466 753.957 155.474C755.17 157.482 755.777 159.783 755.777 162.377C755.777 165.515 754.919 168.193 753.204 170.41C751.488 172.628 748.978 174.176 745.673 175.055L757.095 197.459V197.836H747.807L737.075 176.31H727.41V197.836H718.749ZM727.41 169.72H737.326C740.548 169.72 742.932 169.155 744.48 168.026C746.028 166.896 746.802 165.118 746.802 162.691C746.802 160.223 746.008 158.444 744.418 157.357C742.87 156.227 740.506 155.662 737.326 155.662H727.41V169.72ZM762.231 197.836V148.884H771.017V197.836H762.231ZM799.105 198.777C792.16 198.777 786.762 196.539 782.913 192.062C779.064 187.585 777.139 181.351 777.139 173.36C777.139 165.369 779.043 159.135 782.85 154.658C786.7 150.181 792.097 147.943 799.042 147.943C803.142 147.943 806.678 148.717 809.648 150.265C812.619 151.813 814.941 153.968 816.615 156.729C818.33 159.49 819.355 162.691 819.69 166.331H810.841C810.464 162.775 809.23 159.951 807.138 157.859C805.088 155.767 802.389 154.721 799.042 154.721C794.858 154.721 791.658 156.353 789.44 159.616C787.264 162.879 786.177 167.482 786.177 173.423C786.177 179.448 787.285 184.05 789.503 187.23C791.762 190.41 794.921 191.999 798.979 191.999C802.494 191.999 805.276 190.912 807.326 188.736C809.376 186.56 810.548 183.778 810.841 180.389H819.69C819.355 183.987 818.33 187.188 816.615 189.991C814.941 192.752 812.619 194.907 809.648 196.455C806.72 198.003 803.205 198.777 799.105 198.777ZM835.495 197.836V155.976H820.119V148.884H859.657V155.976H844.281V197.836H835.495Z" fill="black"/>
</svg>
