<svg width="379" height="239" viewBox="0 0 379 239" fill="none" xmlns="http://www.w3.org/2000/svg">
<path fill-rule="evenodd" clip-rule="evenodd" d="M4.74547 0.817139H14.5335H33.5616H41.48L43.1338 8.56094L65.5214 113.393H68.1373L91.1112 8.51078L92.7965 0.817139H100.673H119.683H129.471V0.998863H132.636V132.488H111.837V132.488H109.895V21.9047H108.217L85.5746 125.276L83.8894 132.969H76.0133H57.603H49.6846L48.0308 125.226L25.966 21.9047L24.3215 21.9047V132.488H21.6652V132.488H0.865723V0.998863H4.74547V0.817139Z" fill="black"/>
<path d="M267.639 133.106V1.00049H312.804C335.923 1.00049 352.67 6.8154 363.045 18.4452C373.42 29.9621 378.607 46.1648 378.607 67.0533C378.607 87.9418 373.42 104.201 363.045 115.831C352.67 127.348 335.923 133.106 312.804 133.106H267.639ZM291.49 114.137H311.113C321.037 114.137 329.156 112.556 335.472 109.395C341.9 106.233 346.636 101.209 349.681 94.3213C352.726 87.4337 354.248 78.3444 354.248 67.0533C354.248 55.7622 352.726 46.6729 349.681 39.7854C346.636 32.8978 341.9 27.8733 335.472 24.7118C329.156 21.5503 321.037 19.9695 311.113 19.9695H291.49V114.137Z" fill="black"/>
<path d="M178.401 135.754C166.377 135.754 157.505 131.813 151.785 123.931C146.064 116.049 143.204 105.704 143.204 92.8959V22.1431H166.844V88.2775C166.844 96.7753 168.303 103.364 171.222 108.044C174.14 112.724 178.752 115.064 185.056 115.064C192.877 115.064 198.889 111.862 203.092 105.458C207.295 99.0536 209.396 91.2333 209.396 81.9966V22.1431H233.036V132.983H211.848V116.357H207.645C205.777 122.145 202.45 126.825 197.664 130.397C192.877 133.968 186.456 135.754 178.401 135.754Z" fill="black"/>
<path d="M249.144 133.107C245.664 133.107 242.99 132.174 241.122 130.306C239.255 128.354 238.321 125.765 238.321 122.539C238.321 119.228 239.255 116.639 241.122 114.772C242.99 112.904 245.664 111.97 249.144 111.97C252.624 111.97 255.256 112.904 257.038 114.772C258.821 116.639 259.712 119.228 259.712 122.539C259.712 125.765 258.821 128.354 257.038 130.306C255.256 132.174 252.624 133.107 249.144 133.107Z" fill="black"/>
<path d="M170.5 169.888V146.392H178.031L183.332 166.544H184.236L189.598 146.392H197.128V169.888H193.092V149.917H192.339L187.128 169.888H180.23L175.018 149.917H174.265V169.888H170.5ZM201.466 169.888V146.392H205.683V169.888H201.466ZM210.037 169.888V146.392H214.254V166.484H224.706V169.888H210.037ZM225.248 169.888V169.707L232.598 146.392H239.285L246.665 169.707V169.888H242.297L236.183 149.676H235.46L229.285 169.888H225.248ZM230.67 163.532L231.664 160.219H239.948L240.942 163.532H230.67ZM248.797 169.888V146.392H256.237L264.551 166.544H265.274V146.392H269.099V169.888H261.629L253.345 149.736H252.622V169.888H248.797ZM282.842 170.309C280.412 170.309 278.384 169.817 276.757 168.833C275.151 167.829 273.946 166.414 273.142 164.586C272.359 162.759 271.968 160.61 271.968 158.14C271.968 155.65 272.359 153.501 273.142 151.694C273.946 149.867 275.151 148.461 276.757 147.477C278.384 146.473 280.412 145.971 282.842 145.971C285.312 145.971 287.35 146.473 288.957 147.477C290.563 148.461 291.758 149.867 292.541 151.694C293.344 153.501 293.746 155.65 293.746 158.14C293.746 160.61 293.344 162.759 292.541 164.586C291.758 166.414 290.563 167.829 288.957 168.833C287.35 169.817 285.312 170.309 282.842 170.309ZM282.842 167.056C285.091 167.056 286.748 166.283 287.812 164.737C288.876 163.17 289.408 160.972 289.408 158.14C289.408 155.309 288.876 153.12 287.812 151.573C286.748 150.007 285.091 149.224 282.842 149.224C280.613 149.224 278.966 150.007 277.902 151.573C276.837 153.12 276.305 155.309 276.305 158.14C276.305 160.972 276.837 163.17 277.902 164.737C278.966 166.283 280.613 167.056 282.842 167.056ZM179.898 204.34C176.585 204.34 174.135 203.466 172.548 201.719C170.982 199.952 170.199 197.432 170.199 194.158V180.392H174.476V194.158C174.476 196.387 174.898 198.064 175.741 199.189C176.585 200.313 177.99 200.875 179.958 200.875C181.926 200.875 183.322 200.313 184.145 199.189C184.989 198.064 185.411 196.387 185.411 194.158V180.392H189.567V194.158C189.567 197.432 188.784 199.952 187.218 201.719C185.672 203.466 183.232 204.34 179.898 204.34ZM193.569 203.888V180.392H201.009L209.323 200.544H210.046V180.392H213.871V203.888H206.401L198.117 183.736H197.394V203.888H193.569ZM218.216 203.888V180.392H222.433V203.888H218.216ZM231.938 203.888L224.648 180.573V180.392H228.986L235.161 200.273H235.884L241.968 180.392H246.065V180.573L238.776 203.888H231.938ZM248.197 203.888V180.392H263.74V183.796H252.384V189.7H261.24V192.923H252.384V200.484H263.92V203.888H248.197ZM267.206 203.888V180.392H276.574C278.582 180.392 280.199 180.684 281.424 181.266C282.649 181.828 283.542 182.591 284.105 183.555C284.687 184.519 284.978 185.624 284.978 186.869C284.978 188.375 284.566 189.66 283.743 190.724C282.92 191.789 281.715 192.532 280.128 192.953L285.611 203.707V203.888H281.153L276.002 193.556H271.363V203.888H267.206ZM271.363 190.393H276.122C277.668 190.393 278.813 190.122 279.556 189.58C280.299 189.038 280.671 188.184 280.671 187.019C280.671 185.835 280.289 184.981 279.526 184.459C278.783 183.917 277.648 183.646 276.122 183.646H271.363V190.393ZM296.36 204.34C294.673 204.34 293.227 204.109 292.022 203.647C290.817 203.185 289.823 202.572 289.04 201.809C288.257 201.026 287.664 200.143 287.263 199.159C286.861 198.175 286.63 197.17 286.57 196.146H290.546C290.606 196.95 290.857 197.733 291.299 198.496C291.741 199.259 292.393 199.881 293.257 200.363C294.12 200.845 295.205 201.086 296.51 201.086C297.916 201.086 298.99 200.785 299.733 200.183C300.496 199.58 300.878 198.767 300.878 197.743C300.878 196.759 300.526 195.986 299.824 195.423C299.141 194.841 298.257 194.369 297.173 194.008L294.341 193.074C293.217 192.692 292.142 192.24 291.118 191.718C290.114 191.196 289.281 190.513 288.618 189.67C287.976 188.807 287.654 187.692 287.654 186.327C287.654 184.961 287.986 183.806 288.648 182.862C289.331 181.919 290.275 181.196 291.48 180.694C292.685 180.192 294.07 179.941 295.637 179.941C297.605 179.941 299.181 180.282 300.366 180.965C301.571 181.648 302.454 182.521 303.017 183.585C303.599 184.65 303.94 185.794 304.041 187.019H300.065C300.004 186.377 299.814 185.764 299.492 185.182C299.191 184.579 298.719 184.097 298.076 183.736C297.434 183.354 296.57 183.164 295.486 183.164C294.281 183.164 293.347 183.425 292.685 183.947C292.042 184.469 291.721 185.152 291.721 185.995C291.721 186.939 292.082 187.682 292.805 188.224C293.528 188.746 294.432 189.188 295.516 189.55L298.378 190.483C299.502 190.845 300.557 191.297 301.541 191.839C302.545 192.361 303.358 193.064 303.98 193.947C304.623 194.811 304.944 195.966 304.944 197.411C304.944 199.58 304.181 201.277 302.655 202.502C301.129 203.727 299.03 204.34 296.36 204.34ZM308.144 203.888V180.392H312.361V203.888H308.144ZM322.499 203.888V183.796H315.119V180.392H334.096V183.796H326.716V203.888H322.499ZM342.115 203.888V193.947L334.555 180.573V180.392H339.194L342.627 186.537C342.909 186.999 343.17 187.491 343.411 188.013C343.652 188.515 343.903 189.098 344.164 189.76H344.826C345.108 189.098 345.369 188.515 345.61 188.013C345.851 187.491 346.102 186.999 346.363 186.537L349.706 180.392H353.893V180.573L346.333 194.008V203.888H342.115ZM170.5 237.888V214.392H178.543C182.659 214.392 185.641 215.427 187.489 217.495C189.336 219.543 190.26 222.425 190.26 226.14C190.26 229.855 189.336 232.747 187.489 234.815C185.641 236.864 182.659 237.888 178.543 237.888H170.5ZM174.747 234.514H178.242C180.009 234.514 181.455 234.233 182.579 233.671C183.724 233.108 184.567 232.215 185.109 230.99C185.652 229.765 185.923 228.148 185.923 226.14C185.923 224.132 185.652 222.515 185.109 221.29C184.567 220.065 183.724 219.172 182.579 218.61C181.455 218.047 180.009 217.766 178.242 217.766H174.747V234.514ZM193.17 237.888V214.392H197.387V237.888H193.17ZM210.085 238.34C208.398 238.34 206.953 238.109 205.748 237.647C204.543 237.185 203.549 236.572 202.766 235.809C201.982 235.026 201.39 234.143 200.988 233.159C200.587 232.175 200.356 231.17 200.296 230.146H204.272C204.332 230.95 204.583 231.733 205.025 232.496C205.467 233.259 206.119 233.881 206.983 234.363C207.846 234.845 208.931 235.086 210.236 235.086C211.642 235.086 212.716 234.785 213.459 234.183C214.222 233.58 214.604 232.767 214.604 231.743C214.604 230.759 214.252 229.986 213.549 229.423C212.866 228.841 211.983 228.369 210.899 228.008L208.067 227.074C206.942 226.692 205.868 226.24 204.844 225.718C203.84 225.196 203.007 224.513 202.344 223.67C201.701 222.807 201.38 221.692 201.38 220.327C201.38 218.961 201.711 217.806 202.374 216.862C203.057 215.919 204.001 215.196 205.205 214.694C206.41 214.192 207.796 213.941 209.362 213.941C211.33 213.941 212.907 214.282 214.091 214.965C215.296 215.648 216.18 216.521 216.742 217.585C217.325 218.65 217.666 219.794 217.766 221.019H213.79C213.73 220.377 213.539 219.764 213.218 219.182C212.917 218.579 212.445 218.097 211.802 217.736C211.16 217.354 210.296 217.164 209.212 217.164C208.007 217.164 207.073 217.425 206.41 217.947C205.768 218.469 205.446 219.152 205.446 219.995C205.446 220.939 205.808 221.682 206.531 222.224C207.254 222.746 208.157 223.188 209.242 223.55L212.103 224.483C213.228 224.845 214.282 225.297 215.266 225.839C216.27 226.361 217.084 227.064 217.706 227.947C218.349 228.811 218.67 229.966 218.67 231.411C218.67 233.58 217.907 235.277 216.381 236.502C214.855 237.727 212.756 238.34 210.085 238.34ZM225.475 237.888V217.796H218.095V214.392H237.072V217.796H229.692V237.888H225.475ZM239.76 237.888V214.392H249.128C251.136 214.392 252.753 214.684 253.978 215.266C255.203 215.828 256.096 216.591 256.659 217.555C257.241 218.519 257.532 219.624 257.532 220.869C257.532 222.375 257.121 223.66 256.297 224.724C255.474 225.789 254.269 226.532 252.683 226.953L258.165 237.707V237.888H253.707L248.556 227.556H243.917V237.888H239.76ZM243.917 224.393H248.676C250.223 224.393 251.367 224.122 252.11 223.58C252.853 223.038 253.225 222.184 253.225 221.019C253.225 219.835 252.843 218.981 252.08 218.459C251.337 217.917 250.202 217.646 248.676 217.646H243.917V224.393ZM260.63 237.888V214.392H264.847V237.888H260.63ZM278.328 238.34C274.995 238.34 272.404 237.265 270.557 235.116C268.709 232.968 267.785 229.976 267.785 226.14C267.785 222.305 268.699 219.312 270.527 217.164C272.374 215.015 274.965 213.941 278.298 213.941C280.266 213.941 281.963 214.312 283.389 215.055C284.814 215.798 285.929 216.832 286.732 218.158C287.556 219.483 288.048 221.019 288.208 222.766H283.961C283.78 221.06 283.188 219.704 282.184 218.7C281.2 217.696 279.905 217.194 278.298 217.194C276.29 217.194 274.754 217.977 273.689 219.543C272.645 221.11 272.123 223.319 272.123 226.17C272.123 229.062 272.655 231.271 273.72 232.797C274.804 234.323 276.32 235.086 278.268 235.086C279.955 235.086 281.29 234.564 282.274 233.52C283.258 232.476 283.82 231.14 283.961 229.514H288.208C288.048 231.241 287.556 232.777 286.732 234.122C285.929 235.448 284.814 236.482 283.389 237.225C281.983 237.968 280.296 238.34 278.328 238.34ZM295.794 237.888V217.796H288.414V214.392H307.391V217.796H300.011V237.888H295.794Z" fill="black"/>
<path d="M32.6152 155.395C32.5104 156.01 32.2438 156.488 31.8154 156.83C31.387 157.167 30.8743 157.336 30.2773 157.336C29.5254 157.336 28.8828 157.067 28.3496 156.529C27.8164 155.992 27.5498 155.276 27.5498 154.383C27.5498 153.549 27.7891 152.852 28.2676 152.291C28.7507 151.73 29.3796 151.45 30.1543 151.45C30.6419 151.45 31.0817 151.548 31.4736 151.744C32.1527 152.095 32.5218 152.678 32.5811 153.494H31.7539C31.7129 153.152 31.5693 152.856 31.3232 152.605C31.0771 152.355 30.7194 152.229 30.25 152.229C29.5892 152.229 29.1107 152.526 28.8145 153.118C28.623 153.496 28.5273 153.904 28.5273 154.342C28.5273 154.966 28.68 155.493 28.9854 155.921C29.2952 156.345 29.7419 156.557 30.3252 156.557C30.6989 156.557 31.0111 156.459 31.2617 156.263C31.5124 156.062 31.6878 155.773 31.7881 155.395H32.6152ZM30.1475 150.09C28.958 150.09 27.944 150.514 27.1055 151.361C26.2715 152.204 25.8545 153.223 25.8545 154.417C25.8545 155.62 26.2692 156.646 27.0986 157.493C27.9372 158.341 28.9535 158.765 30.1475 158.765C31.3415 158.765 32.3577 158.341 33.1963 157.493C34.0257 156.646 34.4404 155.62 34.4404 154.417C34.4404 153.223 34.0234 152.204 33.1895 151.361C32.3555 150.514 31.3415 150.09 30.1475 150.09ZM35.1719 154.417C35.1719 155.807 34.682 156.994 33.7021 157.979C32.7223 158.963 31.5374 159.455 30.1475 159.455C28.7575 159.455 27.5726 158.963 26.5928 157.979C25.613 156.994 25.123 155.807 25.123 154.417C25.123 153.032 25.613 151.851 26.5928 150.876C27.5726 149.901 28.7575 149.413 30.1475 149.413C31.5374 149.413 32.7223 149.901 33.7021 150.876C34.682 151.851 35.1719 153.032 35.1719 154.417ZM40.251 149.413H42.1992L45.084 157.903L47.9482 149.413H49.876V159.455H48.584V153.528C48.584 153.323 48.5885 152.984 48.5977 152.51C48.6068 152.036 48.6113 151.528 48.6113 150.985L45.7471 159.455H44.4004L41.5156 150.985V151.293C41.5156 151.539 41.5202 151.915 41.5293 152.421C41.543 152.922 41.5498 153.291 41.5498 153.528V159.455H40.251V149.413ZM53.0137 152.134V156.994C53.0137 157.368 53.0729 157.673 53.1914 157.91C53.4102 158.348 53.818 158.566 54.415 158.566C55.2718 158.566 55.8551 158.184 56.165 157.418C56.3337 157.008 56.418 156.445 56.418 155.729V152.134H57.6484V159.455H56.4863L56.5 158.375C56.3405 158.653 56.1423 158.888 55.9053 159.079C55.4359 159.462 54.8662 159.653 54.1963 159.653C53.1527 159.653 52.4417 159.305 52.0635 158.607C51.8584 158.234 51.7559 157.735 51.7559 157.11V152.134H53.0137ZM59.8701 157.965H61.2988V159.455H59.8701V157.965ZM67.4922 158.293C67.9525 158.293 68.3307 158.245 68.627 158.149C69.1556 157.972 69.5885 157.63 69.9258 157.124C70.1947 156.718 70.3883 156.199 70.5068 155.565C70.5752 155.187 70.6094 154.836 70.6094 154.513C70.6094 153.269 70.361 152.302 69.8643 151.614C69.3721 150.926 68.5768 150.582 67.4785 150.582H65.0654V158.293H67.4922ZM63.6982 149.413H67.7656C69.1465 149.413 70.2174 149.903 70.9785 150.883C71.6576 151.767 71.9971 152.899 71.9971 154.28C71.9971 155.347 71.7965 156.311 71.3955 157.172C70.6891 158.694 69.4746 159.455 67.752 159.455H63.6982V149.413ZM77.6162 149.413H79.5645L82.4492 157.903L85.3135 149.413H87.2412V159.455H85.9492V153.528C85.9492 153.323 85.9538 152.984 85.9629 152.51C85.972 152.036 85.9766 151.528 85.9766 150.985L83.1123 159.455H81.7656L78.8809 150.985V151.293C78.8809 151.539 78.8854 151.915 78.8945 152.421C78.9082 152.922 78.915 153.291 78.915 153.528V159.455H77.6162V149.413ZM89.1484 152.168H90.3994V159.455H89.1484V152.168ZM89.1484 149.413H90.3994V150.808H89.1484V149.413ZM92.2998 149.413H93.5303V159.455H92.2998V149.413ZM96.3262 157.507C96.3262 157.862 96.4561 158.143 96.7158 158.348C96.9756 158.553 97.2832 158.655 97.6387 158.655C98.0716 158.655 98.4909 158.555 98.8965 158.354C99.5801 158.022 99.9219 157.477 99.9219 156.721V155.729C99.7715 155.825 99.5778 155.905 99.3408 155.969C99.1038 156.033 98.8714 156.078 98.6436 156.105L97.8984 156.201C97.4518 156.26 97.1169 156.354 96.8936 156.481C96.5153 156.696 96.3262 157.037 96.3262 157.507ZM99.3066 155.019C99.5892 154.982 99.7783 154.864 99.874 154.663C99.9287 154.554 99.9561 154.396 99.9561 154.191C99.9561 153.772 99.8057 153.469 99.5049 153.282C99.2087 153.091 98.7826 152.995 98.2266 152.995C97.584 152.995 97.1283 153.168 96.8594 153.515C96.709 153.706 96.611 153.991 96.5654 154.369H95.417C95.4398 153.467 95.7314 152.84 96.292 152.489C96.8571 152.134 97.5111 151.956 98.2539 151.956C99.1152 151.956 99.8148 152.12 100.353 152.448C100.886 152.776 101.152 153.287 101.152 153.979V158.197C101.152 158.325 101.177 158.427 101.228 158.505C101.282 158.582 101.394 158.621 101.562 158.621C101.617 158.621 101.679 158.619 101.747 158.614C101.815 158.605 101.888 158.594 101.966 158.58V159.489C101.774 159.544 101.629 159.578 101.528 159.592C101.428 159.605 101.291 159.612 101.118 159.612C100.694 159.612 100.387 159.462 100.195 159.161C100.095 159.002 100.024 158.776 99.9834 158.484C99.7327 158.812 99.3727 159.097 98.9033 159.339C98.4339 159.58 97.9167 159.701 97.3516 159.701C96.6725 159.701 96.1165 159.496 95.6836 159.086C95.2552 158.671 95.041 158.154 95.041 157.534C95.041 156.855 95.2529 156.329 95.6768 155.955C96.1006 155.581 96.6566 155.351 97.3447 155.265L99.3066 155.019ZM103.176 152.134H104.345V153.173C104.691 152.744 105.058 152.437 105.445 152.25C105.833 152.063 106.263 151.97 106.737 151.97C107.776 151.97 108.478 152.332 108.843 153.057C109.043 153.453 109.144 154.021 109.144 154.759V159.455H107.893V154.841C107.893 154.394 107.826 154.034 107.694 153.761C107.476 153.305 107.079 153.077 106.505 153.077C106.213 153.077 105.974 153.107 105.787 153.166C105.45 153.266 105.154 153.467 104.898 153.768C104.693 154.009 104.559 154.26 104.495 154.52C104.436 154.775 104.406 155.142 104.406 155.62V159.455H103.176V152.134ZM113.874 158.662C114.69 158.662 115.248 158.354 115.549 157.739C115.854 157.119 116.007 156.431 116.007 155.675C116.007 154.991 115.897 154.435 115.679 154.007C115.332 153.332 114.735 152.995 113.888 152.995C113.136 152.995 112.589 153.282 112.247 153.856C111.905 154.431 111.734 155.123 111.734 155.935C111.734 156.714 111.905 157.363 112.247 157.883C112.589 158.402 113.131 158.662 113.874 158.662ZM113.922 151.922C114.865 151.922 115.663 152.236 116.314 152.865C116.966 153.494 117.292 154.419 117.292 155.641C117.292 156.821 117.005 157.796 116.431 158.566C115.856 159.337 114.965 159.722 113.758 159.722C112.751 159.722 111.951 159.382 111.358 158.703C110.766 158.02 110.47 157.104 110.47 155.955C110.47 154.725 110.782 153.745 111.406 153.016C112.031 152.286 112.869 151.922 113.922 151.922ZM27.543 165.413V171.62C27.543 172.349 27.6797 172.955 27.9531 173.438C28.3587 174.168 29.0423 174.532 30.0039 174.532C31.1569 174.532 31.9408 174.138 32.3555 173.35C32.5788 172.921 32.6904 172.345 32.6904 171.62V165.413H34.0713V171.053C34.0713 172.288 33.9049 173.238 33.5723 173.903C32.9616 175.116 31.8086 175.722 30.1133 175.722C28.418 175.722 27.2673 175.116 26.6611 173.903C26.3285 173.238 26.1621 172.288 26.1621 171.053V165.413H27.543ZM36.0195 168.134H37.1885V169.173C37.5348 168.744 37.9017 168.437 38.2891 168.25C38.6764 168.063 39.1071 167.97 39.5811 167.97C40.6201 167.97 41.3219 168.332 41.6865 169.057C41.887 169.453 41.9873 170.021 41.9873 170.759V175.455H40.7363V170.841C40.7363 170.394 40.6702 170.034 40.5381 169.761C40.3193 169.305 39.9229 169.077 39.3486 169.077C39.057 169.077 38.8177 169.107 38.6309 169.166C38.2936 169.266 37.9974 169.467 37.7422 169.768C37.5371 170.009 37.4027 170.26 37.3389 170.52C37.2796 170.775 37.25 171.142 37.25 171.62V175.455H36.0195V168.134ZM43.8125 168.168H45.0635V175.455H43.8125V168.168ZM43.8125 165.413H45.0635V166.808H43.8125V165.413ZM47.5312 168.134L49.4863 174.095L51.5303 168.134H52.877L50.1152 175.455H48.8027L46.1025 168.134H47.5312ZM56.9785 167.97C57.498 167.97 58.0016 168.093 58.4893 168.339C58.9769 168.58 59.3483 168.895 59.6035 169.282C59.8496 169.651 60.0137 170.082 60.0957 170.574C60.1686 170.911 60.2051 171.449 60.2051 172.188H54.8389C54.8617 172.93 55.0371 173.527 55.3652 173.979C55.6934 174.425 56.2015 174.648 56.8896 174.648C57.5322 174.648 58.0449 174.437 58.4277 174.013C58.6465 173.767 58.8014 173.482 58.8926 173.158H60.1025C60.0706 173.427 59.9635 173.728 59.7812 174.061C59.6035 174.389 59.403 174.658 59.1797 174.867C58.806 175.232 58.3434 175.478 57.792 175.605C57.4958 175.678 57.1608 175.715 56.7871 175.715C55.8757 175.715 55.1032 175.384 54.4697 174.724C53.8363 174.058 53.5195 173.129 53.5195 171.935C53.5195 170.759 53.8385 169.804 54.4766 169.07C55.1146 168.337 55.9486 167.97 56.9785 167.97ZM58.9404 171.21C58.8903 170.677 58.7741 170.251 58.5918 169.932C58.2546 169.339 57.6917 169.043 56.9033 169.043C56.3382 169.043 55.8643 169.248 55.4814 169.658C55.0986 170.064 54.8958 170.581 54.873 171.21H58.9404ZM61.7568 168.134H62.9258V169.398C63.0215 169.152 63.2562 168.854 63.6299 168.503C64.0036 168.147 64.4342 167.97 64.9219 167.97C64.9447 167.97 64.9834 167.972 65.0381 167.977C65.0928 167.981 65.1862 167.99 65.3184 168.004V169.303C65.2454 169.289 65.1771 169.28 65.1133 169.275C65.054 169.271 64.988 169.269 64.915 169.269C64.2952 169.269 63.819 169.469 63.4863 169.87C63.1536 170.267 62.9873 170.725 62.9873 171.244V175.455H61.7568V168.134ZM67.1162 173.158C67.1527 173.568 67.2552 173.883 67.4238 174.102C67.7337 174.498 68.2715 174.696 69.0371 174.696C69.4928 174.696 69.8939 174.598 70.2402 174.402C70.5866 174.202 70.7598 173.894 70.7598 173.479C70.7598 173.165 70.6208 172.926 70.3428 172.762C70.165 172.661 69.8141 172.545 69.29 172.413L68.3125 172.167C67.6882 172.012 67.2279 171.839 66.9316 171.647C66.403 171.315 66.1387 170.854 66.1387 170.267C66.1387 169.574 66.387 169.013 66.8838 168.585C67.3851 168.157 68.0573 167.942 68.9004 167.942C70.0033 167.942 70.7985 168.266 71.2861 168.913C71.5915 169.323 71.7396 169.765 71.7305 170.239H70.5684C70.5456 169.961 70.4476 169.708 70.2744 169.48C69.9919 169.157 69.502 168.995 68.8047 168.995C68.3398 168.995 67.9867 169.084 67.7451 169.262C67.5081 169.439 67.3896 169.674 67.3896 169.966C67.3896 170.285 67.5469 170.54 67.8613 170.731C68.0436 170.845 68.3125 170.946 68.668 171.032L69.4814 171.23C70.3656 171.445 70.958 171.652 71.2588 171.853C71.7373 172.167 71.9766 172.661 71.9766 173.336C71.9766 173.988 71.7282 174.55 71.2314 175.024C70.7393 175.498 69.9873 175.735 68.9756 175.735C67.8864 175.735 67.1139 175.489 66.6582 174.997C66.207 174.5 65.9655 173.887 65.9336 173.158H67.1162ZM73.3848 168.168H74.6357V175.455H73.3848V168.168ZM73.3848 165.413H74.6357V166.808H73.3848V165.413ZM76.748 166.09H77.9922V168.134H79.1611V169.139H77.9922V173.917C77.9922 174.172 78.0788 174.343 78.252 174.43C78.3477 174.48 78.5072 174.505 78.7305 174.505C78.7897 174.505 78.8535 174.505 78.9219 174.505C78.9902 174.5 79.07 174.493 79.1611 174.484V175.455C79.0199 175.496 78.8717 175.526 78.7168 175.544C78.5664 175.562 78.4023 175.571 78.2246 175.571C77.6504 175.571 77.2607 175.425 77.0557 175.134C76.8506 174.838 76.748 174.455 76.748 173.985V169.139H75.7568V168.134H76.748V166.09ZM84.9717 168.134H86.332C86.1589 168.603 85.7738 169.674 85.1768 171.347C84.7301 172.604 84.3564 173.63 84.0557 174.423C83.3447 176.291 82.8434 177.431 82.5518 177.841C82.2601 178.251 81.7588 178.456 81.0479 178.456C80.8747 178.456 80.7402 178.449 80.6445 178.436C80.5534 178.422 80.4395 178.397 80.3027 178.36V177.239C80.5169 177.299 80.6719 177.335 80.7676 177.349C80.8633 177.362 80.9476 177.369 81.0205 177.369C81.2484 177.369 81.4147 177.33 81.5195 177.253C81.6289 177.18 81.7201 177.089 81.793 176.979C81.8158 176.943 81.8978 176.756 82.0391 176.419C82.1803 176.082 82.2829 175.831 82.3467 175.667L79.6396 168.134H81.0342L82.9961 174.095L84.9717 168.134ZM95.3145 174.293C95.7747 174.293 96.153 174.245 96.4492 174.149C96.9779 173.972 97.4108 173.63 97.748 173.124C98.0169 172.718 98.2106 172.199 98.3291 171.565C98.3975 171.187 98.4316 170.836 98.4316 170.513C98.4316 169.269 98.1833 168.302 97.6865 167.614C97.1943 166.926 96.3991 166.582 95.3008 166.582H92.8877V174.293H95.3145ZM91.5205 165.413H95.5879C96.9688 165.413 98.0397 165.903 98.8008 166.883C99.4798 167.767 99.8193 168.899 99.8193 170.28C99.8193 171.347 99.6188 172.311 99.2178 173.172C98.5114 174.694 97.2969 175.455 95.5742 175.455H91.5205V165.413ZM101.412 168.168H102.663V175.455H101.412V168.168ZM101.412 165.413H102.663V166.808H101.412V165.413ZM105.261 173.158C105.297 173.568 105.4 173.883 105.568 174.102C105.878 174.498 106.416 174.696 107.182 174.696C107.637 174.696 108.038 174.598 108.385 174.402C108.731 174.202 108.904 173.894 108.904 173.479C108.904 173.165 108.765 172.926 108.487 172.762C108.31 172.661 107.959 172.545 107.435 172.413L106.457 172.167C105.833 172.012 105.372 171.839 105.076 171.647C104.548 171.315 104.283 170.854 104.283 170.267C104.283 169.574 104.532 169.013 105.028 168.585C105.53 168.157 106.202 167.942 107.045 167.942C108.148 167.942 108.943 168.266 109.431 168.913C109.736 169.323 109.884 169.765 109.875 170.239H108.713C108.69 169.961 108.592 169.708 108.419 169.48C108.136 169.157 107.646 168.995 106.949 168.995C106.484 168.995 106.131 169.084 105.89 169.262C105.653 169.439 105.534 169.674 105.534 169.966C105.534 170.285 105.691 170.54 106.006 170.731C106.188 170.845 106.457 170.946 106.812 171.032L107.626 171.23C108.51 171.445 109.103 171.652 109.403 171.853C109.882 172.167 110.121 172.661 110.121 173.336C110.121 173.988 109.873 174.55 109.376 175.024C108.884 175.498 108.132 175.735 107.12 175.735C106.031 175.735 105.258 175.489 104.803 174.997C104.352 174.5 104.11 173.887 104.078 173.158H105.261ZM111.775 166.09H113.02V168.134H114.188V169.139H113.02V173.917C113.02 174.172 113.106 174.343 113.279 174.43C113.375 174.48 113.535 174.505 113.758 174.505C113.817 174.505 113.881 174.505 113.949 174.505C114.018 174.5 114.097 174.493 114.188 174.484V175.455C114.047 175.496 113.899 175.526 113.744 175.544C113.594 175.562 113.43 175.571 113.252 175.571C112.678 175.571 112.288 175.425 112.083 175.134C111.878 174.838 111.775 174.455 111.775 173.985V169.139H110.784V168.134H111.775V166.09ZM115.46 168.134H116.629V169.398C116.725 169.152 116.959 168.854 117.333 168.503C117.707 168.147 118.137 167.97 118.625 167.97C118.648 167.97 118.687 167.972 118.741 167.977C118.796 167.981 118.889 167.99 119.021 168.004V169.303C118.949 169.289 118.88 169.28 118.816 169.275C118.757 169.271 118.691 169.269 118.618 169.269C117.998 169.269 117.522 169.469 117.189 169.87C116.857 170.267 116.69 170.725 116.69 171.244V175.455H115.46V168.134ZM120.088 168.168H121.339V175.455H120.088V168.168ZM120.088 165.413H121.339V166.808H120.088V165.413ZM126.028 167.922C126.853 167.922 127.523 168.122 128.038 168.523C128.558 168.924 128.87 169.615 128.975 170.595H127.778C127.705 170.144 127.539 169.77 127.279 169.474C127.02 169.173 126.603 169.022 126.028 169.022C125.244 169.022 124.684 169.405 124.347 170.171C124.128 170.668 124.019 171.281 124.019 172.01C124.019 172.743 124.174 173.361 124.483 173.862C124.793 174.364 125.281 174.614 125.946 174.614C126.457 174.614 126.86 174.459 127.156 174.149C127.457 173.835 127.664 173.407 127.778 172.864H128.975C128.838 173.835 128.496 174.546 127.949 174.997C127.402 175.444 126.703 175.667 125.851 175.667C124.894 175.667 124.13 175.318 123.561 174.621C122.991 173.919 122.706 173.044 122.706 171.996C122.706 170.711 123.018 169.711 123.643 168.995C124.267 168.28 125.062 167.922 126.028 167.922ZM130.451 166.09H131.695V168.134H132.864V169.139H131.695V173.917C131.695 174.172 131.782 174.343 131.955 174.43C132.051 174.48 132.21 174.505 132.434 174.505C132.493 174.505 132.557 174.505 132.625 174.505C132.693 174.5 132.773 174.493 132.864 174.484V175.455C132.723 175.496 132.575 175.526 132.42 175.544C132.27 175.562 132.105 175.571 131.928 175.571C131.354 175.571 130.964 175.425 130.759 175.134C130.554 174.838 130.451 174.455 130.451 173.985V169.139H129.46V168.134H130.451V166.09ZM25.4375 191.455C25.4831 190.612 25.6562 189.878 25.957 189.254C26.2624 188.63 26.8548 188.062 27.7344 187.552L29.0469 186.793C29.6348 186.451 30.0472 186.16 30.2842 185.918C30.6579 185.54 30.8447 185.107 30.8447 184.619C30.8447 184.049 30.6738 183.598 30.332 183.266C29.9902 182.928 29.5345 182.76 28.9648 182.76C28.1217 182.76 27.5384 183.079 27.2148 183.717C27.0417 184.059 26.946 184.533 26.9277 185.139H25.6768C25.6904 184.286 25.8477 183.591 26.1484 183.054C26.6816 182.106 27.6227 181.632 28.9717 181.632C30.0928 181.632 30.9108 181.935 31.4258 182.541C31.9453 183.147 32.2051 183.822 32.2051 184.564C32.2051 185.348 31.9294 186.018 31.3779 186.574C31.0589 186.898 30.487 187.29 29.6621 187.75L28.7256 188.27C28.279 188.516 27.9281 188.75 27.6729 188.974C27.2171 189.37 26.93 189.81 26.8115 190.293H32.1572V191.455H25.4375ZM36.5801 181.666C37.847 181.666 38.763 182.188 39.3281 183.231C39.7656 184.038 39.9844 185.143 39.9844 186.547C39.9844 187.878 39.7861 188.978 39.3896 189.849C38.8154 191.097 37.8766 191.722 36.5732 191.722C35.3975 191.722 34.5225 191.211 33.9482 190.19C33.4697 189.338 33.2305 188.194 33.2305 186.759C33.2305 185.647 33.374 184.692 33.6611 183.895C34.1989 182.409 35.1719 181.666 36.5801 181.666ZM36.5664 190.601C37.2044 190.601 37.7126 190.318 38.0908 189.753C38.4691 189.188 38.6582 188.135 38.6582 186.595C38.6582 185.483 38.5215 184.569 38.248 183.854C37.9746 183.133 37.4437 182.773 36.6553 182.773C35.9307 182.773 35.3997 183.115 35.0625 183.799C34.7298 184.478 34.5635 185.48 34.5635 186.807C34.5635 187.805 34.6706 188.607 34.8848 189.213C35.2129 190.138 35.7734 190.601 36.5664 190.601ZM41.0234 191.455C41.069 190.612 41.2422 189.878 41.543 189.254C41.8483 188.63 42.4408 188.062 43.3203 187.552L44.6328 186.793C45.2207 186.451 45.6331 186.16 45.8701 185.918C46.2438 185.54 46.4307 185.107 46.4307 184.619C46.4307 184.049 46.2598 183.598 45.918 183.266C45.5762 182.928 45.1204 182.76 44.5508 182.76C43.7077 182.76 43.1243 183.079 42.8008 183.717C42.6276 184.059 42.5319 184.533 42.5137 185.139H41.2627C41.2764 184.286 41.4336 183.591 41.7344 183.054C42.2676 182.106 43.2087 181.632 44.5576 181.632C45.6787 181.632 46.4967 181.935 47.0117 182.541C47.5312 183.147 47.791 183.822 47.791 184.564C47.791 185.348 47.5153 186.018 46.9639 186.574C46.6449 186.898 46.0729 187.29 45.248 187.75L44.3115 188.27C43.8649 188.516 43.514 188.75 43.2588 188.974C42.8031 189.37 42.516 189.81 42.3975 190.293H47.7432V191.455H41.0234ZM53.0068 187.989V183.553L49.8691 187.989H53.0068ZM53.0273 191.455V189.062H48.7344V187.859L53.2188 181.639H54.2578V187.989H55.7002V189.062H54.2578V191.455H53.0273Z" fill="black"/>
</svg>
