<svg preserveAspectRatio="none" viewBox="0 0 2036 1046" fill="none" xmlns="http://www.w3.org/2000/svg">
<path d="M607.878 152.984C481.498 90.284 198.63 -28.8431 60.2286 134.37C-49.9309 264.279 19.2774 361.072 47.4926 570.335C82.7616 831.913 247.35 1066.06 539.3 1043.53C831.249 1020.99 1060.63 707.918 1018.5 510.999C976.373 314.08 734.259 215.685 607.878 152.984Z" fill="#EA579A"/>
<path d="M1037.87 540.386C1037.04 612.383 1044.92 768.83 1150.62 796.312C1234.75 818.186 1263.93 764.924 1353.89 705.598C1466.35 631.439 1537.55 503.898 1462.52 374.655C1387.49 245.412 1183.81 197.021 1102.6 260.01C1021.39 322.998 1038.71 468.389 1037.87 540.386Z" fill="#EA579A"/>
<path d="M1388.5 700.898C1372.66 728.179 1335.09 747.848 1341.07 764.194C1347.04 780.54 1368.91 779.731 1400.31 763.408C1431.71 747.085 1446.5 704.451 1440.51 673.751C1432.57 633.079 1404.34 673.616 1388.5 700.898Z" fill="#EA579A"/>
<path d="M808.718 852.073C785.052 872.933 743.19 879.692 743.677 897.088C744.165 914.484 765.165 920.642 800.121 915.105C835.077 909.568 862.603 873.811 866.645 842.795C872.001 801.703 832.383 831.213 808.718 852.073Z" fill="#5D1335"/>
<path d="M606.329 908.05C671.115 914.88 770.473 864.808 787.181 853.866C803.889 842.923 815.471 820.745 784.15 812.17C745 801.451 548.772 796.887 517.38 795.667C485.988 794.446 465.342 806.768 485.664 836.298C505.986 865.829 541.544 901.221 606.329 908.05Z" fill="#5D1335"/>
<path d="M1030.81 137.289C1052.19 117.063 1068.54 125.4 1072 136.913C1075.46 148.426 1020.2 217.017 1009.39 209.796C998.578 202.575 1009.44 157.516 1030.81 137.289Z" fill="#EA579A"/>
<path d="M1083.66 172.219C1055.41 186.374 1028.2 202.218 1013.87 240.317C1000.5 278.313 1015.13 307.588 1036.13 287.62C1057.13 267.652 1097.8 251.773 1121.68 205.535C1145.56 159.297 1111.9 158.065 1083.66 172.219Z" fill="#EA579A"/>
<path d="M1106.59 857.762C1109.74 848.929 1117.73 844.006 1127.04 845.171C1141.7 847.007 1143 879.981 1128.54 882.973C1115.75 885.618 1102.21 870.058 1106.59 857.762Z" fill="#EA579A"/>
<path d="M1189.45 916.198C1184.36 916.504 1180.19 913.554 1178.79 908.652C1176.59 900.927 1192.81 893.251 1197.39 899.852C1201.44 905.683 1196.54 915.771 1189.45 916.198Z" fill="#EA579A"/>
<path d="M1197.68 852.6C1189.37 852.024 1182.59 857.148 1180.34 865.705C1176.81 879.188 1203.35 892.734 1210.77 881.234C1217.33 871.075 1209.25 853.403 1197.68 852.6Z" fill="#EA579A"/>
<path d="M1125 800.876C1090.36 768.636 1071.4 762.902 1057.71 768.835C1044.03 774.769 1049.89 797.398 1091.69 829.916C1133.48 862.434 1142.15 816.84 1125 800.876Z" fill="#EA579A"/>
<path d="M691.111 957.757C738.196 953.039 755.026 942.587 759.609 928.392C764.192 914.197 743.326 903.656 691.307 913.562C639.289 923.468 667.796 960.093 691.111 957.757Z" fill="#5D1335"/>
<path d="M1214.01 828.702C1221.21 819.243 1217.34 810.246 1213.03 809.367C1208.72 808.487 1199.95 809.905 1188.33 812.528C1176.71 815.151 1166.15 808.542 1153.64 807.635C1141.14 806.728 1139.18 827.017 1161.4 848.489C1183.61 869.961 1205.01 840.526 1214.01 828.702Z" fill="#EA579A"/>
<path d="M727.025 178.587C791.933 204.726 847.007 280.972 881.001 262.686C914.996 244.4 906.296 196.645 860.519 132.871C814.743 69.0984 716.466 50.1397 650.965 73.0059C564.185 103.301 662.118 152.447 727.025 178.587Z" fill="#EA579A"/>
<g clip-path="url(#clip0_38_490)">
<path d="M1733.84 475.504C1661.92 478.927 1505.29 476.674 1474.03 372.03C1449.14 288.739 1501.32 257.669 1557.37 165.627C1627.44 50.5754 1752.34 -25.165 1884.19 45.1685C2016.05 115.502 2071.74 317.317 2011.71 400.739C1951.68 484.161 1805.76 472.081 1733.84 475.504Z" fill="#EA579A"/>
<path d="M1668.79 320.466C1665.01 272.735 1687.22 219.916 1670.21 202.203C1653.19 184.489 1632.88 200.97 1614.23 244.963C1595.57 288.956 1610.99 356.529 1637.97 393.477C1673.71 442.427 1672.57 368.198 1668.79 320.466Z" fill="#5D1335"/>
</g>
<g clip-path="url(#clip1_38_490)">
<path d="M1449.1 973.221C1322.32 912.277 1340.64 816.537 1391.74 776.197C1442.84 735.858 1849.54 859.788 1829.15 926.593C1808.75 993.398 1575.88 1034.17 1449.1 973.221Z" fill="#EA579A"/>
</g>
<path d="M1644.71 665.758C1709.15 685.94 1779.78 781.761 1790.48 800.576C1801.18 819.391 1801.8 848.068 1768.19 843.961C1726.18 838.827 1538.49 760.425 1508.24 748.408C1477.99 736.391 1464.21 714.426 1497.18 691.414C1530.15 668.402 1580.26 645.577 1644.71 665.758Z" fill="#EA579A"/>
<path d="M1265.12 5.05516C1234.15 5.05512 1158.19 -15.1653 1161.08 25.2754C1163.97 65.716 1231.68 106.569 1252.73 130.916C1269.25 150.012 1344.65 281.233 1391.45 215.924C1413.33 185.387 1412.5 75.2071 1391.45 30.2273C1370.42 -14.6819 1314.72 5.05523 1265.12 5.05516Z" fill="#EA579A"/>
<defs>
<clipPath id="clip0_38_490">
<rect width="569" height="459" fill="white" transform="translate(1467 18.0002)"/>
</clipPath>
<clipPath id="clip1_38_490">
<rect width="478" height="236" fill="white" transform="translate(1352 768)"/>
</clipPath>
</defs>
</svg>
