<svg width="445" height="322" viewBox="0 0 445 322" fill="none" xmlns="http://www.w3.org/2000/svg" xmlns:xlink="http://www.w3.org/1999/xlink">
<path d="M201.29 320.66C147.942 323.199 28.4248 321.527 5.23339 243.906C-13.2257 182.123 25.4783 159.076 67.0566 90.8026C119.029 5.46064 198.784 -4.37679 309.483 1.44998C466.018 9.68935 462.527 204.572 418 266.452C373.474 328.331 254.638 318.121 201.29 320.66Z" fill="url(#pattern0)"/>
<path d="M201.29 320.66C147.942 323.199 28.4248 321.527 5.23339 243.906C-13.2257 182.123 25.4783 159.076 67.0566 90.8026C119.029 5.46064 198.784 -4.37679 309.483 1.44998C466.018 9.68935 462.527 204.572 418 266.452C373.474 328.331 254.638 318.121 201.29 320.66Z" fill="#EA579A"/>
<defs>
<pattern id="pattern0" patternContentUnits="objectBoundingBox" width="1" height="1">
<use xlink:href="#image0_29_504" transform="matrix(-0.000561729 -0.00026319 0.000246141 -0.000600637 0.872312 1.2109)"/>
</pattern>
</defs>
</svg>
