<svg width="351" height="460" viewBox="0 0 351 460" fill="none" xmlns="http://www.w3.org/2000/svg" xmlns:xlink="http://www.w3.org/1999/xlink">
<path d="M193.494 207.837C219.364 196.629 274.028 168.807 266.959 126.631C261.332 93.0605 237.63 91.1441 202.044 68.4658C157.562 40.1179 100.591 35.0501 66.3821 82.5265C32.1734 130.003 47.429 210.548 82.9242 229.511C118.42 248.473 167.624 219.046 193.494 207.837Z" fill="url(#pattern0)"/>
<path d="M193.494 207.837C219.364 196.629 274.028 168.807 266.959 126.631C261.332 93.0605 237.63 91.1441 202.044 68.4658C157.562 40.1179 100.591 35.0501 66.3821 82.5265C32.1734 130.003 47.429 210.548 82.9242 229.511C118.42 248.473 167.624 219.046 193.494 207.837Z" fill="#EA579A"/>
<path d="M125.631 368.094C125.378 389.965 127.773 437.489 159.882 445.837C185.438 452.482 194.301 436.303 221.63 418.281C255.791 395.754 277.42 357.01 254.628 317.75C231.836 278.49 169.962 263.79 145.293 282.924C120.624 302.058 125.885 346.224 125.631 368.094Z" fill="url(#pattern1)"/>
<path d="M125.631 368.094C125.378 389.965 127.773 437.489 159.882 445.837C185.438 452.482 194.301 436.303 221.63 418.281C255.791 395.754 277.42 357.01 254.628 317.75C231.836 278.49 169.962 263.79 145.293 282.924C120.624 302.058 125.885 346.224 125.631 368.094Z" fill="#EA579A"/>
<path d="M118.029 244.887C102.322 252.758 87.1847 261.57 79.2196 282.758C71.7828 303.887 79.9177 320.168 91.5955 309.063C103.273 297.959 125.892 289.128 139.174 263.415C152.455 237.701 133.737 237.015 118.029 244.887Z" fill="#EA579A"/>
<path d="M226.593 209.76C210.335 215.435 166.745 218.741 175.675 239.445C184.604 260.149 227.641 269.189 243.158 278.113C255.329 285.113 318.971 340.189 331.571 297.322C337.462 277.278 316.834 219.579 297.535 199.822C278.267 180.096 252.637 200.668 226.593 209.76Z" fill="#EA579A"/>
<path d="M286.359 330.867C289.506 322.035 297.5 317.112 306.804 318.277C321.463 320.112 322.773 353.086 308.305 356.079C295.523 358.723 281.978 343.164 286.359 330.867Z" fill="#EA579A"/>
<path d="M337.45 327.737C332.358 328.043 328.19 325.093 326.79 320.19C324.585 312.466 340.811 304.79 345.393 311.39C349.44 317.222 344.538 327.31 337.45 327.737Z" fill="#EA579A"/>
<path d="M347.061 342.049C345.552 345.67 342.106 347.553 338.246 346.864C332.164 345.778 332.343 331.974 338.451 331.038C343.847 330.212 349.161 337.007 347.061 342.049Z" fill="#EA579A"/>
<defs>
<pattern id="pattern0" patternContentUnits="objectBoundingBox" width="1" height="1">
<use xlink:href="#image0_29_516" transform="matrix(-0.00033229 0.000730891 -0.000708098 -0.00036149 1.22916 0.0830734)"/>
</pattern>
<pattern id="pattern1" patternContentUnits="objectBoundingBox" width="1" height="1">
<use xlink:href="#image0_29_516" transform="matrix(-0.00033229 0.000730891 -0.000708098 -0.00036149 1.22916 0.0830734)"/>
</pattern>
</defs>
</svg>
