<svg width="105" height="404" viewBox="0 0 105 404" fill="none" xmlns="http://www.w3.org/2000/svg">
<g clip-path="url(#clip0_3_36)">
<path d="M11.6685 286.003C14.3052 283.912 16.9372 281.805 19.5747 279.715C20.8838 278.253 23.0664 275.999 23.6714 276.49C23.7739 276.574 23.8312 276.736 23.8312 276.994C23.8312 280.366 18.9613 283.702 14.9757 285.944C13.6422 288.085 12.4663 290.466 12.0214 292.851C11.4303 296.02 13.0798 296.104 14.5386 294.148C15.5233 292.829 17.5291 290.071 17.0794 293.86C17.0553 294.063 17.0009 294.284 16.9229 294.515C18.8747 292.192 21.1487 290.063 23.0078 288.995C25.1248 287.779 19.9871 294.954 19.4084 295.77C17.5506 298.388 14.872 301.38 13.7388 304.852C13.151 306.653 15.9279 302.615 17.0794 301.645C17.5369 301.259 19.4969 299.337 20.1187 299.137C20.8894 293.767 24.08 288.655 25.972 284.742C26.498 283.654 30.4926 276.039 28.748 280.85C27.5013 284.287 29.9859 283.12 31.7357 283.12C35.4048 283.12 36.9655 280.059 39.7344 277.03C40.1353 276.591 39.8127 280.727 39.7344 281.138C39.1809 284.045 38.0665 286.581 37.2171 289.283C37.1826 289.393 36.982 289.932 36.6971 290.659C37.2633 290.083 37.7764 289.616 38.0641 289.319C41.5247 285.749 45.0754 282.36 48.8387 279.588C51.4004 277.702 54.0698 275.617 56.8138 274.435C60.008 273.059 55.8669 279.901 55.1906 280.814C52.0512 285.05 48.8865 289.248 45.7333 293.464C45.0686 294.352 44.429 295.299 43.8003 296.27C44.969 294.892 46.1416 293.522 47.3566 292.238C48.6186 290.905 50.3597 289.307 51.2038 289.418C53.485 284.899 56.8302 280.717 58.4841 278.183C62.5644 271.932 66.845 265.791 71.282 260.127C71.5145 259.83 74.4743 255.923 74.2462 257.496C73.7093 261.197 73.8462 264.99 73.8462 268.885V275.242C75.0308 273.555 76.6185 272.447 77.8691 274.363C78.8083 275.802 79.1089 277.72 79.0524 279.743C79.8922 278.762 80.7476 277.811 81.6192 276.891C81.6775 276.614 81.7371 276.336 81.7978 276.057C82.9928 270.565 84.6079 265.138 86.1265 259.839C86.2924 259.26 87.8203 253.802 87.8203 255.73C87.8203 257.564 86.5785 259.558 86.0324 261.064C85.3411 262.97 85.7473 265.213 86.5576 267.4C88.0489 266.645 89.4622 266.97 89.0565 269.696C93.157 265.998 97.9835 262.156 98.7361 263.803C99.6171 265.731 93.3269 269.854 88.5819 271.628C88.5764 271.645 88.5709 271.662 88.5654 271.679C89.0646 272.603 89.5477 273.452 89.9376 274.182C91.1901 276.528 92.3798 278.981 93.5135 281.462C93.7646 282.012 95.6607 284.349 94.5015 284.418C90.7851 284.637 87.0412 284.495 83.3135 284.438C83.3131 284.439 83.3127 284.44 83.3123 284.441C86.208 286.88 88.8353 290.241 91.6314 292.851C92.5736 293.73 100.9 301.087 97.5599 301.284C94.394 301.471 90.236 302.818 87.415 305.786C87.6082 306.615 87.8053 307.437 87.9936 308.252C89.0055 307.743 90.0228 307.134 90.3611 306.978C91.0669 306.654 95.715 303.225 94.1722 306.978C92.9886 309.858 91.3532 312.75 89.5216 315.456C90.3884 319.64 91.2669 323.788 92.3843 327.881C93.5324 332.087 94.7811 335.884 96.3836 339.702C97.1519 341.533 98.0332 342.602 95.9601 340.856C94.028 339.228 92.0614 337.834 90.0653 336.594C89.6879 339.297 88.9935 341.829 88.2438 344.496C86.8747 349.364 85.4577 354.336 84.1677 359.362C84.3807 359.453 84.5938 359.543 84.8069 359.633C86.3729 359.691 87.9356 359.809 89.4906 360.029C89.5793 360.041 89.6738 360.052 89.7733 360.063C91.1554 357.558 92.2956 354.912 92.4784 352.532C92.6905 349.77 92.7094 356.212 92.8739 360.379C94.8587 359.507 96.8759 358.466 98.5479 356.929C98.64 356.845 98.729 356.735 98.8125 356.613C98.8653 356.478 98.9183 356.343 98.9714 356.208C99.6855 354.399 99.3752 355.791 98.8125 356.613C97.5922 359.739 96.4634 363.015 95.3531 366.237L95.2073 366.66C94.3157 369.247 93.3253 374.949 93.3253 374.949C93.3253 374.949 93.3502 366.652 92.9959 362.551C92.9778 362.342 92.961 362.106 92.9452 361.849C91.8098 361.784 90.5518 361.692 89.9774 361.597C89.9642 361.603 89.9509 361.609 89.9376 361.614C89.47 361.812 88.9997 362.006 88.527 362.197C87.2249 364.323 85.8955 366.244 85.0443 367.669C83.4185 370.391 81.2783 372.754 80.5563 376.402C80.4155 377.231 80.3587 377.569 80.4804 376.823C80.5036 376.681 80.5289 376.541 80.5563 376.402C80.8031 374.949 81.3081 371.986 81.5626 370.696C81.9925 368.518 82.4699 366.342 82.9809 364.174C79.2684 365.312 75.4866 366.067 71.776 366.155C71.5622 366.16 71.3071 366.185 71.0228 366.221C72.0803 367.474 73.1314 368.742 74.1388 370.062C74.5192 370.054 74.9005 370.048 75.2813 370.048H79.1605C79.6859 370.015 80.2164 370.048 80.7392 370.048H79.1605C78.9564 370.06 78.7531 370.082 78.5513 370.12C77.4356 370.327 76.1932 370.643 74.8958 371.076C74.9697 371.177 75.0433 371.279 75.1166 371.381C76.1278 372.789 78.1943 374.714 78.6454 376.787C78.8974 377.945 77.0474 376.53 76.2929 376.138C74.5905 375.253 72.8885 374.331 71.2241 373.284C71.5351 376.191 71.6982 379.635 70.9761 381.724C69.9835 384.597 65.1285 383.457 61.5212 382.304C61.3115 382.532 61.1916 382.566 61.2979 382.232C59.6668 381.703 58.321 381.188 57.7548 381.076C53.5302 380.233 49.3698 379.186 45.0982 379.129C44.2641 379.118 40.7615 378.312 40.0637 379.274C39.787 379.655 47.5139 385.082 48.1094 385.617C48.8834 386.312 49.6657 386.332 48.7681 387.707C47.5858 389.518 46.0654 391.099 44.7217 392.608C43.7757 393.671 42.8662 394.722 41.9274 395.719C49.695 391.124 58.6013 390.75 66.7415 389.365C67.8393 389.178 68.9239 388.76 70.0351 388.86C70.7757 388.927 70.1913 390.353 70.835 390.806C72.4097 391.915 74.5588 391.8 76.5397 391.624C77.0725 388.184 74.5941 389.509 72.67 389.509C71.8856 389.509 68.0067 388.631 70.6468 387.707C74.678 386.295 78.8826 388.635 82.7618 391.389C84.4208 388.781 86.0391 386.098 87.491 383.238C87.708 382.81 87.9097 382.382 88.0928 381.962C87.7588 381.429 87.4226 380.89 87.0908 380.346C86.7607 381.28 86.4091 382.155 86.2206 382.878C84.6249 388.989 84.5901 382.639 86.6937 379.686C85.4825 377.652 84.3678 375.531 83.6798 373.291C83.408 372.406 86.7589 373.9 87.3028 374.733C88.0122 375.82 87.9646 377.161 87.6498 378.505C89.8014 376.126 89.4802 378.783 88.0928 381.962C88.9832 383.383 89.8588 384.765 90.5963 386.121C92.7018 389.992 90.8789 390.938 88.2908 391.311C86.5358 391.564 84.7513 391.574 82.9693 391.536C82.8701 391.534 82.771 391.532 82.6718 391.53C81.9296 392.694 81.1797 393.843 80.4333 394.987C79.1677 396.926 77.9655 399.639 76.4811 401.186C75.5527 402.153 76.203 393.397 76.4811 391.96C76.5036 391.843 76.5231 391.731 76.5397 391.624C74.5588 391.8 72.4097 391.915 70.835 390.806C70.1913 390.353 70.7757 388.927 70.0351 388.86C68.9239 388.76 67.8393 389.178 66.7415 389.365C58.6013 390.75 49.695 391.124 41.9274 395.719C41.1934 396.499 40.4415 397.247 39.6403 397.942C37.6577 399.663 37.6296 398.704 39.5462 397.293C40.3262 396.719 41.1207 396.196 41.9274 395.719C42.8662 394.722 43.7757 393.671 44.7217 392.608C46.0654 391.099 47.5858 389.518 48.7681 387.707C49.6657 386.332 48.8834 386.312 48.1094 385.617C47.5139 385.082 39.787 379.655 40.0637 379.274C40.7615 378.312 44.2641 379.118 45.0982 379.129C49.3698 379.186 53.5302 380.233 57.7548 381.076C58.321 381.188 59.6668 381.703 61.2979 382.232C61.3666 382.016 61.5299 381.646 61.8247 381.076C62.3231 380.111 62.9218 379.215 63.5972 378.385C64.7217 375.779 65.7513 373.002 66.7236 370.217C63.8169 368.13 60.9429 365.926 58.0136 363.921C57.6797 363.692 55.8256 362.546 55.2141 361.512V368.101C55.2141 371.86 56.1619 375.091 53.285 374.084C48.5963 372.442 43.7995 371.986 39.1227 370.308V372.686C40.7529 374.435 41.9716 376.159 41.5693 377.039C41.3436 377.533 39.8697 376.989 38.9783 376.696C38.3497 379.794 35.7799 379.845 33.4766 380.427C33.0952 380.523 32.7131 380.604 32.3307 380.673C33.5861 381.154 34.8858 381.823 36.0644 382.517C36.5802 382.821 37.2082 384.319 36.2996 384.319C34.0566 384.319 31.7971 382.884 29.7341 381.024C28.4857 381.162 27.2373 381.293 25.9955 381.58C25.5201 381.69 23.5532 382.236 23.1254 381.58C22.084 379.985 25.8679 379.891 28.7377 380.081C27.8319 379.185 26.9739 378.235 26.1837 377.328C23.2279 373.931 26.3674 375.815 28.5833 375.886C31.8505 375.99 35.1 376.438 38.3699 376.535C38.4791 376.538 38.7004 376.605 38.9783 376.696C39.0721 376.233 39.1227 375.703 39.1227 375.093V372.686C36.8664 370.265 33.8215 367.797 33.1943 367.453C32.6847 367.173 30.4693 366.138 30.7476 366.155C32.3426 366.257 33.8427 367.798 35.3116 368.606C36.5698 369.298 37.8418 369.849 39.1227 370.308V362.015C37.7041 362.807 36.5637 363.063 36.582 361.831C36.625 358.931 37.5317 356.007 38.798 353.224C38.6608 352.6 38.5146 351.98 38.3592 351.365C36.6181 353.884 34.8886 356.424 33.1943 359.019C32.0292 360.804 32.2244 358.049 32.6297 356.785C33.7514 353.287 35.4648 350.403 37.3189 347.735C37.1437 347.191 36.9608 346.652 36.7702 346.117C35.532 342.646 32.4528 340.329 35.3116 338.261C37.7602 336.489 40.4708 335.689 43.1624 334.883C44.7281 330.63 46.5703 324.834 44.8158 325.323C43.2402 325.761 41.3482 329.789 41.4517 329.503C42.6278 326.26 43.7807 321.13 43.7807 317.466C43.7807 313.869 43.8754 311.491 42.2667 313.446C41.7849 314.472 41.308 315.498 40.8401 316.529C40.7256 316.781 39.1697 320.746 39.1697 319.664C39.1697 317.588 40.5896 315.903 41.4517 314.583C41.763 314.106 42.0328 313.73 42.2667 313.446C43.1686 311.526 44.0876 309.61 44.9974 307.681C44.6937 307.479 44.384 307.299 44.063 307.159C43.4916 306.909 44.2437 307.051 45.1869 307.279C46.4858 304.518 47.762 301.73 48.9381 298.864C48.9125 298.795 48.8947 298.713 48.8857 298.617C48.6106 295.666 49.6651 292.466 51.2038 289.418C50.3597 289.307 48.6186 290.905 47.3566 292.238C46.1416 293.522 44.969 294.892 43.8003 296.27C41.8814 299.235 40.0642 302.437 37.9464 304.96C37.0977 305.971 37.8447 303.735 37.9464 303.519C38.645 302.032 39.6766 301.011 40.6283 299.951C41.7012 298.755 42.7492 297.51 43.8003 296.27C44.429 295.299 45.0686 294.352 45.7333 293.464C48.8865 289.248 52.0512 285.05 55.1906 280.814C55.8669 279.901 60.008 273.059 56.8138 274.435C54.0698 275.617 51.4004 277.702 48.8387 279.588C45.0754 282.36 41.5247 285.749 38.0641 289.319C37.7764 289.616 37.2633 290.083 36.6971 290.659C35.8454 292.831 34.2404 296.676 34.0647 295.734C33.7364 293.974 35.3639 292.015 36.6971 290.659C36.982 289.932 37.1826 289.393 37.2171 289.283C38.0665 286.581 39.1809 284.045 39.7344 281.138C39.8127 280.727 40.1353 276.591 39.7344 277.03C36.9655 280.059 35.4048 283.12 31.7357 283.12C29.9859 283.12 27.5013 284.287 28.748 280.85C30.4926 276.039 26.498 283.654 25.972 284.742C24.08 288.655 20.8894 293.767 20.1187 299.137C20.3723 299.055 20.4033 299.26 20.019 299.973C19.909 301.136 19.9204 302.309 20.0906 303.483C20.3128 305.014 25.7034 298.394 26.0426 298.005C26.582 297.385 27.5867 296.224 28.6777 294.798C28.9554 293.782 29.276 292.802 29.6184 291.878C29.794 291.404 33.0131 283.932 33.1708 284.778C33.6899 287.562 30.9899 291.776 28.6777 294.798C28.0863 296.961 27.6893 299.285 27.6893 301.573C27.6893 301.805 27.5701 304.594 28.1128 303.555C28.6493 302.527 29.9838 302.168 30.6771 301.212C30.7375 301.129 30.7981 301.046 30.8589 300.965C30.9249 300.867 30.9898 300.769 31.0535 300.672C33.3327 297.18 35.6753 293.914 38.0405 290.58C38.6737 289.688 39.9 288.452 40.3695 287.373C40.6084 286.824 40.407 288.808 40.1343 289.319C38.9631 291.512 37.3756 293.32 35.9468 295.085C34.266 297.162 32.4878 298.779 30.8589 300.965C29.1905 303.443 26.8424 306.089 26.8424 309.934C26.8424 310.644 27.6672 309.264 28.1128 309.069C29.5886 308.423 32.9018 303.557 32.1121 305.573C30.5558 309.546 28.1904 312.432 26.6777 316.457C24.3467 322.659 30.4471 315.231 31.3358 314.222C32.9745 312.363 34.7356 310.642 36.3164 308.648C37.0772 306.804 37.8953 305.249 38.464 305.249C38.4712 305.249 37.1203 307.587 36.9584 307.807C36.7483 308.093 36.5341 308.373 36.3164 308.648C35.3512 310.987 34.4781 313.791 34.3235 314.475C32.9637 320.484 35.4397 317.685 37.4289 316.205C38.9495 315.073 43.3012 311.177 41.9928 312.817C35.8653 320.497 28.6397 326.486 22.4377 334.243C22.5467 334.545 22.6078 335.006 22.6078 335.666C22.6078 337.182 22.0308 338.672 21.244 340.094C26.7393 335.711 32.4227 331.408 37.3485 325.561C37.6497 325.026 37.9582 324.501 38.2758 323.989C39.4257 322.137 39.9649 322.284 38.511 324.133C38.1287 324.62 37.741 325.095 37.3485 325.561C35.5235 328.806 33.965 332.439 32.2533 335.81C31.1287 338.025 29.6733 340.523 28.707 343.245C29.9013 341.134 31.4095 339.102 32.3474 339.198C32.7057 339.234 29.2805 345.877 28.9597 346.55C28.8499 346.78 27.6332 348.98 27.6893 347.991C27.7827 346.346 28.1691 344.761 28.707 343.245C27.8343 344.788 27.1292 346.372 26.9365 347.198C26.0794 350.875 28.5935 348.096 29.4773 347.991C31.483 347.755 33.1678 347.11 30.6535 350.082C29.1017 351.916 27.8353 354.36 26.419 356.425C23.6815 360.415 19.8693 363.242 17.7146 368.101C15.1632 373.856 20.259 368.21 21.3375 367.309C22.6903 366.178 24.4032 364.479 26.0577 362.512C27.5456 359.598 28.9965 356.502 30.6535 353.83C30.9791 353.305 31.9375 352.284 31.4064 353.83C30.4134 356.72 28.2886 359.86 26.0577 362.512C25.9275 362.767 25.7971 363.02 25.6662 363.272C22.781 368.819 19.2241 374.044 16.9617 380.283C16.6271 381.206 16.256 384.61 16.256 384.319C16.256 382.082 13.2034 382.97 12.0214 382.517C9.99663 381.742 8.26161 380.87 6.46021 379.66C5.91735 380.309 5.3713 380.95 4.82263 381.58C4.65226 381.776 3.29122 383.631 3.2229 383.526C2.76448 382.824 3.11879 379.44 3.2229 378.625C3.26821 378.27 3.32214 377.917 3.38358 377.566C2.43271 377.035 2.36421 376.909 3.45815 374.589C4.44134 372.503 6.93808 365.8 6.1871 368.101C5.2076 371.102 3.96246 374.256 3.38358 377.566C3.74254 377.766 4.22724 378.025 4.82263 378.481C5.38067 378.908 5.92339 379.299 6.46021 379.66C8.21242 377.564 9.93138 375.377 11.5979 373.147C14.0634 369.848 17.2196 366.4 18.9379 362.047C19.5194 360.573 17.4435 362.344 16.1764 363.739C15.9385 365.029 15.5898 366.325 15.0797 367.669C13.6125 371.535 14.6095 366.313 15.315 364.858C15.4358 364.609 15.763 364.194 16.1764 363.739C16.7546 360.604 16.6794 357.504 16.6794 353.83C16.6794 350.658 16.123 350.982 14.5622 352.388C13.3903 353.444 17.0236 346.864 17.5264 345.901C18.409 344.211 20.0628 342.229 21.244 340.094C21.1967 340.131 21.1495 340.169 21.1022 340.207C20.019 341.072 18.6596 343.395 17.2911 343.162C16.0432 342.95 21.9641 334.842 21.9962 334.801C22.1428 334.614 22.2899 334.428 22.4377 334.243C22.0635 333.207 21.1255 334.032 20.1612 335.017C19.0017 336.201 17.7087 337.56 16.4522 339.068C15.9665 339.992 15.4779 340.913 14.9856 341.829C14.6992 342.361 9.55925 352.94 11.1745 347.991C12.2604 344.664 14.303 341.648 16.4522 339.068C18.5171 335.139 20.528 331.142 22.5381 327.147L22.749 326.728C23.442 325.351 25.9421 321.919 25.5485 319.808C25.3961 318.991 19.9514 324.763 19.3849 325.323C17.1739 327.508 15.1922 329.874 13.1271 332.35C12.4547 333.156 11.457 335.089 12.4919 332.711C14.6105 327.842 17.3987 323.654 19.3849 318.583C20.5689 315.56 17.6637 317.896 17.0794 318.511C16.7613 318.846 16.292 319.351 15.8034 319.956C15.8775 320.176 15.8867 320.534 15.809 321.07C15.6776 321.975 13.86 325.576 13.7388 324.926C13.436 323.303 14.6714 321.359 15.8034 319.956C15.3734 318.681 12.7586 322.052 12.2331 322.367C11.1372 323.024 6.91205 328.47 8.63375 324.89C9.81884 322.426 10.8034 320.017 12.2331 317.826C13.2515 316.266 14.5827 315.067 15.1738 312.997C15.9956 310.119 14.6963 310.366 13.2683 310.366H12.3714C10.6184 312.322 8.80509 314.142 6.98697 315.844C6.54994 316.253 5.85241 317.3 5.73896 316.981C4.86835 317.994 4.00398 319.017 3.15232 320.061C2.47913 320.886 0.57854 321.66 1.90547 319.772L2.06384 319.547C3.13838 318.019 4.20573 316.501 5.24608 314.907C5.88529 313.928 9.49848 310.366 7.62215 310.366H9.41388C9.83471 309.937 10.2529 309.537 10.6464 309.16L10.704 309.105C12.2762 307.599 13.5038 305.598 15.1503 304.239C16.5915 303.051 15.8826 304.884 15.1032 305.897C13.9207 307.434 12.7034 308.914 11.4701 310.366H12.3714C15.0485 307.379 17.5853 304.074 19.7848 300.383C19.8756 300.231 19.9534 300.094 20.019 299.973C20.0454 299.693 20.0788 299.415 20.1187 299.137C19.4969 299.337 17.5369 301.259 17.0794 301.645C15.9279 302.615 13.151 306.653 13.7388 304.852C14.872 301.38 17.5506 298.388 19.4084 295.77C19.9871 294.954 25.1248 287.779 23.0078 288.995C21.1487 290.063 18.8747 292.192 16.9229 294.515C16.1541 296.793 13.0849 300.131 13.974 298.617C14.7478 297.3 15.7801 295.874 16.9229 294.515C17.0009 294.284 17.0553 294.063 17.0794 293.86C17.5291 290.071 15.5233 292.829 14.5386 294.148C13.0798 296.104 11.4303 296.02 12.0214 292.851C12.4663 290.466 13.6422 288.085 14.9757 285.944C12.6806 287.235 10.6788 288.163 10.0688 288.526C8.42674 289.504 6.75414 290.371 5.11114 291.345C4.8828 291.514 4.65338 291.68 4.42269 291.842C3.87642 292.225 2.88905 292.714 4.35212 291.806C4.60427 291.649 4.85735 291.496 5.11114 291.345C7.34182 289.696 9.47 287.748 11.6685 286.003Z" fill="#4BD14B" fill-opacity="0.6"/>
<path d="M19.2202 274.687C25.0975 274.687 40.0556 259.563 35.8997 265.929C33.563 269.509 29.6631 271.878 26.7483 274.11C21.6918 277.984 16.6886 282.021 11.6685 286.003C9.24495 287.926 6.90685 290.098 4.42269 291.842C3.87642 292.225 2.88905 292.714 4.35212 291.806C6.23669 290.635 8.17309 289.656 10.0688 288.526C11.738 287.532 23.8312 282.308 23.8312 276.994C23.8312 274.525 18.5934 280.844 18.5615 280.886C16.3724 283.777 12.8693 288.305 12.0214 292.851C11.4303 296.02 13.0798 296.104 14.5386 294.148C15.5233 292.829 17.5291 290.071 17.0794 293.86C16.8175 296.066 12.9947 300.284 13.974 298.617C16.0694 295.051 20.0602 290.688 23.0078 288.995C25.1248 287.779 19.9871 294.954 19.4084 295.77C17.5506 298.388 14.872 301.38 13.7388 304.852C13.151 306.653 15.9279 302.615 17.0794 301.645C17.7554 301.075 21.7113 297.151 19.7848 300.383C16.145 306.49 11.5815 311.543 6.98697 315.844C6.37781 316.414 5.26255 318.224 5.92832 315.844C6.76587 312.85 8.98468 310.751 10.704 309.105C12.2762 307.599 13.5038 305.598 15.1503 304.239C16.5915 303.051 15.8826 304.884 15.1032 305.897C11.2727 310.876 7.07744 315.25 3.15232 320.061C2.47913 320.886 0.57854 321.66 1.90547 319.772C3.03348 318.168 4.15464 316.579 5.24608 314.907C5.88529 313.928 9.49848 310.366 7.62215 310.366C5.74012 310.366 11.3862 310.366 13.2683 310.366C14.6963 310.366 15.9956 310.119 15.1738 312.997C14.5827 315.067 13.2515 316.266 12.2331 317.826C10.8034 320.017 9.81884 322.426 8.63375 324.89C6.91205 328.47 11.1372 323.024 12.2331 322.367C12.8492 321.998 16.3373 317.428 15.809 321.07C15.6776 321.975 13.86 325.576 13.7388 324.926C13.3053 322.602 16.0243 319.622 17.0794 318.511C17.6637 317.896 20.5689 315.56 19.3849 318.583C17.3987 323.654 14.6105 327.842 12.4919 332.711C11.457 335.089 12.4547 333.156 13.1271 332.35C15.1922 329.874 17.1739 327.508 19.3849 325.323C19.9514 324.763 25.3961 318.991 25.5485 319.808C25.9421 321.919 23.442 325.351 22.749 326.728C20.1959 331.802 17.6443 336.883 14.9856 341.829C14.6992 342.361 9.55925 352.94 11.1745 347.991C12.8953 342.719 17.0185 338.227 20.1612 335.017C21.4064 333.745 22.6078 332.739 22.6078 335.666C22.6078 339.459 18.9969 343.085 17.5264 345.901C17.0236 346.864 13.3903 353.444 14.5622 352.388C16.123 350.982 16.6794 350.658 16.6794 353.83C16.6794 359.016 16.8293 363.059 15.0797 367.669C13.6125 371.535 14.6095 366.313 15.315 364.858C15.806 363.845 19.7092 360.093 18.9379 362.047C17.2196 366.4 14.0634 369.848 11.5979 373.147C9.41505 376.068 7.14229 378.915 4.82263 381.58C4.65226 381.776 3.29122 383.631 3.2229 383.526C2.76448 382.824 3.11879 379.44 3.2229 378.625C3.69516 374.927 5.10365 371.421 6.1871 368.101C6.93808 365.8 4.44134 372.503 3.45815 374.589C1.95124 377.785 2.65008 376.817 4.82263 378.481C7.25326 380.343 9.39324 381.511 12.0214 382.517C13.2034 382.97 16.256 382.082 16.256 384.319C16.256 384.61 16.6271 381.206 16.9617 380.283C19.2241 374.044 22.781 368.819 25.6662 363.272C27.2933 360.143 28.8515 356.736 30.6535 353.83C30.9791 353.305 31.9375 352.284 31.4064 353.83C29.677 358.863 24.5144 364.654 21.3375 367.309C20.259 368.21 15.1632 373.856 17.7146 368.101C19.8693 363.242 23.6815 360.415 26.419 356.425C27.8353 354.36 29.1017 351.916 30.6535 350.082C33.1678 347.11 31.483 347.755 29.4773 347.991C28.5935 348.096 26.0794 350.875 26.9365 347.198C27.393 345.24 30.7242 339.032 32.3474 339.198C32.7057 339.234 29.2805 345.877 28.9597 346.55C28.8499 346.78 27.6332 348.98 27.6893 347.991C27.9505 343.391 30.5027 339.258 32.2533 335.81C34.2475 331.882 36.0337 327.6 38.2758 323.989C39.4257 322.137 39.9649 322.284 38.511 324.133C33.2883 330.775 27.0791 335.435 21.1022 340.207C20.019 341.072 18.6596 343.395 17.2911 343.162C16.0432 342.95 21.9641 334.842 21.9962 334.801C28.2948 326.77 35.7193 320.68 41.9928 312.817C43.3012 311.177 38.9495 315.073 37.4289 316.205C35.4397 317.685 32.9637 320.484 34.3235 314.475C34.6 313.253 37.1738 305.249 38.464 305.249C38.4712 305.249 37.1202 307.587 36.9584 307.807C35.2229 310.171 33.2001 312.107 31.3358 314.222C30.4471 315.231 24.3467 322.659 26.6777 316.457C28.1904 312.432 30.5558 309.546 32.1121 305.573C32.9018 303.557 29.5886 308.423 28.1128 309.069C27.6672 309.264 26.8424 310.644 26.8424 309.934C26.8424 305.937 29.3798 303.235 31.0535 300.672C33.3327 297.18 35.6753 293.914 38.0405 290.58C38.6737 289.688 39.9 288.452 40.3695 287.373C40.6084 286.824 40.407 288.808 40.1343 289.319C38.9631 291.512 37.3756 293.32 35.9468 295.085C34.2032 297.239 32.3549 298.899 30.6771 301.212C29.9838 302.168 28.6493 302.527 28.1128 303.555C27.5701 304.594 27.6893 301.805 27.6893 301.573C27.6893 298.211 28.5466 294.771 29.6184 291.878C29.794 291.404 33.013 283.932 33.1708 284.778C33.9349 288.875 27.7251 296.071 26.0426 298.005C25.7034 298.394 20.3128 305.014 20.0906 303.483C19.0902 296.586 23.5741 289.701 25.972 284.742C26.498 283.654 30.4926 276.039 28.748 280.85C27.5013 284.287 29.9859 283.12 31.7357 283.12C35.4048 283.12 36.9655 280.059 39.7344 277.03C40.1353 276.591 39.8127 280.727 39.7344 281.138C39.1809 284.045 38.0665 286.581 37.2171 289.283C37.0792 289.722 34.2992 296.991 34.0647 295.734C33.597 293.226 37.0991 290.315 38.0641 289.319C41.5247 285.749 45.0754 282.36 48.8387 279.588C51.4004 277.702 54.0698 275.617 56.8138 274.435C60.008 273.059 55.8669 279.901 55.1906 280.814C52.0512 285.05 48.8865 289.248 45.7333 293.464C43.0401 297.064 40.7581 301.61 37.9464 304.96C37.0977 305.971 37.8447 303.735 37.9464 303.519C38.645 302.032 39.6766 301.011 40.6283 299.951C42.8942 297.426 45.0489 294.676 47.3566 292.238C49.5898 289.879 53.3227 286.691 50.9325 293.608C48.1341 301.705 44.25 309.02 40.8401 316.529C40.7256 316.781 39.1697 320.746 39.1697 319.664C39.1697 317.588 40.5896 315.903 41.4517 314.583C43.9049 310.825 43.7807 313.347 43.7807 317.466C43.7807 321.13 42.6278 326.26 41.4517 329.503C41.3482 329.789 43.2402 325.761 44.8158 325.323C47.5314 324.566 41.6305 338.865 41.4752 339.198C40.2478 341.83 39.1996 344.565 38.0641 347.271C37.4841 348.653 37.2268 348.441 37.9464 346.91C41.2767 339.824 46.9977 334.641 51.3559 329.179C55.5955 323.865 49.1073 335.665 48.2506 336.963C43.3202 344.432 38.1092 351.49 33.1943 359.019C32.0292 360.804 32.2244 358.049 32.6297 356.785C34.57 350.734 38.2809 346.522 41.4282 342.081C43.2643 339.49 45.2861 337.154 47.0743 334.513C47.3488 334.107 48.6378 332.89 47.9212 333.215C43.8139 335.08 39.2278 335.428 35.3116 338.261C32.4528 340.329 35.532 342.646 36.7702 346.117C39.2258 353.002 40.3931 360.662 40.3931 368.462C40.3931 372.781 40.3011 366.961 40.0637 365.507C39.8802 364.382 39.1227 356.195 39.1227 360.173C39.1227 365.146 39.1227 370.12 39.1227 375.093C39.1227 379.791 36.1237 379.758 33.4766 380.427C30.9914 381.055 28.4802 381.006 25.9955 381.58C25.5201 381.69 23.5532 382.236 23.1254 381.58C21.5619 379.185 30.8758 380.174 31.6416 380.427C33.1026 380.909 34.6684 381.695 36.0644 382.517C36.5802 382.821 37.2082 384.319 36.2996 384.319C32.6699 384.319 28.9974 380.56 26.1837 377.328C23.2279 373.931 26.3674 375.815 28.5833 375.886C31.8505 375.99 35.1 376.438 38.3699 376.535C38.8293 376.548 41.2733 377.687 41.5693 377.039C42.5283 374.941 34.2747 368.046 33.1943 367.453C32.6847 367.173 30.4693 366.138 30.7476 366.155C32.3426 366.257 33.8427 367.798 35.3116 368.606C41.1639 371.824 47.3121 371.993 53.285 374.084C56.1619 375.091 55.2141 371.86 55.2141 368.101C55.2141 361.494 55.2141 354.887 55.2141 348.28C55.2141 347.828 55.3793 344.948 55.12 346.189C54.4252 349.516 54.2046 352.048 53.0027 355.343C52.7821 355.948 48.0153 369.11 47.2625 367.957C46.1584 366.266 48.681 360.359 49.0975 359.236C51.0004 354.102 58.4548 340.703 56.8138 346.045C56.1284 348.277 54.2671 349.327 53.0027 350.586C50.2252 353.352 47.2406 355.504 44.3924 358.082C43.6016 358.798 36.5366 364.884 36.582 361.831C36.6931 354.337 42.5739 346.677 45.5216 341.72C49.2331 335.48 53.0816 329.416 57.002 323.485C58.6318 321.019 60.3256 318.619 61.9894 316.205C62.936 314.831 62.3363 316.242 61.9894 316.997C59.4478 322.53 54.9504 327.2 51.403 331.125C50.2059 332.449 48.681 334.354 47.7801 336.17C46.9136 337.917 48.5307 334.918 48.9563 334.513C49.7771 333.73 54.4289 329.084 55.5434 330.62C57.0618 332.714 53.2268 340.515 52.6733 342.117C51.7425 344.81 50.557 347.268 49.5209 349.865C49.4025 350.162 48.4388 351.685 48.4388 351.451C48.4388 346.575 53.9357 343.16 56.2492 340.892C57.364 339.799 58.4719 339.396 59.6369 338.585C60.529 337.964 59.353 338.266 58.79 337.576C55.9282 334.069 53.4217 330.29 51.6382 325.323C49.9432 320.601 51.8198 321.694 53.7555 323.953C55.5726 326.074 57.2664 329.7 59.2369 331.377C60.262 332.25 59.6899 326.942 59.6369 326.548C59.052 322.196 58.2715 317.93 57.3549 313.718C56.7358 310.872 56.0109 307.652 54.7906 305.249C54.4215 304.521 53.5203 303.124 53.5203 304.852C53.5203 309.724 56.9094 315.871 58.4135 320.061C59.6927 323.624 61.853 325.054 60.0603 320.061C57.899 314.041 51.408 309.106 47.1684 307.807C46.144 307.493 43.0585 306.719 44.063 307.159C45.5978 307.83 46.8748 309.398 48.4623 310.042C50.8389 311.006 56.6649 314.632 58.3665 310.366C60.3466 305.402 59.1858 297.741 60.0839 292.238C60.2753 291.065 60.2956 283.231 60.2956 287.013C60.2956 296.903 56.2588 306.852 53.9202 315.808C53.83 316.154 53.6519 313.156 53.779 312.529C54.9651 306.674 57.6768 301.386 59.7545 296.203C61.6605 291.447 63.8629 286.977 65.7535 282.219C66.9766 279.141 65.3515 283.076 64.883 283.841C61.5114 289.351 56.6857 294.809 52.0852 297.68C51.5558 298.011 49.0325 300.191 48.8857 298.617C48.2026 291.292 55.7146 282.426 58.4841 278.183C62.5644 271.932 66.845 265.791 71.2819 260.127C71.5145 259.83 74.4743 255.923 74.2462 257.496C73.7093 261.197 73.8462 264.99 73.8462 268.885C73.8462 275.576 73.8462 282.267 73.8462 288.959C73.8462 290.352 73.1871 300.617 74.2462 301.428C75.8103 302.626 72.488 296.737 71.2819 294.797C69.436 291.828 67.505 288.975 65.6123 286.076C64.4831 284.346 63.3539 282.616 62.2247 280.886C61.0951 279.155 62.6097 282.212 62.8363 282.832C64.8519 288.346 66.9656 293.767 68.9529 299.302C70.7714 304.367 70.4586 299.39 70.4586 296.347C70.4586 289.388 70.1554 283.698 72.5758 277.606C73.5619 275.125 76.066 271.6 77.8691 274.363C80.2994 278.086 78.4536 285.02 77.2104 288.67C74.0737 297.88 68.8679 303.924 64.1067 311.015C62.2091 313.841 61.9271 314.063 61.9894 309.862C62.0679 304.572 65.5385 299.772 67.6355 296.167C72.212 288.297 77.2883 281.148 83.0682 275.408C83.3416 275.136 97.4055 260.891 98.7361 263.803C100.129 266.852 83.5858 275.392 83.5858 271.443C83.5858 267.741 92.1812 262.945 87.9615 273.318C86.5692 276.74 84.9076 279.907 83.6798 283.481C82.8647 285.853 81.374 288.016 80.7156 290.4C80.1352 292.502 80.1981 290.034 80.1981 288.959C80.1981 284.45 80.8661 280.339 81.7978 276.057C82.9928 270.565 84.6079 265.138 86.1265 259.839C86.2924 259.26 87.8203 253.802 87.8203 255.73C87.8203 257.564 86.5785 259.558 86.0324 261.064C84.536 265.19 88.1815 270.894 89.9376 274.182C91.1901 276.528 92.3798 278.981 93.5135 281.462C93.7646 282.012 95.6607 284.349 94.5015 284.418C89.9834 284.684 85.4246 284.418 80.9039 284.418C80.4622 284.418 77.5956 284.504 77.6573 284.562C78.8526 285.681 79.8054 287.279 81.045 288.31C81.795 288.934 86.0029 291.751 86.3617 292.851C86.4114 293.003 84.0498 293.964 83.9151 294.004C82.1813 294.524 80.5436 295.368 78.8336 295.95C77.3166 296.467 74.1413 296.351 74.8813 299.626C76.0528 304.811 79.3415 309.258 82.2213 312.312C84.2544 314.469 83.7568 311.146 83.4916 308.348C82.7543 300.566 80.5392 293.403 79.8687 285.571C79.7153 283.778 79.4717 281.84 80.998 282.76C84.8569 285.086 88.1103 289.565 91.6314 292.851C92.5736 293.73 100.9 301.087 97.5599 301.284C93.9088 301.499 88.9383 303.258 86.2206 307.267C83.6167 311.108 89.4503 307.397 90.3611 306.978C91.0669 306.654 95.715 303.225 94.1722 306.978C91.3704 313.795 86.0361 320.683 81.5626 324.998C79.5264 326.962 82.7382 307.136 83.1623 305.032C83.3342 304.18 85.8511 293.825 86.1265 298.185C86.3753 302.124 87.5386 306.059 88.3379 309.79C89.646 315.895 90.7641 321.946 92.3843 327.881C93.5324 332.087 94.7811 335.884 96.3836 339.702C97.1519 341.533 98.0332 342.602 95.9601 340.856C89.8165 335.679 83.3234 332.875 76.6457 329.827C75.6681 329.381 72.685 328.53 73.7051 328.53C75.7887 328.53 77.8368 329.007 79.9158 329.143C82.5613 329.315 90.6778 332.501 86.0559 325.575C82.1508 319.722 77.4434 314.334 72.0348 312.384C69.5981 311.506 72.7673 310.506 72.5523 311.988C72.4162 312.927 71.3624 313.461 70.882 313.934C69.5415 315.254 69.0229 318.118 68.6001 320.349C67.5093 326.104 67.7276 334.868 69.7998 340.063C69.8923 340.294 70.7025 341.981 70.8585 341.144C71.1674 339.488 69.681 337.011 69.1411 335.918C66.3543 330.277 57.0306 314.581 59.8015 320.241C60.5956 321.863 62.6145 323.207 63.6597 324.313C65.8717 326.656 68.0478 329.079 70.2468 331.449C73.2715 334.71 76.09 339.065 79.3276 341.793C80.0196 342.376 81.802 343.673 79.9864 342.369C76.6083 339.943 73.0481 338.601 69.3529 337.972C66.673 337.516 55.1234 335.181 54.3907 342.477C54.1543 344.832 56.7358 344.288 57.7078 344.387C63.9491 345.025 69.1966 340.138 74.0109 334.621C78.2243 329.792 81.518 324.547 84.8561 318.439C85.8823 316.561 89.0751 311.676 87.538 312.348C85.0132 313.453 82.5449 317.954 80.598 320.457C76.1242 326.209 71.7732 332.186 67.4003 338.117C64.4154 342.164 61.903 346.903 58.9546 350.983C58.639 351.419 57.6599 352.829 57.8489 351.091C58.1308 348.5 60.1034 346.127 61.1895 344.387C63.9776 339.922 66.9399 335.499 70.0116 331.485C71.0602 330.115 72.9149 326.656 74.4579 326.656C75.6806 326.656 75.113 333.872 75.0931 334.801C74.8654 345.439 71.5315 355.948 68.4118 365.254C66.6588 370.484 64.7779 376.043 62.507 380.787C61.885 382.087 60.4731 383.691 61.8247 381.076C65.2247 374.496 73.2935 371.096 78.5513 370.12C79.2726 369.986 80.0133 370.048 80.7392 370.048C82.5585 370.048 77.1006 370.048 75.2813 370.048C70.642 370.048 65.9125 371.023 63.942 363.308C62.6035 358.068 66.1456 360.358 67.7296 362.299C70.175 365.296 72.8034 368.159 75.1166 371.381C76.1278 372.789 78.1943 374.714 78.6454 376.787C78.8974 377.945 77.0474 376.53 76.2929 376.138C74.4012 375.155 72.51 374.125 70.6703 372.931C66.3888 370.151 62.2594 366.827 58.0136 363.921C57.4937 363.565 53.2891 360.985 55.8257 360.065C61.5645 357.982 68.567 359.668 74.3873 359.668C79.405 359.668 84.4876 359.323 89.4906 360.029C90.9461 360.234 93.9767 360.09 95.1838 361.939C95.2083 361.976 90.3504 361.755 89.7259 361.542C85.2578 360.021 80.8952 357.785 76.434 356.208C74.8968 355.665 73.0197 355.469 71.5643 354.478C71.0024 354.096 74.8473 353.245 75.1401 353.145C77.0321 352.501 84.38 350.795 84.8326 346.982C85.4668 341.639 87.0173 335.764 89.3024 331.485C90.1151 329.964 90.3611 330.858 90.3611 332.422C90.3611 336.826 89.3643 340.511 88.2438 344.496C85.852 353.001 83.3138 361.822 81.5626 370.696C81.1629 372.721 80.1454 378.875 80.4804 376.823C81.1152 372.933 83.3568 370.495 85.0443 367.669C87.1286 364.179 92.0799 357.721 92.4784 352.532C92.7339 349.205 92.709 359.23 92.9959 362.551C93.3502 366.652 93.3253 374.949 93.3253 374.949C93.3253 374.949 94.3157 369.247 95.2073 366.66C96.4126 363.163 97.6361 359.591 98.9714 356.208C99.7914 354.131 99.2606 356.274 98.5479 356.929C96.0307 359.243 92.7315 360.432 89.9376 361.614C84.103 364.082 77.8442 366.011 71.776 366.155C70.327 366.19 66.9735 367.147 65.5653 366.011C63.4268 364.287 65.6327 352.015 66.224 349.938C67.0551 347.017 67.4149 343.427 67.4944 348.784C67.5956 355.606 69.8267 363.248 70.7879 369.903C71.2169 372.874 72.018 378.709 70.9761 381.724C69.5072 385.975 59.5799 381.439 57.7548 381.076C53.5302 380.233 49.3698 379.186 45.0982 379.129C44.2641 379.118 40.7615 378.312 40.0637 379.274C39.787 379.655 47.5139 385.082 48.1094 385.617C48.8834 386.312 49.6657 386.332 48.7681 387.707C47.5858 389.518 46.0654 391.099 44.7217 392.608C43.036 394.502 41.4661 396.357 39.6403 397.942C37.6577 399.663 37.6296 398.704 39.5462 397.293C47.8367 391.191 57.7558 390.894 66.7415 389.365C67.8393 389.178 68.9239 388.76 70.0351 388.86C70.7757 388.927 70.1913 390.353 70.835 390.806C73.1114 392.409 76.588 391.455 79.0218 391.455C82.0887 391.455 85.2343 391.752 88.2908 391.311C90.8789 390.938 92.7018 389.992 90.5963 386.121C88.4464 382.169 85.1236 377.991 83.6798 373.291C83.408 372.406 86.7589 373.9 87.3028 374.733C88.8521 377.106 86.7909 380.693 86.2206 382.878C84.6021 389.076 84.5894 382.455 86.7852 379.562C90.2256 375.029 89.5458 379.191 87.491 383.238C85.3639 387.427 82.8796 391.239 80.4333 394.987C79.1677 396.926 77.9655 399.639 76.4811 401.186C75.5527 402.153 76.203 393.397 76.4811 391.96C77.2275 388.1 74.6541 389.509 72.67 389.509C71.8856 389.509 68.0067 388.631 70.6468 387.707C76.5352 385.645 82.7938 391.588 87.8674 395.131C91.2194 397.472 95.8609 401.834 99.6771 401.834" stroke="#4BD14B" stroke-width="2.49741" stroke-linecap="round"/>
<path d="M89.0428 40.8625C89.5819 40.8332 90.068 40.8187 90.4536 40.8356C94.0546 40.9936 103.212 39.5103 105.057 43.917C106.004 46.18 104.492 48.4993 104.119 50.7162C102.78 58.6783 102.464 66.935 101.707 74.9656C100.21 90.866 100.889 106.696 99.8653 122.56C99.7229 124.767 98.79 122.473 98.559 121.723C96.6072 115.379 95.431 108.799 94.1714 102.296C92.3278 92.7797 90.2037 83.4206 88.9607 73.8856C88.9151 94.6571 88.9414 115.43 89.3818 136.192C89.8277 157.215 90.6071 178.191 91.6431 199.161C92.2118 210.671 92.8578 222.179 93.5685 233.692C93.6632 235.226 93.7755 236.756 93.9001 238.282C94.5304 242.379 96.4759 247.956 95.5446 252.08C95.4 252.72 95.0559 250.442 95.0422 250.305C94.6408 246.291 94.2279 242.297 93.9001 238.282C93.8897 238.214 93.8796 238.147 93.8699 238.079C92.0178 225.278 91.6111 212.225 91.6431 199.161C90.6071 178.191 89.8277 157.215 89.3818 136.192C88.9414 115.43 88.9151 94.6571 88.9607 73.8856C88.4735 70.1484 88.1216 66.3842 87.975 62.573C87.6984 55.3807 87.6454 48.1682 87.6699 40.9528C87.6994 32.2777 87.8411 23.5984 87.8411 14.9451V2.95434C87.8411 1.16187 87.9685 0.765387 88.31 2.68639C90.1355 12.9552 89.0468 24.2247 89.0468 34.5723C89.0468 36.669 89.0454 38.7657 89.0428 40.8625Z" fill="#4BD14B" fill-opacity="0.6"/>
<path d="M85.4295 38.7255C87.7802 38.7255 83.7241 39.4295 83.152 40.0653C81.5148 41.8844 88.0085 40.7284 90.4536 40.8356C94.0546 40.9936 103.212 39.5103 105.057 43.917C106.004 46.18 104.492 48.4993 104.119 50.7162C102.78 58.6783 102.464 66.935 101.707 74.9656C100.21 90.866 100.889 106.696 99.8653 122.56C99.7229 124.767 98.79 122.473 98.559 121.723C96.6072 115.379 95.431 108.799 94.1714 102.296C91.6052 89.0497 88.4956 76.1082 87.975 62.573C87.3658 46.7335 87.8411 30.7957 87.8411 14.9451C87.8411 10.9481 87.8411 6.95124 87.8411 2.95434C87.8411 1.16187 87.9685 0.765387 88.31 2.68639C90.1355 12.9552 89.0468 24.2247 89.0468 34.5723C89.0468 68.4401 88.6635 102.33 89.3818 136.192C90.0725 168.755 91.5631 201.204 93.5685 233.692C93.9124 239.263 94.4882 244.764 95.0422 250.305C95.0559 250.442 95.4 252.72 95.5446 252.08C96.4913 247.887 94.4652 242.194 93.8699 238.079C90.3393 213.677 92.0613 188.36 92.0613 163.791C92.0613 151.041 92.0613 138.291 92.0613 125.541" stroke="#4BD14B" stroke-width="2.49741" stroke-linecap="round"/>
</g>
<defs>
<clipPath id="clip0_3_36">
<rect width="105" height="404" fill="white"/>
</clipPath>
</defs>
</svg>
