<svg width="316" height="301" viewBox="0 0 316 301" fill="none" xmlns="http://www.w3.org/2000/svg" xmlns:xlink="http://www.w3.org/1999/xlink">
<path d="M188.223 260.665C153.553 280.698 75.5715 319.527 33.4344 275.785C-0.104417 240.969 17.7586 212.307 21.9879 152.526C27.2745 77.799 69.6845 8.51679 152.785 9.6498C235.885 10.7828 314.871 96.3201 306.479 152.855C298.087 209.39 222.893 240.633 188.223 260.665Z" fill="url(#pattern0)"/>
<path d="M188.223 260.665C153.553 280.698 75.5715 319.527 33.4344 275.785C-0.104417 240.969 17.7586 212.307 21.9879 152.526C27.2745 77.799 69.6845 8.51679 152.785 9.6498C235.885 10.7828 314.871 96.3201 306.479 152.855C298.087 209.39 222.893 240.633 188.223 260.665Z" fill="#EA579A"/>
<path d="M104.741 214.092C90.6999 191.468 88.2105 159.698 75.2824 155.285C62.3544 150.871 56.5225 164.194 58.522 190.693C60.5216 217.192 85.376 246.653 108.13 258.033C138.276 273.11 118.782 236.717 104.741 214.092Z" fill="#5D1335"/>
<defs>
<pattern id="pattern0" patternContentUnits="objectBoundingBox" width="1" height="1">
<use xlink:href="#image0_29_507" transform="matrix(-0.000580991 -0.000269771 0.000254581 -0.000615657 0.902225 1.24228)"/>
</pattern>
</defs>
</svg>
